<?xml version="1.0" encoding="utf-8"?>
<!-- Generator: Adobe Illustrator 18.1.1, SVG Export Plug-In . SVG Version: 6.00 Build 0)  -->
<svg version="1.1" xmlns="http://www.w3.org/2000/svg" xmlns:xlink="http://www.w3.org/1999/xlink" x="0px" y="0px" width="140px"
	 height="191px" viewBox="0 0 140 191" enable-background="new 0 0 140 191" xml:space="preserve">
<g id="Layer_2">
</g>
<g id="Layer_1">
	<polygon fill="none" stroke="#FFFFFF" stroke-width="3" stroke-linecap="round" stroke-linejoin="round" points="
		54.2506027,148.8160095 62.5276031,101.3920059 62.1075974,100.6990051 66.2516022,100.739006 66.6795959,148.8160095 	"/>
	<polygon fill="none" stroke="#FFFFFF" stroke-width="3" stroke-linecap="round" stroke-linejoin="round" points="
		74.8292007,148.8160095 74.4021988,100.8110046 78.084198,100.8470001 77.6761932,101.5320053 86.7361984,148.8160095 	"/>
	<g>
		<polyline fill="none" stroke="#FFFFFF" stroke-width="3" stroke-linecap="round" stroke-linejoin="round" points="
			119.7763977,148.8161926 94.3473969,148.8161926 82.1273956,93.596199 82.1053925,93.6312027 82.1133957,93.596199 
			73.9283981,93.5192032 73.8373947,83.6082001 108.3843842,70.0281982 110.240387,74.7292023 117.9513855,71.698204 
			106.5613861,42.8451996 98.8503876,45.8762054 100.7063904,50.5772095 64.7203979,64.7221985 66.319397,68.7742004 
			39.7584,79.2142029 40.5263977,81.1592026 24.2473984,87.5582047 22.6143951,85.3102036 17.3554001,87.6262054 
			22.3793945,100.5082016 27.6383972,98.1931992 27.1903992,95.0142059 43.4703979,88.6162033 44.2373962,90.561203 
			66.319397,81.8812027 66.4263992,93.448204 57.9003983,93.3682022 58.043396,93.8412018 57.7443924,93.3672028 
			46.4524002,148.8161926 1.75,148.8161926 		"/>
	</g>
</g>
</svg>
