<?xml version="1.0" encoding="utf-8"?>
<!-- Generator: Adobe Illustrator 18.1.1, SVG Export Plug-In . SVG Version: 6.00 Build 0)  -->
<svg version="1.1" id="Layer_4" xmlns="http://www.w3.org/2000/svg" xmlns:xlink="http://www.w3.org/1999/xlink" x="0px" y="0px"
	 width="140px" height="191px" viewBox="0 0 140 191" enable-background="new 0 0 140 191" xml:space="preserve">
<path fill="none" stroke="#FFFFFF" stroke-width="3" stroke-linecap="round" stroke-linejoin="round" stroke-miterlimit="10" d="
	M47.4821777,111.9711151c-8.2989426-7.8718872-9.1968803-17.6728592-6.1096001-28.3992767
	c3.8471794-0.6378555,12.0982056-9.6924744,11.7686539-14.5103836c-2.05093,0.8427887-3.9734306,1.6327667-6.3561668,2.6119232
	c8.3183975-15.0330048,35.6822281-16.4268227,45.7359619-2.6297073c-4.1395569-0.4285126-7.8398361-5.8112755-12.279129-1.6428604
	c-2.8769913,2.7013626-5.0069275,6.2033234-7.4716034,9.3465729c7.5545197-1.9070892,14.496788-0.4613266,16.6192932,4.1975327
	c-2.2099991,0-5.2373505,0.9155731-6.3171844-0.1518173c-6.0339737-5.9639587-9.7256851-1.1455917-12.9187927,2.8690033
	c-1.4335022,1.8023682-1.7426987,5.5578613-0.9025192,7.8016586c0.7015457,1.8734131,3.9008789,4.0902481,5.8569565,3.9669113
	c6.0308838-0.3804092,7.0876694,2.5521011,6.8429794,7.5726166c-0.1741638,3.5745163,0.2716522,7.1793976,0.4407883,10.7707138
	c0.773941,0.3501968,1.5478058,0.7003937,2.3216705,1.0505905c2.1690674-2.4195786,5.3848495-4.5033493,6.2857971-7.3297882
	c1.7885132-5.6103668,3.6109009-11.9048615,6.0385513-16.5036697c3.9866409-7.5518265,1.119339-11.9716187-1.964035-17.4683762
	c-0.8908005-1.5880127-1.8477707-3.1386566-2.7743225-4.7064362c9.4439697,8.0705261,11.6209946,18.4722824,8.715538,29.9601212
	c-2.9996338,11.8601837-10.7885513,19.6745071-22.6287003,22.6985626
	c-10.7730026,2.7514648-20.6203575,0.5344849-28.8207626-7.4308167c1.2965851,0.3692551,2.593174,0.7384338,4.1412849,1.1793442
	c1.8407135-5.0434113,3.5852928-9.8235703,5.067009-13.8834534c-5.048233-4.476532-9.218586-8.174614-13.3889351-11.8726959
	c-0.6068382,0.0645752-1.2136002,0.1290665-1.8204346,0.193634c0,3.2537079-0.4884758,6.6027222,0.1191139,9.7379913
	C44.512207,103.6750488,46.1762772,107.7881927,47.4821777,111.9711151z"/>
<path fill="none" stroke="#FFFFFF" stroke-width="3" stroke-linecap="round" stroke-linejoin="round" stroke-miterlimit="10" d="
	M89.9435501,57.1844368c11.7115173,6.740181,19.5968018,19.3811226,19.5968018,33.8637733
	c0,21.5634079-17.4805908,39.0439987-39.0439987,39.0439987c-8.9443932,0-17.1863174-3.0076218-23.7696075-8.0666962"/>
<line fill="none" stroke="#FFFFFF" stroke-width="3" stroke-linecap="round" stroke-linejoin="round" stroke-miterlimit="10" x1="64" y1="142.5" x2="78" y2="142.5"/>
<line fill="none" stroke="#FFFFFF" stroke-width="3" stroke-linecap="round" stroke-linejoin="round" stroke-miterlimit="10" x1="67" y1="135.5" x2="75" y2="135.5"/>
<line fill="none" stroke="#FFFFFF" stroke-width="3" stroke-linecap="round" stroke-linejoin="round" stroke-miterlimit="10" x1="2" y1="148.5" x2="120" y2="148.5"/>
</svg>
