<?xml version="1.0" encoding="utf-8"?>
<!-- Generator: Adobe Illustrator 18.1.1, SVG Export Plug-In . SVG Version: 6.00 Build 0)  -->
<svg version="1.1" id="Layer_5" xmlns="http://www.w3.org/2000/svg" xmlns:xlink="http://www.w3.org/1999/xlink" x="0px" y="0px"
	 width="140px" height="191px" viewBox="0 0 140 191" enable-background="new 0 0 140 191" xml:space="preserve">
<path fill="none" stroke="#FFFFFF" stroke-width="3" stroke-linecap="round" stroke-linejoin="round" stroke-miterlimit="10" d="
	M58.5,71v20.6783371c9,3.1874847,15.8824081,11.7949371,15.8824081,21.9189529
	c0,12.8363266-10.031456,23.242218-22.8677864,23.242218c-12.8363876,0-23.0024624-10.4058914-23.0024624-23.242218
	C28.5121593,103.4732742,35.5,94.8658218,44.5,91.6783371V71c0-1.375-0.5-1.5-0.5-1.5h-0.8589401
	c-2.6585617,0-4.833744-2.3414383-4.833744-5c0-2.6585579,2.1751823-5,4.833744-5H59.40839
	c2.6585579,0,4.833744,2.3679199,4.833744,5.0264816c0,2.6585541-2.1751862,5.026474-4.833744,5.026474
	C59.40839,69.5529556,58.5,69.46875,58.5,71z"/>
<path fill="none" stroke="#FFFFFF" stroke-width="3" stroke-linecap="round" stroke-linejoin="round" stroke-miterlimit="10" d="
	M83.5,71v57.904129c0,4.2537231,3.7462845,7.7339935,8,7.7339935s8-3.4802704,8-7.7339935V71c0-1.4375,0.8340073-1.5,0.8340073-1.5
	c2.6585617,0,4.8337479-2.3414383,4.8337479-5c0-2.6585579-2.1751862-5-4.8337479-5H83.0668564
	c-2.6585617,0-4.8337479,2.3679199-4.8337479,5.0264816c0,2.6585541,2.1751862,5.026474,4.8337479,5.026474
	C83.0668564,69.5529556,83.5,69.625,83.5,71z"/>
<line fill="none" stroke="#FFFFFF" stroke-width="3" stroke-linecap="round" stroke-linejoin="round" stroke-miterlimit="10" x1="34" y1="111.5" x2="68" y2="111.5"/>
<line fill="none" stroke="#FFFFFF" stroke-width="3" stroke-linecap="round" stroke-linejoin="round" stroke-miterlimit="10" x1="87" y1="93.5" x2="95" y2="93.5"/>
<path fill="none" stroke="#FFFFFF" stroke-width="3" stroke-linecap="round" stroke-linejoin="round" stroke-miterlimit="10" d="
	M119.8333359,148.1047211c-5.730629,0-10.6177979-2.6047211-13.560051-7.6047211h-0.5933609
	c-2.9422607,5-7.9905472,7.4114685-13.7211838,7.4114685c-5.730629,0-10.7789154-2.4114685-13.7211761-7.4114685H71.979187
	c-5.5803986,5-12.8011551,7.6134949-20.6843147,7.6134949c-7.8708801,0-15.0801926-2.6134949-20.6517448-7.6134949h-0.2341347
	c-5.5804005,5-12.8011589,8-20.6843147,8H2"/>
</svg>
