<?xml version="1.0" encoding="utf-8"?>
<!-- Generator: Adobe Illustrator 18.1.1, SVG Export Plug-In . SVG Version: 6.00 Build 0)  -->
<svg version="1.1" id="_x3F_" xmlns="http://www.w3.org/2000/svg" xmlns:xlink="http://www.w3.org/1999/xlink" x="0px" y="0px"
	 width="140px" height="132.378006px" viewBox="0 0 140 132.378006" enable-background="new 0 0 140 132.378006"
	 xml:space="preserve">
<rect x="-0.0000031" y="99.2500076" fill="#FFFFFF" width="115.5000153" height="8"/>
<g>
	<path fill="#FFFFFF" d="M94.4100494,81.3779984h-8.1071777c-0.1316528,0-0.3868713-0.0287781-0.480011,0.0643005
		c-0.0930786,0.0931396-0.2728577,0.139801-0.2728577,0.2714539v8.5196533c0,0.1316528,0.1797791,0.0827332,0.2728577,0.1758728
		c0.0931396,0.0930786,0.3483582-0.0312805,0.480011-0.0312805h8.1071777c0.1316528,0,0.0804138,0.1243591,0.1735535,0.0312195
		c0.0930786-0.0930786-0.0335999-0.0441589-0.0335999-0.1758118v-8.5196533c0-0.1316528,0.1266785-0.1783142,0.0335999-0.2714539
		C94.4904633,81.3492203,94.5417023,81.3779984,94.4100494,81.3779984z"/>
	<path fill="#FFFFFF" d="M103.9033356,33.2407913c-3.3853149-2.8496685-7.9455566-4.3047466-12.7189331-4.3052349
		c-4.6612549-0.0007324-8.2163086,0.9993896-10.9092407,2.5854492c-4.0440674,2.3798199-6.1017456,6.053709-7.1344604,9.4619122
		c-1.0352783,3.4104004-1.067749,6.5852661-1.0683594,8.057312c0,0.1316528,0.0533447,0.1793823,0.1464233,0.2724609
		s0.2218628,0.0653076,0.3535767,0.0653076h7.3623047c0.1316528,0,0.260437,0.027771,0.3535767-0.0653076
		c0.0930786-0.0931396,0.1464233-0.181366,0.1464233-0.3130188c-0.0029907-1.7979126,0.1112671-5.0149994,1.4866943-7.7377167
		c0.6870728-1.3625488,1.6769409-2.5845261,3.1270752-3.4861984c1.4508667-0.9005127,3.3756714-1.4746056,5.9697876-1.4755821
		c3.9309082,0.0080566,6.2664795,1.4398537,7.6915283,3.2623024c1.421875,1.824646,1.9030762,4.1069794,1.9008789,5.7537689
		c-0.0043335,2.7869263-0.8745728,4.7896347-2.2147827,6.597496c-2.0074463,2.7096558-5.1362915,4.9098625-7.7972412,8.2079582
		c-2.6622925,3.2990112-4.8023071,7.7312965-4.7957153,14.8082008c0,0.1316528,0.0533447,0.2344894,0.1464233,0.3276291
		c0.0931396,0.0930786,0.2219238,0.1204681,0.3535767,0.1204681h7.5285034c0.1316528,0,0.260437-0.0273132,0.3535767-0.1203918
		c0.0930786-0.0931396,0.1464233-0.383812,0.1464233-0.5154648c-0.0067749-3.3054199,0.1037598-5.3641434,1.0083008-7.3641434
		h0.0014648c3.0579224-5,6.4940186-7.8247681,9.2709351-10.5151978c1.3858643-1.3441162,2.6092529-2.6337891,3.4802246-4.4013672
		c0.8717651-1.7671509,1.3773193-3.8638611,1.3762207-6.6925354
		C109.4731598,40.3014297,107.2900543,36.0871658,103.9033356,33.2407913z"/>
</g>
</svg>
