<?xml version="1.0" encoding="utf-8"?>
<!-- Generator: Adobe Illustrator 18.1.1, SVG Export Plug-In . SVG Version: 6.00 Build 0)  -->
<svg version="1.1" id="Layer_1" xmlns="http://www.w3.org/2000/svg" xmlns:xlink="http://www.w3.org/1999/xlink" x="0px" y="0px"
	 width="120px" height="120px" viewBox="0 -13 120 120" enable-background="new 0 -13 120 120" xml:space="preserve">
<g>
	<g>
		
			<circle fill="none" stroke="#FFFFFF" stroke-width="3" stroke-linecap="round" stroke-linejoin="round" stroke-miterlimit="10" cx="50.3029938" cy="36.1277161" r="33.2280769"/>
		
			<ellipse transform="matrix(0.8265503 0.5628628 -0.5628628 0.8265503 29.0599861 -22.0473442)" fill="none" stroke="#FFFFFF" stroke-width="3" stroke-linecap="round" stroke-linejoin="round" stroke-miterlimit="10" cx="50.3029938" cy="36.1277161" rx="20.2062531" ry="33.2280769"/>
		
			<line fill="none" stroke="#FFFFFF" stroke-width="3" stroke-linecap="round" stroke-linejoin="round" stroke-miterlimit="10" x1="68.4778671" y1="8.6034908" x2="31.4481125" y2="62.9807777"/>
		
			<line fill="none" stroke="#FFFFFF" stroke-width="3" stroke-linecap="round" stroke-linejoin="round" stroke-miterlimit="10" x1="77.2755432" y1="54.959919" x2="22.8982563" y2="17.9301662"/>
		
			<line fill="none" stroke="#FFFFFF" stroke-width="3" stroke-linecap="round" stroke-linejoin="round" stroke-miterlimit="10" x1="83.1945648" y1="36.2495728" x2="38.1390953" y2="5.5677767"/>
		
			<line fill="none" stroke="#FFFFFF" stroke-width="3" stroke-linecap="round" stroke-linejoin="round" stroke-miterlimit="10" x1="63.0926971" y1="65.7686691" x2="18.0372295" y2="35.0868759"/>
	</g>
	<path fill="none" stroke="#FFFFFF" stroke-width="3" stroke-linecap="round" stroke-linejoin="round" stroke-miterlimit="10" d="
		M60.6699638-4.634006c4.6251411,1.175946,9.127224,3.1652408,13.300251,6.0069809
		c19.1945114,13.0710468,24.1585617,39.2274513,11.0875168,58.4219627S45.8302841,83.9534988,26.6357708,70.8824539
		c-3.2943707-2.2433929-6.1695538-4.8722458-8.6063118-7.785202"/>
	
		<polyline fill="none" stroke="#FFFFFF" stroke-width="3" stroke-linecap="round" stroke-linejoin="round" stroke-miterlimit="10" points="
		0.5692749,98 33.8527832,98 35.9527855,92.4499969 65.4691315,92.4499969 67.5691299,98 119.2358017,98 	"/>
	
		<rect x="44.9191322" y="83.698082" fill="none" stroke="#FFFFFF" stroke-width="3" stroke-linecap="round" stroke-linejoin="round" stroke-miterlimit="10" width="11.75" height="8.7519207"/>
</g>
</svg>
