<?xml version="1.0" encoding="utf-8"?>
<!-- Generator: Adobe Illustrator 18.1.1, SVG Export Plug-In . SVG Version: 6.00 Build 0)  -->
<svg version="1.1" id="Layer_1" xmlns="http://www.w3.org/2000/svg" xmlns:xlink="http://www.w3.org/1999/xlink" x="0px" y="0px"
	 width="120px" height="120px" viewBox="0 -13 120 120" enable-background="new 0 -13 120 120" xml:space="preserve">
<g>
	<path fill="none" stroke="#FFFFFF" stroke-width="3" stroke-linecap="round" stroke-linejoin="round" stroke-miterlimit="10" d="
		M37.2481842,4.6585922c0.0545311-6.34833,3.3130493-9.6029005,9.6528282-9.6411428
		c6.1674881-0.037231,9.8567886,3.5238876,9.895134,9.5512018c0.051899,8.1759844-4.1672363,13.8124752-10.1437111,13.5513515
		C40.6452026,17.8574638,37.1774673,12.8936605,37.2481842,4.6585922z"/>
	<path fill="none" stroke="#FFFFFF" stroke-width="3" stroke-linecap="round" stroke-linejoin="round" stroke-miterlimit="10" d="
		M83.9734116,16.6235313c0.0344009,6.6792107-3.4224091,11.2577553-8.4496994,11.1914368
		c-5.0271912-0.0663166-8.3741302-4.5222931-8.5827408-11.1857204c-0.1795807-5.7352829,2.8497849-8.403821,8.2206497-8.6941814
		C80.938179,7.6227512,83.9427567,10.6968832,83.9734116,16.6235313z"/>
	<path fill="none" stroke="#FFFFFF" stroke-width="3" stroke-linecap="round" stroke-linejoin="round" stroke-miterlimit="10" d="
		M70.1793365,91.8549423c3.2454605-0.0575027,3.990387,0.198761,7.0127487,0
		c4.9130783-0.3230972,7.168541-1.981308,7.1367874-7.2206802c-0.0373535-6.1300583-1.3393707-13.988205,1.8266907-18.0154495
		c5.4266815-6.9028969,4.2391205-14.0037842,4.8012238-21.1410255c0.9161835-11.6331024-2.366745-15.0258331-14.0793991-15.5263252
		c-2.4724197-0.1056938-4.9733505,0.6232986-7.4599304,0.6147995c-1.3829193-0.0047798-3.2658005-0.2976627-4.0666656-1.211483
		c-7.6480598-8.7274094-20.2593117-11.7822304-30.3966675-6.457819c-2.6425552,1.387991-5.4611092,4.8220711-5.9012108,7.3155766
		c-0.70541,3.9966927-0.1462479,8.2973709-0.3582993,12.5477104c-0.3534203,7.0839005,0.0304279,14.0092239,6.1242485,19.0418472
		c1.1332321,0.9358597,0.9454498,3.4513931,1.0808296,5.251297c0.2731705,3.6352692,0.2508621,7.2925568,0.5152435,10.9287186
		c1.0295448,14.1646576,0.9022293,14.5979919,11.4169731,14.2354126 M1,96.5h50.5v-7.0018082
		c0-11.3003311,0.1558342-18.5518799-0.9940681-24.8245163c-0.6712074-3.6613846-2.210041-7.375946-4.3438416-10.5597687
		c-2.1757584-3.2465553-5.0723343-5.8741798-7.7672348-8.77285c7.8344841,1.4463539,14.5536308,5.4813271,21.1665955,5.4730034
		c6.4464912-0.0080833,12.9386024-4.1506958,19.3823204-6.4780579c-1.6588058,3.8149681-4.30513,6.4475479-6.6875,9.3200188
		c-1.8321228,2.2090454-3.9409485,4.7003899-4.9472351,8.3138771c-1.5769424,5.6627159-1.6659012,12.8701134-1.9172516,27.2057762
		L65.2874374,96.5H118 M59.5497246,48.3612366c-3.5508308-0.0468559-5.9148407-3.1942101-6.0621986-7.900753
		c-0.1268196-4.0509071,2.012886-5.935791,5.8064346-6.1408615c4.0801163-0.2205925,6.2022934,1.9507408,6.2239456,6.1368484
		C65.5422211,45.1741066,63.1005516,48.4080315,59.5497246,48.3612366z"/>
</g>
</svg>
