<?xml version="1.0" encoding="utf-8"?>
<!-- Generator: Adobe Illustrator 18.1.1, SVG Export Plug-In . SVG Version: 6.00 Build 0)  -->
<svg version="1.1" id="Layer_1" xmlns="http://www.w3.org/2000/svg" xmlns:xlink="http://www.w3.org/1999/xlink" x="0px" y="0px"
	 width="120px" height="100px" viewBox="0 -3 120 100" enable-background="new 0 -3 120 100" xml:space="preserve">
<g>
	
		<line fill="none" stroke="#FFFFFF" stroke-width="3" stroke-linecap="round" stroke-linejoin="round" x1="29" y1="1.5" x2="78" y2="1.5"/>
	
		<line fill="none" stroke="#FFFFFF" stroke-width="3" stroke-linecap="round" stroke-linejoin="round" x1="32" y1="18.5" x2="74" y2="18.5"/>
	<path fill="none" stroke="#FFFFFF" stroke-width="3" stroke-linecap="round" stroke-linejoin="round" d="M68.4027481,26.0751629"/>
	<path fill="none" stroke="#FFFFFF" stroke-width="3" stroke-linecap="round" stroke-linejoin="round" d="M38.4027519,26.0751629"/>
	<path fill="none" stroke="#FFFFFF" stroke-width="3" stroke-linecap="round" stroke-linejoin="round" d="M20.6310978,16.6150913
		c2.1311855-0.9197779,4.5777588,0.1262169,5.4645729,2.3362961c1.1085167,2.7625961-0.1524391,5.9341583-2.8164234,7.0838814
		c-3.3299789,1.437151-7.15275-0.197216-8.5383949-3.6504631c-1.7320576-4.3165588,0.6129532-8.5324831,4.4006596-11.0685644
		c2.4050179-1.6102924,5.5203743-1.7230854,5.5203743-1.7230854L41.1992874,9.5h10.7220955l30.4122124,0.0917521
		c0,0,3.1153564,0.0430145,5.5202866,1.6531773c3.7875748,2.5358782,6.13237,6.7864103,4.4000854,11.1030626
		c-1.3858261,3.4533215-5.2086792,5.1052608-8.5385818,3.6682873c-2.6639252-1.14958-3.9247208-4.3123894-2.8160553-7.0750465
		c0.8869247-2.2101269,3.3335495-3.2519112,5.4646912-2.3322487"/>
	<path fill="none" stroke="#FFFFFF" stroke-width="3" stroke-linecap="round" stroke-linejoin="round" d="M48.1904335,91V33.1014442
		c0-3.0161018-2.46772-5.4838219-5.4838219-5.4838219h-0.0000114c-3.0161018,0-5.4838219,2.46772-5.4838219,5.4838219V91H-0.4307251
		"/>
	<path fill="none" stroke="#FFFFFF" stroke-width="3" stroke-linecap="round" stroke-linejoin="round" d="M48.1904335,91V33.1014442
		c0-3.0161018,2.46772-5.4838219,5.4838219-5.4838219h0.0000114c3.0161018,0,5.4838219,2.46772,5.4838219,5.4838219V91"/>
	<path fill="none" stroke="#FFFFFF" stroke-width="3" stroke-linecap="round" stroke-linejoin="round" d="M59.1580887,91V33.1014442
		c0-3.0161018,2.46772-5.4838219,5.4838257-5.4838219h0.0000076c3.0161057,0,5.4838257,2.46772,5.4838257,5.4838219V91h49.1101913"
		/>
</g>
</svg>
