<?xml version="1.0" encoding="utf-8"?>
<!-- Generator: Adobe Illustrator 18.1.1, SVG Export Plug-In . SVG Version: 6.00 Build 0)  -->
<svg version="1.1" id="Layer_1" xmlns="http://www.w3.org/2000/svg" xmlns:xlink="http://www.w3.org/1999/xlink" x="0px" y="0px"
	 width="120px" height="120px" viewBox="0 -13 120 120" enable-background="new 0 -13 120 120" xml:space="preserve">
<g>
	<path fill="none" stroke="#FFFFFF" stroke-width="3" stroke-linecap="round" stroke-linejoin="round" d="M118.4024887,96.0825577
		l-44.1555099-0.0099335L63.5450134,42.5335579l-0.0179977,0.0299988l0.0069962-0.0299988l-6.8929977-0.0550003
		l-0.0650024-11.0390015l29.1080017-11.4659958l1.5569992,3.9529953l6.4970016-2.5599976L84.1820145-2.8944442l-6.4980011,2.5589981
		l1.5569992,3.9530029L48.9210129,15.5605574l1.3430023,3.4079981l-22.3789959,8.8150024l0.6439972,1.6359978l-13.7159996,5.4030037
		l-0.7455482-1.9839363L7.5694513,35.397625l4,10.1833305l6.497014-2.5600014l-0.7844467-1.9283981l13.7169991-5.4029999
		l0.6439972,1.6350021l18.6039944-7.3279991l0.0770035,12.4309998l-7.310997-0.0580025l-9.9591751,53.7030678H0.5692967
		 M67.9132156,96.0726242l-10.8912048,0.005928l-0.3349991-47.7579956l2.7574959,0.026001L67.9132156,96.0726242
		 M50.6938744,96.0726242l-11.3275337,0.0100021l7.7659531-47.8420677l3.2367172,0.0289993L50.6938744,96.0726242"/>
</g>
</svg>
