<?xml version="1.0" encoding="utf-8"?>
<!-- Generator: Adobe Illustrator 18.1.1, SVG Export Plug-In . SVG Version: 6.00 Build 0)  -->
<svg version="1.1" id="Layer_1" xmlns="http://www.w3.org/2000/svg" xmlns:xlink="http://www.w3.org/1999/xlink" x="0px" y="0px"
	 width="120px" height="120px" viewBox="0 -13 120 120" enable-background="new 0 -13 120 120" xml:space="preserve">
<g>
	<path fill="none" stroke="#FFFFFF" stroke-width="3" stroke-linecap="round" stroke-linejoin="round" stroke-miterlimit="10" d="
		M45.5,39.7192726V18.6869545c0-0.6787415,1.1399612-1.480444,1.1399612-1.480444
		c1.4984131-1.449234,3.9586868-3.9843512,5.0084305-5.4189444C53.2429962,9.6083364,49.3313637,6.5,46.6310196,6.5H30.1080322
		c-2.7003403,0-6.6765137,3.2454138-4.909729,5.2875662c1.3022461,1.5052338,3.6928406,3.9800262,5.1250916,5.1437845
		c0,0,1.1766052,1.0768623,1.1766052,1.7556038v21.0323181c-11,3.2375793-16.2449398,11.9803047-16.2449398,22.2634277
		c0,13.0380669,10.3229275,23.6074867,23.3610516,23.6074867c13.038063,0,23.1215439-10.5694199,23.1215439-23.6074867
		C61.7376556,51.6995773,54.5,42.956852,45.5,39.7192726z"/>
	<path fill="none" stroke="#FFFFFF" stroke-width="3" stroke-linecap="round" stroke-linejoin="round" stroke-miterlimit="10" d="
		M86.1998291-4.5H69.6770172c-2.7003403,0-6.9009552,3.4636188-4.9096832,5.2875667
		c1.6015625,1.4669991,3.9823914,3.9178998,5.1250305,5.1437831c0,0,0.6076355,1.0768638,0.6076355,1.7556052V77.530098
		c0,4.3205719,3.1794281,7.8555374,7.5,7.8555374s7.5-3.5349655,7.5-7.8555374V7.686955
		c0-0.6787415,0.9151917-1.6118221,0.9151917-1.6118221c1.4033203-1.2997513,3.6482391-3.7816269,4.8020477-5.2875662
		C92.8595123-1.3559424,88.9001694-4.5,86.1998291-4.5z"/>
	
		<line fill="none" stroke="#FFFFFF" stroke-width="3" stroke-linecap="round" stroke-linejoin="round" stroke-miterlimit="10" x1="16" y1="60.5" x2="61" y2="60.5"/>
	
		<line fill="none" stroke="#FFFFFF" stroke-width="3" stroke-linecap="round" stroke-linejoin="round" stroke-miterlimit="10" x1="71" y1="40.5" x2="85" y2="40.5"/>
	<path fill="none" stroke="#FFFFFF" stroke-width="3" stroke-linecap="round" stroke-linejoin="round" stroke-miterlimit="10" d="
		M120.5692749,96.0751648h-16.5000076c-5.5228424,0-9.9999924-4.47715-9.9999924-9.9999924v-0.0000076h-3.321434
		c-2.4257812,4.0585938-7.3027344,8.0380859-13.1787109,8.0380859c-5.875,0-10.7519531-3.9794922-13.1787109-8.0380859h-5.1552696
		c-5.7919922,5.2548828-13.2109375,8.1386719-20.9814453,8.1386719s-15.189455-2.8837891-20.9814472-8.1386719h-3.2029819v0.0000076
		c0,5.5228424-4.4771481,9.9999924-9.9999905,9.9999924h-4.50001"/>
</g>
</svg>
