<?xml version="1.0" encoding="utf-8"?>
<!-- Generator: Adobe Illustrator 18.1.1, SVG Export Plug-In . SVG Version: 6.00 Build 0)  -->
<svg version="1.1" id="Layer_1" xmlns="http://www.w3.org/2000/svg" xmlns:xlink="http://www.w3.org/1999/xlink" x="0px" y="0px"
	 width="120px" height="120px" viewBox="0 -13 120 120" enable-background="new 0 -13 120 120" xml:space="preserve">
<g>
	<path fill="none" stroke="#FFFFFF" stroke-width="3" stroke-linecap="round" stroke-linejoin="round" d="M76.5691299,114.9999847"
		/>
	<g>
		<path fill="none" stroke="#FFFFFF" stroke-width="3" stroke-linecap="round" stroke-linejoin="round" d="M52.6729469,38.2103271
			c-3.2220306,2.7511292-6.0109444,5.8743858-8.2093506,9.4978638c-4.0521011,6.6788826-5.4344559,15.0396538-2.9755821,22.6309967
			c1.2221603,3.7732468,3.2416534,7.103035,5.730587,10.2098999 M69.335701,48.7201195
			C63.1114349,34.2808914,54.3087616,15.842639,48.080677,1.3945918c-3.9000702,1.8189995-7.7481232,3.6137395-11.5711632,5.3968015
			c0,0.098321-0.0128555,0.1413002,0.0018082,0.1704874c2.6534462,5.2892084,4.3468781,10.6593771,7.017437,15.9399405
			 M63.5948257,81.9673843c0.0525436-0.045723,0.1050873-0.091423,0.1576271-0.1371307
			c-0.033123-0.2253036-0.0700645-0.4501266-0.0987282-0.6759872c-0.1811295-1.4270706,0.3106499-2.4378052,1.4865952-2.9881516
			c3.7325592-1.7468185,7.4699326-3.4834061,11.2046738-5.2255402c2.7319412-1.2743683,4.6322098-2.1267242,7.4013443-3.3181076
			c1.4283295-0.6145248,1.3835068-1.3764801,0.7463684-2.8248291c-0.1537018-0.3493881-1.110878-2.4194489-1.2760315-2.7635727
			c-0.5016022-1.0451851-1.2975922-1.3322182-2.3513947-0.8409462c-6.1343079,2.8597984-12.265419,5.7265511-18.4030228,8.5792351
			c-1.8315659,0.8512955-3.6344986,1.7836151-5.65131,2.1558456c-2.1490097,0.396637-3.5375175-0.2459641-4.5837097-2.1356812
			c-0.1109772-0.2004242-0.2280769-0.3974304-0.3394012-0.597641c-2.3306656-4.1916656-3.0668221-9.9203377-2.0341873-14.622448
			c0.7665672-3.4905891,2.3910522-6.5839615,4.4568748-9.4633942c0.5953217-0.8297844,1.2363625-1.6267891,1.9189529-2.5206909
			c0.6492081,1.2833633,3.5055161,7.0213623,4.1115952,8.2194252 M119.0692749,97.9790115h-26.903923
			c0-0.6421051,0.0034409-1.2301025-0.0005798-1.8180618c-0.0198822-2.8930817-2.2776871-5.170723-5.1671982-5.1714401
			c-8.0947876-0.0019836-12.8227997,0.0101166-20.9175568,0.025322c-0.3403015,0.0006409-0.5278778-0.066391-0.6888885-0.4174423
			c-1.503479-3.2778473-3.0159073-5.0898285-4.5688972-8.3444748c-0.9200859-1.9282684-2.5002785-2.9251404-4.6393471-2.9939423
			c-0.8968735-0.0288467-1.7954712-0.0110474-2.6931877-0.0045929c-2.2655296,0.016243-3.9025803,1.0494919-4.8684731,3.0921783
			c-1.5252304,3.2256165-3.026989,5.0002136-4.5237045,8.2391891c-0.1415634,0.3063202-0.3077354,0.4110565-0.6404572,0.4078293
			c-1.6999207-0.0164261-3.4007416,0.022934-5.099987-0.014534c-3.3430939-0.0737228-6.0799026,2.6198883-5.3115005,6.9999695
			H0.5692749 M36.386261,6.8352919c3.9538422-1.8444395,7.8152771-3.6457694,11.7089653-5.4621592
			c-0.3212929-0.7300608-0.5754662-1.4103485-0.9106979-2.0480363c-0.7099991-1.3505671-2.3277206-1.9594905-3.7304268-1.3375845
			c-2.2482948,0.9968137-4.4782486,2.0382247-6.6865959,3.1206756c-1.3413048,0.6574717-1.9166222,2.2162786-1.386322,3.6112022
			C35.6499596,5.4264598,36.028698,6.0917602,36.386261,6.8352919z"/>
		<path fill="none" stroke="#FFFFFF" stroke-width="3" stroke-linecap="round" stroke-linejoin="round" d="M46.9794579,40.2166138
			c-4.9924202-0.0118942-9.0088463-4.0409889-9.0028534-9.0313072c0.0059929-4.9764252,4.047226-8.9812527,9.0534897-8.97188
			c4.9765816,0.009304,8.9967232,4.0683041,8.9707222,9.0574322C55.9750252,36.2141533,51.9268532,40.2283897,46.9794579,40.2166138
			z"/>
		<g>
			
				<line fill="none" stroke="#FFFFFF" stroke-width="3" stroke-linecap="round" stroke-linejoin="round" x1="64.5355301" y1="57.3132362" x2="66.7607956" y2="62.2097893"/>
			
				<line fill="none" stroke="#FFFFFF" stroke-width="3" stroke-linecap="round" stroke-linejoin="round" x1="70.4113922" y1="54.6429176" x2="71.7465515" y2="57.5808487"/>
		</g>
		<path fill="none" stroke="#FFFFFF" stroke-width="3" stroke-linecap="round" stroke-linejoin="round" d="M73.9821854,52.7098007
			l-13.2515221,6.0222206c-1.0056,0.4569969-2.1912651,0.0122719-2.6482658-0.9933243l-0.4590607-1.0101395
			c-0.4570007-1.0055962-0.0122719-2.1912651,0.9933243-2.648262l13.2515259-6.0222244
			c1.0055923-0.4569969,2.1912613-0.0122719,2.648262,0.9933281l0.4590607,1.0101357
			C75.4325104,51.067131,74.9877853,52.2528,73.9821854,52.7098007z"/>
	</g>
</g>
</svg>
