<?xml version="1.0" encoding="utf-8"?>
<!-- Generator: Adobe Illustrator 18.1.1, SVG Export Plug-In . SVG Version: 6.00 Build 0)  -->
<svg version="1.1" id="Layer_1" xmlns="http://www.w3.org/2000/svg" xmlns:xlink="http://www.w3.org/1999/xlink" x="0px" y="0px"
	 width="120px" height="100px" viewBox="0 0 120 100" enable-background="new 0 0 120 100" xml:space="preserve">
<g>
	
		<line fill="none" stroke="#3DA54F" stroke-width="3" stroke-linecap="round" stroke-linejoin="round" x1="29.9999905" y1="6" x2="78.9999924" y2="6"/>
	
		<line fill="none" stroke="#3DA54F" stroke-width="3" stroke-linecap="round" stroke-linejoin="round" x1="32.9999886" y1="23" x2="74.9999924" y2="23"/>
	<path fill="none" stroke="#3DA54F" stroke-width="3" stroke-linecap="round" stroke-linejoin="round" d="M68.9999924,30.0751629"/>
	<path fill="none" stroke="#3DA54F" stroke-width="3" stroke-linecap="round" stroke-linejoin="round" d="M38.9999886,30.0751629"/>
	<path fill="none" stroke="#3DA54F" stroke-width="3" stroke-linecap="round" stroke-linejoin="round" d="M21.2283363,20.6150913
		c2.1311874-0.9197788,4.5777588,0.1262169,5.4645729,2.3362961c1.1085167,2.7625961-0.1524391,5.9341583-2.8164215,7.0838814
		c-3.3299809,1.437151-7.15275-0.197216-8.5383959-3.6504631c-1.7320576-4.3165588,0.6129522-8.5324821,4.4006605-11.0685644
		c2.4050159-1.6102924,5.5203743-1.4730854,5.5203743-1.4730854L41.7965279,14h10.7220955l30.4122086-0.1582479
		c0,0,3.1153564-0.0819855,5.5202866,1.5281773c3.7875748,2.5358782,6.13237,6.7239103,4.4000854,11.0405626
		c-1.3858185,3.4533215-5.2086792,5.0740108-8.5385818,3.6370373c-2.6639252-1.14958-3.9247131-4.3280144-2.8160553-7.0906715
		c0.8869247-2.2101269,3.3335571-3.2597237,5.4646912-2.3400612"/>
	<path fill="none" stroke="#3DA54F" stroke-width="3" stroke-linecap="round" stroke-linejoin="round" d="M48.787674,95V37.1014442
		c0-3.0161018-2.46772-5.4838219-5.4838219-5.4838219h-0.0000114c-3.0161018,0-5.4838219,2.46772-5.4838219,5.4838219V95H0.1665141"
		/>
	<path fill="none" stroke="#3DA54F" stroke-width="3" stroke-linecap="round" stroke-linejoin="round" d="M48.787674,95V37.1014442
		c0-3.0161018,2.46772-5.4838219,5.4838219-5.4838219h0.0000114c3.0161018,0,5.4838219,2.46772,5.4838219,5.4838219V95"/>
	<path fill="none" stroke="#3DA54F" stroke-width="3" stroke-linecap="round" stroke-linejoin="round" d="M59.7553291,95V37.1014442
		c0-3.0161018,2.46772-5.4838219,5.4838219-5.4838219h0.0000153c3.016098,0,5.4838181,2.46772,5.4838181,5.4838219V95h49.110199"/>
</g>
</svg>
