<?xml version="1.0" encoding="utf-8"?>
<!-- Generator: Adobe Illustrator 18.1.1, SVG Export Plug-In . SVG Version: 6.00 Build 0)  -->
<svg version="1.1" id="Layer_1" xmlns="http://www.w3.org/2000/svg" xmlns:xlink="http://www.w3.org/1999/xlink" x="0px" y="0px"
	 width="120px" height="120px" viewBox="0 0 120 120" enable-background="new 0 0 120 120" xml:space="preserve">
<g>
	<path fill="none" stroke="#FF7524" stroke-width="3" stroke-linecap="round" stroke-linejoin="round" d="M118.9690781,110.2115936
		l-44.1555099-0.0099258L64.1116028,56.6625977l-0.0179977,0.0299988l0.0069962-0.0299988l-6.8929977-0.0550003
		L57.142601,45.5685959l29.1080017-11.4659958l1.5569992,3.9529953l6.4970016-2.5599976l-9.5559998-24.2610016l-6.4980011,2.5589981
		l1.5569992,3.9530029L49.4876022,29.6895981l1.3430023,3.4079971l-22.3789978,8.8150024l0.6439972,1.6359978l-13.7159996,5.4030037
		l-0.7455482-1.9839363l-6.4980173,2.5590019l4,10.1833305l6.497014-2.5600014l-0.7844467-1.9283981l13.7169991-5.4029999
		l0.6439972,1.6350021l18.6039963-7.3279991l0.0770035,12.4309998l-7.310997-0.0580025L33.62043,110.2016678H1.1358845
		 M68.479805,110.2016678l-10.8912048,0.005928l-0.3349991-47.7579994l2.7574921,0.026001L68.479805,110.2016678
		 M51.2604599,110.2016678L39.93293,110.2116623l7.7659531-47.8420639l3.2367172,0.0289993L51.2604599,110.2016678"/>
</g>
</svg>
