<?xml version="1.0" encoding="utf-8"?>
<!-- Generator: Adobe Illustrator 18.1.1, SVG Export Plug-In . SVG Version: 6.00 Build 0)  -->
<svg version="1.1" id="Layer_1" xmlns="http://www.w3.org/2000/svg" xmlns:xlink="http://www.w3.org/1999/xlink" x="0px" y="0px"
	 width="120px" height="120px" viewBox="0 -13 120 120" enable-background="new 0 -13 120 120" xml:space="preserve">
<g>
	<path fill="none" stroke="#FF0000" stroke-width="3" stroke-linecap="round" stroke-linejoin="round" stroke-miterlimit="10" d="
		M45.5,41.7193031V20.686985c0-0.6787415,1.3553352-1.4804459,1.3553352-1.4804459
		c1.4984131-1.4492321,4.0663719-3.7343636,5.1161156-5.1689568C53.5660553,11.8583527,49.7621078,9,47.0617676,9H30.5387783
		c-2.7003403,0-6.6765137,2.99543-4.909729,5.0375824c1.3022461,1.5052338,3.4774666,3.8550339,4.9097176,5.0187912
		c0,0,0.9612331,0.95187,0.9612331,1.6306114v21.0323181c-11,3.2375793-16.0295677,11.9803047-16.0295677,22.2634315
		c0,13.038063,10.4306145,23.6074829,23.4687386,23.6074829c13.038063,0,22.9600143-10.5694199,22.9600143-23.6074829
		C61.8991852,53.6996078,54.5,44.9568825,45.5,41.7193031z"/>
	<path fill="none" stroke="#FF0000" stroke-width="3" stroke-linecap="round" stroke-linejoin="round" stroke-miterlimit="10" d="
		M86.6305771-2H70.1077652c-2.7003403,0-6.900959,3.2136335-4.9096832,5.0375824
		c1.6015625,1.4669991,3.7670135,3.7929077,4.9096527,5.0187912c0,0,0.3922653,0.95187,0.3922653,1.6306114v69.8431396
		c0,4.3205719,3.1794281,7.8555374,7.5,7.8555374s7.5-3.5349655,7.5-7.8555374V9.686985
		c0-0.6787415,1.1305618-1.6118221,1.1305618-1.6118221c1.4033203-1.2997513,3.755928-3.531641,4.9097366-5.0375805
		C93.1825714,0.8940725,89.3309174-2,86.6305771-2z"/>
	
		<line fill="none" stroke="#FF0000" stroke-width="3" stroke-linecap="round" stroke-linejoin="round" stroke-miterlimit="10" x1="16" y1="63" x2="61" y2="63"/>
	
		<line fill="none" stroke="#FF0000" stroke-width="3" stroke-linecap="round" stroke-linejoin="round" stroke-miterlimit="10" x1="71" y1="43" x2="85" y2="43"/>
	<path fill="none" stroke="#FF0000" stroke-width="3" stroke-linecap="round" stroke-linejoin="round" stroke-miterlimit="10" d="
		M121.0000229,98.0751953h-16.5000153c-5.5228424,0-9.9999847-4.47715-9.9999847-9.9999924v-0.0000076h-3.321434
		c-2.4257812,4.0585938-7.3027344,8.0380859-13.1787109,8.0380859c-5.875,0-10.7519531-3.9794922-13.1787109-8.0380859h-5.1552734
		c-5.7919922,5.2548828-13.2109375,8.1386719-20.9814453,8.1386719s-15.1894531-2.8837891-20.9814453-8.1386719H14.50002v0.0000076
		c0,5.5228424-4.4771481,9.9999924-9.9999905,9.9999924h-4.50001"/>
</g>
</svg>
