<?xml version="1.0" encoding="utf-8"?>
<!-- Generator: Adobe Illustrator 18.1.1, SVG Export Plug-In . SVG Version: 6.00 Build 0)  -->
<svg version="1.1" id="Layer_1" xmlns="http://www.w3.org/2000/svg" xmlns:xlink="http://www.w3.org/1999/xlink" x="0px" y="0px"
	 width="86px" height="86px" viewBox="0 0 86 86" enable-background="new 0 0 86 86" xml:space="preserve">
<rect y="77" fill="#3DB64F" width="86" height="8"/>
<rect y="69" fill="#FFFFFF" width="86" height="8"/>
<g>
	
		<path fill="#3DB64F" stroke="#3DB64F" stroke-width="2" stroke-linecap="round" stroke-linejoin="round" stroke-miterlimit="10" d="
		M48.1437531,33H32v37h15.930851c11.7562523,0,15.9448814-9.6769409,15.9448814-19.0327606
		C63.8757324,39.8581963,57.700489,33,48.1437531,33z M47.824398,67H36V36h11.451561
		c7.6695786,0,12.068615,5.6538963,12.068615,15.2875938C59.5201759,61.0452347,55.1481247,67,47.824398,67z"/>
	
		<path fill="#3DB64F" stroke="#3DB64F" stroke-width="2" stroke-linecap="round" stroke-linejoin="round" stroke-miterlimit="10" d="
		M20.7355995,49.5215759c-0.0449486-0.008213-0.0896606-0.0199013-0.1337948-0.0384369
		c-0.0656891-0.0275917-0.1306801-0.0530701-0.1953659-0.0774956c-0.068367-0.0230293-0.1358967-0.0465851-0.2055378-0.0687828
		l-0.0831242-0.0315132c-0.7080479-0.2235947-1.3928051-0.2821083-2.2680588-0.3404617
		c0.7326984-0.0893517,2.0551281-0.5860672,2.0551281-0.5860672l0.3009758-0.103363
		c2.038166-0.6272011,4.3630314-2.8908272,4.3630314-7.2241554c0-5.6537132-4.3116703-8.7928391-10.9849606-8.7928391
		C3.9449246,32.258461,2.1982043,39,2.0810328,44h3.5830469c0.4425879-6,2.8920069-8.5523453,7.6339521-8.5523453
		c5.444478,0,6.8511591,3.1616325,6.8511591,6.1046715C20.1491909,47.8854256,15,47.8815842,10,47.8914337v2.8750992
		c6,0.0383987,11.4612026,0.6581764,11.4612026,7.2108459c0,4.5597916-3.174757,8.0574265-8.2593517,8.0574265
		C6.2602568,66.0348053,5.2175484,62,4.9753342,58H1.1899414c0.2043175,7,4.7330976,11.2230225,11.9218273,11.2230225
		c9.4917793,0,12.9009533-6.0459404,12.9009533-11.6100426C26.012722,53.5623856,24.2999897,50.8328552,20.7355995,49.5215759z"/>
</g>
</svg>
