<?xml version="1.0" encoding="utf-8"?>
<!-- Generator: Adobe Illustrator 18.1.1, SVG Export Plug-In . SVG Version: 6.00 Build 0)  -->
<svg version="1.1" id="Layer_1" xmlns="http://www.w3.org/2000/svg" xmlns:xlink="http://www.w3.org/1999/xlink" x="0px" y="0px"
	 width="86px" height="86px" viewBox="0 0 86 86" enable-background="new 0 0 86 86" xml:space="preserve">
<rect y="78" fill="#80BF40" width="86" height="8"/>
<rect y="70" fill="#FFFFFF" width="86" height="8"/>
<g>
	<path fill="none" stroke="#80BF40" stroke-width="5" stroke-linecap="round" stroke-linejoin="round" stroke-miterlimit="10" d="
		M50.2741852,46.1750717c0-2.0034294-1.6633034-3.6275291-3.7150879-3.6275291h-0.4149857
		c-1.8581123,0-3.397541,1.3319893-3.6716118,3.0714149V42.305706c0-2.0034294-1.6633034-3.6275291-3.7150917-3.6275291h-0.4149818
		c-1.8581123,0-3.397541,1.3319893-3.6716156,3.0714149v-3.4341698c0-2.0034294-1.6632996-3.6275291-3.7150879-3.6275291h-0.4149837
		c-1.8581123,0-3.3975391,1.3319931-3.6716137,3.0714149V22.9588795c0-2.0034294-1.6633015-3.6275291-3.7150879-3.6275291
		h-0.4149857c-2.0517864,0-3.7150879,1.6240997-3.7150879,3.6275291v32.1018143L12.9244595,49.10495
		c-1.4508362-1.4166374-3.8030987-1.4166374-5.2539272,0l-0.2934461,0.2865295c-1.4508286,1.4166336-1.4508286,3.713459,0,5.1301003
		L18.815382,67.1507111c0.5379829,0.6257706,1.3446865,1.0238876,2.2469139,1.0238876h26.2389698
		c1.6197128,0,2.9327621-1.2820969,2.9327621-2.8636398c0-0.0234451-0.0012321-0.0465775-0.0018082-0.0698776l0.0419655-0.0025558
		V46.1750717z"/>
	<path fill="none" stroke="#80BF40" stroke-width="5" stroke-linecap="round" stroke-linejoin="round" stroke-miterlimit="10" d="
		M9.7788095,20.6945362L9.7788095,20.6945362c-1.1928396,0-6.1630363,0-7.2650619,0l0,0H9.7788095z"/>
	<path fill="none" stroke="#80BF40" stroke-width="5" stroke-linecap="round" stroke-linejoin="round" stroke-miterlimit="10" d="
		M23.0229588,2.6745961L23.0229588,2.6745961c0,1.1647265,0,6.0177841,0,7.0938368l0,0V2.6745961z"/>
	<path fill="none" stroke="#80BF40" stroke-width="5" stroke-linecap="round" stroke-linejoin="round" stroke-miterlimit="10" d="
		M14.9314871,13.4904957L14.9314871,13.4904957c-0.8434649-0.8235855-4.3579254-4.2552156-5.1371746-5.0160999l0,0
		L14.9314871,13.4904957z"/>
	<path fill="none" stroke="#80BF40" stroke-width="5" stroke-linecap="round" stroke-linejoin="round" stroke-miterlimit="10" d="
		M43.3483505,20.6945362L43.3483505,20.6945362c-1.1928406,0-6.1630363,0-7.2650642,0l0,0H43.3483505z"/>
	<path fill="none" stroke="#80BF40" stroke-width="5" stroke-linecap="round" stroke-linejoin="round" stroke-miterlimit="10" d="
		M36.0677872,8.4743958L36.0677872,8.4743958c-0.8434677,0.8235865-4.3579254,4.2552156-5.1371765,5.0160999l0,0
		L36.0677872,8.4743958z"/>
</g>
</svg>
