<?xml version="1.0" encoding="utf-8"?>
<!-- Generator: Adobe Illustrator 18.1.1, SVG Export Plug-In . SVG Version: 6.00 Build 0)  -->
<svg version="1.1" id="Layer_1" xmlns="http://www.w3.org/2000/svg" xmlns:xlink="http://www.w3.org/1999/xlink" x="0px" y="0px"
	 width="86px" height="86px" viewBox="-6 -18 86 86" enable-background="new -6 -18 86 86" xml:space="preserve">
<rect x="-6.0000038" y="59" fill="#0071BC" width="86" height="8"/>
<rect x="-6.0000038" y="51" fill="#FFFFFF" width="86" height="8"/>
<g>
	<g>
		<path fill="none" stroke="#0071BC" stroke-width="5" stroke-linecap="round" stroke-linejoin="round" stroke-miterlimit="10" d="
			M7.899087,23.0082779c0,0-7.9862361,7.9865131-8.0117874,8.0126152
			c-3.8506672,3.9338646-3.8249454,10.2443962,0.0771658,14.1465073c3.9090376,3.9090347,10.2351379,3.9279099,14.167511,0.0565453
			c0.0190525-0.0187569,7.9726706-7.972229,7.9916105-7.991169"/>
		<path fill="none" stroke="#0071BC" stroke-width="5" stroke-linecap="round" stroke-linejoin="round" stroke-miterlimit="10" d="
			M20.7543144,18.2667122c-3.5182247-1.2475643-7.5920277-0.477253-10.424181,2.3109627
			c-0.0190525,0.0187569-3.4788065,3.478363-3.4977465,3.497303"/>
		<path fill="none" stroke="#0071BC" stroke-width="5" stroke-linecap="round" stroke-linejoin="round" stroke-miterlimit="10" d="
			M21.0568867,38.2994766c0,0,3.4923725-3.4926491,3.5179234-3.5187492
			c2.7726021-2.8325081,3.5355072-6.8971882,2.2887154-10.4077797"/>
		<path fill="none" stroke="#0071BC" stroke-width="5" stroke-linecap="round" stroke-linejoin="round" stroke-miterlimit="10" d="
			M42.8397865,16.5165787c0,0,7.9862366-7.9865141,8.0117874-8.0126171
			c3.850666-3.9338627,3.8249435-10.2443943-0.0771675-14.1465054c-3.9090347-3.9090376-10.2351379-3.9279118-14.1675072-0.0565457
			c-0.0190544,0.0187573-7.9726734,7.9722276-7.9916134,7.9911675"/>
		<path fill="none" stroke="#0071BC" stroke-width="5" stroke-linecap="round" stroke-linejoin="round" stroke-miterlimit="10" d="
			M29.9845581,21.2581425c3.5182266,1.2475643,7.5920296,0.477253,10.4241829-2.3109627
			c0.0190506-0.0187569,3.4788055-3.4783621,3.4977455-3.4973021"/>
		<path fill="none" stroke="#0071BC" stroke-width="5" stroke-linecap="round" stroke-linejoin="round" stroke-miterlimit="10" d="
			M29.6819859,1.2253777c0,0-3.4923706,3.4926486-3.5179214,3.5187521
			c-2.772604,2.8325057-3.5355091,6.8971858-2.2887173,10.4077778"/>
	</g>
	
		<line fill="none" stroke="#0071BC" stroke-width="5" stroke-linecap="round" stroke-linejoin="round" stroke-miterlimit="10" x1="15.5925598" y1="29.5393047" x2="35.1463127" y2="9.9855509"/>
</g>
</svg>
