<?xml version="1.0" encoding="utf-8"?>
<!-- Generator: Adobe Illustrator 18.1.1, SVG Export Plug-In . SVG Version: 6.00 Build 0)  -->
<svg version="1.1" id="Layer_1" xmlns="http://www.w3.org/2000/svg" xmlns:xlink="http://www.w3.org/1999/xlink" x="0px" y="0px"
	 width="86px" height="86px" viewBox="0 0 86 86" enable-background="new 0 0 86 86" xml:space="preserve">
<rect y="77" fill="#0071BC" width="86" height="8"/>
<rect y="69.4809418" fill="#FFFFFF" width="86" height="8"/>
<path fill="none" stroke="#0071BC" stroke-width="5" stroke-linecap="round" stroke-linejoin="round" stroke-miterlimit="10" d="
	M31.6514988,65.9277649c-9.2756405-4.0464401-19.8949795-4.0465355-29.1707153-0.0001907c0-13.1738739,0-26.3477478,0-39.5215263
	c9.2763157-4.046442,19.8943996-4.0460548,29.1707153-0.0001926C31.6514988,39.5798264,31.6514988,52.7537956,31.6514988,65.9277649
	z"/>
<path fill="none" stroke="#0071BC" stroke-width="5" stroke-linecap="round" stroke-linejoin="round" stroke-miterlimit="10" d="
	M31.6307831,65.9277649c9.2756386-4.0464401,19.8949776-4.0465355,29.1707153-0.0001907c0-13.1738739,0-26.3477478,0-39.5215263
	c-9.2763138-4.046442-19.8944016-4.0460548-29.1707153-0.0001926
	C31.6307831,39.5798264,31.6307831,52.7537956,31.6307831,65.9277649z"/>
</svg>
