<?xml version="1.0" encoding="utf-8"?>
<!-- Generator: Adobe Illustrator 18.1.1, SVG Export Plug-In . SVG Version: 6.00 Build 0)  -->
<svg version="1.1" id="Layer_1" xmlns="http://www.w3.org/2000/svg" xmlns:xlink="http://www.w3.org/1999/xlink" x="0px" y="0px"
	 width="86px" height="86px" viewBox="0 0 86 86" enable-background="new 0 0 86 86" xml:space="preserve">
<rect y="77" fill="#00A99D" width="86" height="8"/>
<rect y="69.4809418" fill="#FFFFFF" width="86" height="8"/>
<path fill="none" stroke="#00A99D" stroke-width="5" stroke-linecap="round" stroke-linejoin="round" stroke-miterlimit="10" d="
	M19.5888615,65.9280624c-2.5314178-2.6092682-13.9725857-2.6094933-16.5040569-0.0002594c0-17.610939,0-35.2218742,0-52.8326836
	C7.168745,8.8858919,15.50492,8.8862362,19.5888615,13.0948629C19.5888615,30.7059288,19.5888615,48.3169937,19.5888615,65.9280624z
	"/>
<path fill="none" stroke="#00A99D" stroke-width="5" stroke-linecap="round" stroke-linejoin="round" stroke-miterlimit="10" d="
	M41.8388634,65.9280624c-2.5314178-2.6092682-13.9725876-2.6094933-16.5040588-0.0002594c0-17.610939,0-35.2218742,0-52.8326836
	c4.0839405-4.2092285,12.4201164-4.2088842,16.5040588-0.0002575
	C41.8388634,30.7059288,41.8388634,48.3169937,41.8388634,65.9280624z"/>
<path fill="none" stroke="#00A99D" stroke-width="5" stroke-linecap="round" stroke-linejoin="round" stroke-miterlimit="10" d="
	M74.2678452,62.7604637c-3.0098114-2.0389748-14.2111893,0.2911263-16.1581497,3.3612709
	c-3.5869751-17.2417717-7.1739464-34.4835434-10.7608948-51.7251892c3.1410027-4.9528065,11.3025055-6.6503706,16.1580429-3.3617783
	C67.0938416,28.2766647,70.6808472,45.5185661,74.2678452,62.7604637z"/>
<path fill="none" stroke="#00A99D" stroke-width="5" stroke-linecap="round" stroke-linejoin="round" stroke-miterlimit="10" d="
	M3.0848038,26.8951206c4.0839415-4.2092285,12.4201164-4.2088833,16.5040569-0.0002575"/>
<path fill="none" stroke="#00A99D" stroke-width="5" stroke-linecap="round" stroke-linejoin="round" stroke-miterlimit="10" d="
	M25.3348045,26.8951206c4.0839405-4.2092285,12.4201164-4.2088833,16.5040588-0.0002575"/>
<path fill="none" stroke="#00A99D" stroke-width="5" stroke-linecap="round" stroke-linejoin="round" stroke-miterlimit="10" d="
	M50.0488014,27.296545c3.1410027-4.9528065,11.3025017-6.6503716,16.1580467-3.3617783"/>
</svg>
