<?xml version="1.0" encoding="utf-8"?>
<!-- Generator: Adobe Illustrator 18.1.1, SVG Export Plug-In . SVG Version: 6.00 Build 0)  -->
<svg version="1.1" id="Layer_1" xmlns="http://www.w3.org/2000/svg" xmlns:xlink="http://www.w3.org/1999/xlink" x="0px" y="0px"
	 width="70px" height="77.5px" viewBox="0 0 70 77.5" enable-background="new 0 0 70 77.5" xml:space="preserve">
<g>
	<path fill="none" stroke="#80BF40" stroke-width="5" stroke-linecap="round" stroke-linejoin="round" stroke-miterlimit="10" d="
		M51.0741425,52.0890198c0-2.0034294-1.6632996-3.627533-3.7150879-3.627533h-0.4149857
		c-1.8581085,0-3.3975372,1.3319931-3.6716118,3.0714149v-3.3132477c0-2.0034294-1.6633034-3.627533-3.7150879-3.627533h-0.4149857
		c-1.8581123,0-3.3975372,1.3319931-3.6716118,3.0714149v-3.434166c0-2.0034294-1.6633034-3.6275291-3.7150898-3.6275291h-0.4149837
		c-1.8581123,0-3.3975391,1.3319893-3.6716137,3.0714149V28.8728256c0-2.0034294-1.6633015-3.6275291-3.7150879-3.6275291H23.539011
		c-2.0517864,0-3.7150879,1.6240997-3.7150879,3.6275291v32.1018181l-6.0995045-5.9557495
		c-1.4508362-1.4166336-3.8030987-1.4166336-5.2539272,0l-0.2934456,0.2865295c-1.450829,1.4166374-1.450829,3.713459,0,5.1301003
		l11.4382954,12.6291275c0.5379829,0.6257782,1.3446865,1.0238876,2.2469139,1.0238876h26.2389717
		c1.6197128,0,2.9327583-1.2820892,2.9327583-2.8636398c0-0.0234375-0.0012321-0.0465698-0.0018044-0.06987l0.0419617-0.0025558
		V52.0890198z"/>
	<path fill="none" stroke="#80BF40" stroke-width="5" stroke-linecap="round" stroke-linejoin="round" stroke-miterlimit="10" d="
		M10.5787697,26.6084824L10.5787697,26.6084824c-1.1928396,0-6.1630368,0-7.2650628,0l0,0H10.5787697z"/>
	<path fill="none" stroke="#80BF40" stroke-width="5" stroke-linecap="round" stroke-linejoin="round" stroke-miterlimit="10" d="
		M23.8229179,8.5885429L23.8229179,8.5885429c0,1.1647263,0,6.0177832,0,7.0938358l0,0V8.5885429z"/>
	<path fill="none" stroke="#80BF40" stroke-width="5" stroke-linecap="round" stroke-linejoin="round" stroke-miterlimit="10" d="
		M15.7314463,19.4044418L15.7314463,19.4044418c-0.8434649-0.8235855-4.3579245-4.2552147-5.1371746-5.016099l0,0
		L15.7314463,19.4044418z"/>
	<path fill="none" stroke="#80BF40" stroke-width="5" stroke-linecap="round" stroke-linejoin="round" stroke-miterlimit="10" d="
		M44.1483078,26.6084824L44.1483078,26.6084824c-1.1928368,0-6.1630363,0-7.2650604,0l0,0H44.1483078z"/>
	<path fill="none" stroke="#80BF40" stroke-width="5" stroke-linecap="round" stroke-linejoin="round" stroke-miterlimit="10" d="
		M36.8677444,14.3883429L36.8677444,14.3883429c-0.8434639,0.8235855-4.3579254,4.2552156-5.1371746,5.016099l0,0
		L36.8677444,14.3883429z"/>
</g>
</svg>
