<?xml version="1.0" encoding="utf-8"?>
<!-- Generator: Adobe Illustrator 18.1.1, SVG Export Plug-In . SVG Version: 6.00 Build 0)  -->
<svg version="1.1" id="Layer_1" xmlns="http://www.w3.org/2000/svg" xmlns:xlink="http://www.w3.org/1999/xlink" x="0px" y="0px"
	 width="70px" height="77.5px" viewBox="0 0 70 77.5" enable-background="new 0 0 70 77.5" xml:space="preserve">
<g>
	<g>
		<path fill="none" stroke="#0071BC" stroke-width="5" stroke-linecap="round" stroke-linejoin="round" stroke-miterlimit="10" d="
			M14.9909439,48.56353c0,0-7.9862356,7.9865112-8.0117874,8.0126152
			c-3.8506675,3.9338646-3.8249457,10.2443962,0.0771656,14.1465034c3.9090371,3.9090424,10.2351379,3.9279175,14.167511,0.0565491
			c0.0190525-0.0187607,7.9726715-7.972229,7.9916115-7.991169"/>
		<path fill="none" stroke="#0071BC" stroke-width="5" stroke-linecap="round" stroke-linejoin="round" stroke-miterlimit="10" d="
			M27.8461723,43.8219643c-3.5182266-1.2475624-7.5920277-0.477253-10.424181,2.3109627
			c-0.0190525,0.0187569-3.4788074,3.478363-3.4977474,3.497303"/>
		<path fill="none" stroke="#0071BC" stroke-width="5" stroke-linecap="round" stroke-linejoin="round" stroke-miterlimit="10" d="
			M28.1487446,63.8547287c0,0,3.4923706-3.4926453,3.5179214-3.5187492
			c2.772604-2.8325081,3.5355091-6.8971863,2.2887173-10.4077797"/>
		<path fill="none" stroke="#0071BC" stroke-width="5" stroke-linecap="round" stroke-linejoin="round" stroke-miterlimit="10" d="
			M49.9316444,42.0718307c0,0,7.9862366-7.986515,8.0117874-8.0126152
			c3.850666-3.9338646,3.8249435-10.2443962-0.0771675-14.1465073c-3.9090385-3.9090366-10.2351379-3.9279118-14.167511-0.0565453
			c-0.0190506,0.0187569-7.9726715,7.9722271-7.9916115,7.9911671"/>
		<path fill="none" stroke="#0071BC" stroke-width="5" stroke-linecap="round" stroke-linejoin="round" stroke-miterlimit="10" d="
			M37.076416,46.8133965c3.5182266,1.2475624,7.5920296,0.477253,10.4241829-2.3109627
			c0.0190506-0.0187569,3.4788055-3.478363,3.4977455-3.497303"/>
		<path fill="none" stroke="#0071BC" stroke-width="5" stroke-linecap="round" stroke-linejoin="round" stroke-miterlimit="10" d="
			M36.7738457,26.7806301c0,0-3.4923744,3.4926491-3.5179253,3.5187511
			c-2.7726021,2.8325081-3.5355072,6.8971863-2.2887154,10.4077797"/>
	</g>
	
		<line fill="none" stroke="#0071BC" stroke-width="5" stroke-linecap="round" stroke-linejoin="round" stroke-miterlimit="10" x1="22.6844177" y1="55.0945549" x2="42.2381706" y2="35.540802"/>
</g>
</svg>
