<?xml version="1.0" encoding="utf-8"?>
<!-- Generator: Adobe Illustrator 18.1.1, SVG Export Plug-In . SVG Version: 6.00 Build 0)  -->
<svg version="1.1" id="Layer_1" xmlns="http://www.w3.org/2000/svg" xmlns:xlink="http://www.w3.org/1999/xlink" x="0px" y="0px"
	 width="79.6666641px" height="77.5px" viewBox="0 0 79.6666641 77.5" enable-background="new 0 0 79.6666641 77.5"
	 xml:space="preserve">
<path fill="none" stroke="#00A99D" stroke-width="5" stroke-linecap="round" stroke-linejoin="round" stroke-miterlimit="10" d="
	M20.4040585,73.0267563c-2.5314178-2.6092606-13.9725857-2.6094894-16.5040588-0.0002518c0-17.610939,0-35.2218781,0-52.8326874
	c4.083941-4.2092295,12.4201164-4.2088852,16.5040588-0.0002594C20.4040585,37.8046265,20.4040585,55.4156914,20.4040585,73.0267563
	z"/>
<path fill="none" stroke="#00A99D" stroke-width="5" stroke-linecap="round" stroke-linejoin="round" stroke-miterlimit="10" d="
	M42.6540565,73.0267563c-2.5314178-2.6092606-13.9725838-2.6094894-16.5040569-0.0002518c0-17.610939,0-35.2218781,0-52.8326874
	c4.0839424-4.2092295,12.4201183-4.2088852,16.5040569-0.0002594
	C42.6540565,37.8046265,42.6540565,55.4156914,42.6540565,73.0267563z"/>
<path fill="none" stroke="#00A99D" stroke-width="5" stroke-linecap="round" stroke-linejoin="round" stroke-miterlimit="10" d="
	M75.0830383,69.8591614c-3.0098038-2.0389786-14.2111855,0.2911301-16.1581459,3.3612747
	c-3.5869751-17.2417755-7.1739464-34.4835472-10.7608948-51.7251968c3.1410027-4.9528046,11.3025017-6.6503696,16.1580467-3.3617764
	C67.9090424,35.3753624,71.4960403,52.6172638,75.0830383,69.8591614z"/>
<path fill="none" stroke="#00A99D" stroke-width="5" stroke-linecap="round" stroke-linejoin="round" stroke-miterlimit="10" d="
	M3.9000001,33.9938202c4.083941-4.2092304,12.4201164-4.2088852,16.5040588-0.0002594"/>
<path fill="none" stroke="#00A99D" stroke-width="5" stroke-linecap="round" stroke-linejoin="round" stroke-miterlimit="10" d="
	M26.1499996,33.9938202c4.0839424-4.2092304,12.4201183-4.2088852,16.5040569-0.0002594"/>
<path fill="none" stroke="#00A99D" stroke-width="5" stroke-linecap="round" stroke-linejoin="round" stroke-miterlimit="10" d="
	M50.8639984,34.3952408c3.1410027-4.9528046,11.3025017-6.6503696,16.1580429-3.3617764"/>
</svg>
