<?xml version="1.0" encoding="utf-8"?>
<!-- Generator: Adobe Illustrator 16.2.0, SVG Export Plug-In . SVG Version: 6.00 Build 0)  -->
<!DOCTYPE svg PUBLIC "-//W3C//DTD SVG 1.1//EN" "http://www.w3.org/Graphics/SVG/1.1/DTD/svg11.dtd">
<svg version="1.1" id="_x3F_" xmlns="http://www.w3.org/2000/svg" xmlns:xlink="http://www.w3.org/1999/xlink" x="0px" y="0px"
	 width="140px" height="132.378px" viewBox="0 0 140 132.378" enable-background="new 0 0 140 132.378" xml:space="preserve">
<rect x="-26.5" y="-30.311" fill="#2EA377" width="189" height="183"/>
<rect y="99.25" fill="#FFFFFF" width="115.5" height="8"/>
<g>
	<path fill="#FFFFFF" d="M94.41,81.378h-8.107c-0.131,0-0.387-0.029-0.48,0.064c-0.092,0.093-0.272,0.139-0.272,0.271v8.52
		c0,0.131,0.181,0.082,0.272,0.176c0.094,0.093,0.35-0.031,0.48-0.031h8.107c0.131,0,0.08,0.124,0.174,0.031
		c0.093-0.094-0.034-0.045-0.034-0.176v-8.52c0-0.133,0.127-0.179,0.034-0.271C94.49,81.349,94.541,81.378,94.41,81.378z"/>
	<path fill="#FFFFFF" d="M103.903,33.241c-3.386-2.85-7.945-4.305-12.719-4.305c-4.661-0.001-8.216,1-10.909,2.585
		c-4.045,2.38-6.102,6.054-7.135,9.462c-1.035,3.411-1.068,6.585-1.068,8.057c0,0.132,0.053,0.18,0.146,0.272
		c0.094,0.093,0.222,0.065,0.354,0.065h7.362c0.132,0,0.261,0.028,0.354-0.065c0.093-0.093,0.146-0.181,0.146-0.313
		c-0.003-1.798,0.111-5.015,1.487-7.738c0.687-1.362,1.676-2.584,3.127-3.486c1.451-0.901,3.375-1.475,5.969-1.476
		c3.932,0.008,6.268,1.44,7.692,3.262c1.422,1.825,1.903,4.107,1.901,5.754c-0.005,2.787-0.875,4.79-2.215,6.597
		c-2.008,2.71-5.137,4.91-7.798,8.208c-2.662,3.299-4.802,7.731-4.796,14.808c0,0.133,0.054,0.235,0.146,0.328
		c0.094,0.094,0.223,0.121,0.354,0.121h7.529c0.131,0,0.26-0.027,0.354-0.121c0.092-0.093,0.146-0.383,0.146-0.516
		c-0.008-3.305,0.104-5.363,1.008-7.363h0.002c3.057-5,6.493-7.825,9.271-10.516c1.386-1.344,2.608-2.634,3.479-4.401
		c0.872-1.767,1.378-3.864,1.377-6.692C109.473,40.301,107.29,36.087,103.903,33.241z"/>
</g>
</svg>
