<?xml version="1.0" encoding="utf-8"?>
<!-- Generator: Adobe Illustrator 18.1.1, SVG Export Plug-In . SVG Version: 6.00 Build 0)  -->
<svg version="1.1" id="Layer_1" xmlns="http://www.w3.org/2000/svg" xmlns:xlink="http://www.w3.org/1999/xlink" x="0px" y="0px"
	 width="120px" height="120px" viewBox="0 0 120 120" enable-background="new 0 0 120 120" xml:space="preserve">
<g>
	<g>
		
			<circle fill="none" stroke="#F9AC47" stroke-width="3" stroke-linecap="round" stroke-linejoin="round" stroke-miterlimit="10" cx="50.7337379" cy="50.1277161" r="33.2280769"/>
		
			<ellipse transform="matrix(0.8265503 0.5628628 -0.5628628 0.8265503 37.0147781 -19.8614998)" fill="none" stroke="#F9AC47" stroke-width="3" stroke-linecap="round" stroke-linejoin="round" stroke-miterlimit="10" cx="50.7337379" cy="50.1277161" rx="20.2062531" ry="33.2280769"/>
		
			<line fill="none" stroke="#F9AC47" stroke-width="3" stroke-linecap="round" stroke-linejoin="round" stroke-miterlimit="10" x1="68.9086075" y1="22.6034908" x2="31.8788586" y2="76.9807816"/>
		
			<line fill="none" stroke="#F9AC47" stroke-width="3" stroke-linecap="round" stroke-linejoin="round" stroke-miterlimit="10" x1="77.7062912" y1="68.9599152" x2="23.3290005" y2="31.9301662"/>
		
			<line fill="none" stroke="#F9AC47" stroke-width="3" stroke-linecap="round" stroke-linejoin="round" stroke-miterlimit="10" x1="83.6253052" y1="50.2495728" x2="38.5698395" y2="19.5677776"/>
		
			<line fill="none" stroke="#F9AC47" stroke-width="3" stroke-linecap="round" stroke-linejoin="round" stroke-miterlimit="10" x1="63.5234413" y1="79.7686691" x2="18.4679756" y2="49.0868759"/>
	</g>
	<path fill="none" stroke="#F9AC47" stroke-width="3" stroke-linecap="round" stroke-linejoin="round" stroke-miterlimit="10" d="
		M61.100708,9.3659945c4.625145,1.1759453,9.1272278,3.1652403,13.3002548,6.0069799
		c19.1945114,13.0710468,24.1585617,39.2274513,11.0875168,58.4219627S46.2610283,97.9534988,27.066515,84.8824539
		c-3.2943707-2.2433929-6.1695518-4.8722458-8.6063099-7.785202"/>
	
		<polyline fill="none" stroke="#F9AC47" stroke-width="3" stroke-linecap="round" stroke-linejoin="round" stroke-miterlimit="10" points="
		1.0000203,112 34.2835312,112 36.3835297,106.4499969 65.8998795,106.4499969 67.9998779,112 119.6665421,112 	"/>
	
		<rect x="45.3498764" y="97.698082" fill="none" stroke="#F9AC47" stroke-width="3" stroke-linecap="round" stroke-linejoin="round" stroke-miterlimit="10" width="11.75" height="8.7519207"/>
</g>
</svg>
