<?xml version="1.0" encoding="utf-8"?>
<!-- Generator: Adobe Illustrator 18.1.1, SVG Export Plug-In . SVG Version: 6.00 Build 0)  -->
<svg version="1.1" id="Layer_1" xmlns="http://www.w3.org/2000/svg" xmlns:xlink="http://www.w3.org/1999/xlink" x="0px" y="0px"
	 width="120px" height="120px" viewBox="0 -13 120 120" enable-background="new 0 -13 120 120" xml:space="preserve">
<g>
	<path fill="none" stroke="#21AAE2" stroke-width="3" stroke-linecap="round" stroke-linejoin="round" stroke-miterlimit="10" d="
		M36.5477753,4.5255871c0.0545311-6.3483295,3.3130493-9.6028996,9.6528282-9.6411428
		c6.1674881-0.037231,9.8567886,3.5238879,9.895134,9.5512018c0.051899,8.1759844-4.1672363,13.8124752-10.1437111,13.5513515
		C39.9447937,17.7244587,36.4770584,12.7606554,36.5477753,4.5255871z"/>
	<path fill="none" stroke="#21AAE2" stroke-width="3" stroke-linecap="round" stroke-linejoin="round" stroke-miterlimit="10" d="
		M83.2730026,16.4905281c0.0344009,6.6792088-3.4224091,11.2577534-8.4496994,11.1914368
		c-5.0271912-0.0663185-8.3741302-4.522295-8.5827408-11.1857224c-0.1795807-5.7352829,2.8497849-8.40382,8.2206497-8.6941814
		C80.2377701,7.4897466,83.2423477,10.5638781,83.2730026,16.4905281z"/>
	<path fill="none" stroke="#21AAE2" stroke-width="3" stroke-linecap="round" stroke-linejoin="round" stroke-miterlimit="10" d="
		M69.4789276,91.7219391c3.2454605-0.0575104,3.990387,0.198761,7.0127487,0
		c4.9130783-0.3230972,7.168541-1.981308,7.1367874-7.2206802c-0.0373535-6.1300659-1.3393707-13.988205,1.8266907-18.0154495
		c5.4266815-6.9028969,4.2391205-14.0037842,4.8012238-21.1410255c0.9161835-11.6331062-2.366745-15.025835-14.0793991-15.5263271
		c-2.4724197-0.1056919-4.9733505,0.6232986-7.4599304,0.6147995c-1.3829193-0.0047798-3.2658005-0.2976627-4.0666656-1.211483
		c-7.6480598-8.7274094-20.2593117-11.7822304-30.3966675-6.457819c-2.6425552,1.387991-5.4611092,4.8220711-5.9012108,7.3155766
		c-0.70541,3.9966908-0.1462479,8.297369-0.3582993,12.5477085c-0.3534203,7.0839005,0.0304279,14.0092278,6.1242485,19.041851
		c1.1332321,0.9358597,0.9454498,3.4513855,1.0808296,5.2512894c0.2731705,3.6352768,0.2508621,7.2925644,0.5152435,10.9287262
		c1.0295448,14.1646576,0.9022293,14.5979919,11.4169731,14.2354126 M1,97.5h50.5v-8.1348114
		c0-11.3003311-0.1943703-18.5518799-1.3442726-24.8245163c-0.6712074-3.6613846-2.3851433-7.375946-4.5189438-10.5597725
		c-2.1757584-3.2465553-5.1598854-5.874176-7.8547859-8.77285c7.8344841,1.4463577,14.5098534,5.4813271,21.122818,5.4730072
		c6.4464874-0.0080833,12.9167175-4.1506958,19.3604355-6.4780617c-1.6588058,3.8149719-4.3160782,6.4475517-6.6984406,9.3200226
		c-1.8321228,2.2090416-3.9464264,4.700386-4.952713,8.3138733c-1.5769424,5.6627121-1.6686325,13.436615-1.9199905,27.7722778
		L64.5870285,97.5H118 M58.8493156,48.2282295c-3.5508308-0.0468559-5.9148407-3.1942101-6.0621986-7.900753
		c-0.1268196-4.0509033,2.012886-5.9357872,5.8064346-6.1408577c4.0801163-0.2205925,6.2022934,1.9507408,6.2239456,6.1368446
		C64.8418121,45.0411034,62.4001427,48.2750282,58.8493156,48.2282295z"/>
</g>
</svg>
