<?xml version="1.0" encoding="utf-8"?>
<!-- Generator: Adobe Illustrator 18.1.1, SVG Export Plug-In . SVG Version: 6.00 Build 0)  -->
<svg version="1.1" id="Layer_1" xmlns="http://www.w3.org/2000/svg" xmlns:xlink="http://www.w3.org/1999/xlink" x="0px" y="0px"
	 width="86px" height="86px" viewBox="0 0 86 86" enable-background="new 0 0 86 86" xml:space="preserve">
<rect x="-0.0000038" y="77" fill="#F1552A" width="86" height="8"/>
<rect x="-0.0000038" y="69" fill="#FFFFFF" width="86" height="8"/>
<g>
	<defs>
		<rect id="SVGID_1_" x="3.0589695" y="6.7303371" width="50.698616" height="59.2880516"/>
	</defs>
	<clipPath id="SVGID_2_">
		<use xlink:href="#SVGID_1_"  overflow="visible"/>
	</clipPath>
	
		<path clip-path="url(#SVGID_2_)" fill="none" stroke="#F1552A" stroke-width="8" stroke-linecap="round" stroke-linejoin="round" stroke-miterlimit="10" d="
		M37.9417381,52.9176941c-2.0332718-1.9137459-3.6098518-3.5997505-2.0848999-8.5208054
		c0.3387985-1.0022583,1.3293724-3.3944397,1.3293724-3.3944397s1.3427734,0.3529549,1.6815681-1.2873993
		c0.3387985-1.6403503,1.6880226-6.2025795-0.6842918-5.2910957c0.3390427-2.7339191,2.3688393-7.1111279-2.8836136-10.7562637
		c-2.2040367-1.5298214-4.2323437-2.1588364-6.0476933-2.2517471c-0.1903706-0.0176201-0.3901749-0.0122814-0.5872459-0.0154839
		c-0.2119656,0.0032024-0.4259148-0.0010681-0.6311798,0.0173531c-1.7093678,0.1078625-3.6371536,0.7419491-5.8096676,2.2498779
		c-5.2527008,3.6451359-3.2261314,8.0223446-2.8870869,10.7562637c-2.3723164-0.9114838-1.0300388,3.6507454-0.6909943,5.2910957
		c0.3387947,1.6403542,1.6679173,1.2873993,1.6679173,1.2873993s0.963522,2.3921814,1.3025646,3.3944397
		c1.5249557,4.9210548-0.1059818,6.6070595-2.1392536,8.5208054c-2.0332718,1.9137421-14.4446211,5.2854881-14.4446211,5.2854881
		L3.2062304,65.493721L24,65.4026794v-0.0875702l3.6901321,0.0875702l23.7124214,0.0910416l0.4613724-7.2905388
		C51.8639259,58.2031822,39.9750099,54.8314362,37.9417381,52.9176941z"/>
	<path clip-path="url(#SVGID_2_)" fill="#FFFFFF" d="M27.9147987,64.9559479L24,64.8556213v0.1020737L3.9551477,65.0440598
		l1.2599134-6.4854355c1.9009643-0.5251884,12.5199242-3.4878654,14.4618912-5.3155479
		c1.9192848-1.8067436,3.9563847-3.6736832,2.3127804-8.9787598c-0.3428535-1.0137329-1.2488232-3.3308334-1.2880821-3.4285431
		l-0.1341209-0.3664093l-0.3745823,0.1012001c-0.0008717,0-0.0725708,0.0174484-0.180748,0.0174484
		c-0.4859276,0-0.7983284-0.3245354-0.930933-0.9640045c-0.0401306-0.1971626-0.0951328-0.4370728-0.1562004-0.7049026
		c-0.2617207-1.1358643-0.805685-3.4983292-0.3406944-4.08284c0.0401306-0.0514717,0.0937309-0.0862961,0.1957359-0.1317329
		c0.1475449-0.0657196,0.3554077-0.0398407,0.507206,0.0186119l0.5583611,0.1488876l-0.0657215-0.503376
		c-0.0549622-0.4466667-0.1544018-0.9360847-0.2599621-1.4586525c-0.5408897-2.6643181-1.2135048-5.9794464,2.9591942-8.8749485
		c1.9114323-1.327795,3.7897167-1.9824047,5.5825043-2.0958157C28.2134876,21.9261532,28.3591805,22,28.5039997,22h0.3227882
		c0.1299877,0,0.2599773-0.0747204,0.3847294-0.0633793c1.9410954,0.0994549,3.897892,0.7927322,5.8337517,2.1362305
		c4.1718292,2.8946304,3.4974632,6.1908607,2.9556999,8.8543034c-0.1064339,0.5234413-0.2050133,1.0042839-0.260849,1.4509544
		l-0.0462379,0.4830933l0.4466705-0.1527786c0.1526718-0.0584526,0.318718-0.0855141,0.5397263-0.0205574
		c0.1180191,0.034687,0.2218819,0.1071129,0.2541618,0.1481171c0.4632454,0.5818939-0.0820084,2.9405708-0.3437271,4.0746956
		c-0.0628128,0.2713165-0.1186485,0.5136986-0.1596489,0.7143478c-0.1326065,0.6385994-0.450161,0.9630585-0.9439392,0.9630585
		c-0.1134148,0-0.1910591-0.0183563-0.1919289-0.0192299l-0.3707733-0.088131l-0.1509247,0.3506966
		c-0.0410004,0.0985832-0.9997711,2.4174232-1.3400078,3.4224281c-1.5406647,4.9709473-0.0593262,6.860569,2.2019424,8.9892311
		c1.9166679,1.8041267,11.9091606,4.7179489,13.9305153,5.2946053l-0.4799843,6.5072441L27.9147987,64.9559479z"/>
	
		<use xlink:href="#SVGID_1_"  overflow="visible" fill="none" stroke="#F1552A" stroke-width="5" stroke-linecap="round" stroke-linejoin="round" stroke-miterlimit="10"/>
</g>
</svg>
