<?xml version="1.0" encoding="utf-8"?>
<!-- Generator: Adobe Illustrator 18.1.1, SVG Export Plug-In . SVG Version: 6.00 Build 0)  -->
<svg version="1.1" id="Layer_1" xmlns="http://www.w3.org/2000/svg" xmlns:xlink="http://www.w3.org/1999/xlink" x="0px" y="0px"
	 width="86px" height="86px" viewBox="0 0 86 86" enable-background="new 0 0 86 86" xml:space="preserve">
<rect x="0.0262527" y="77" fill="#8C0484" width="86" height="8"/>
<rect x="0.0262527" y="69.4809418" fill="none" width="86" height="8"/>
<circle fill="none" stroke="#8C0484" stroke-width="5" stroke-linecap="round" stroke-linejoin="round" stroke-miterlimit="10" cx="31.2333221" cy="38.447773" r="24.7503185"/>
<ellipse transform="matrix(0.9426566 0.3337641 -0.3337641 0.9426566 13.3305817 -4.4365044)" fill="none" stroke="#8C0484" stroke-width="5" stroke-linecap="round" stroke-linejoin="round" stroke-miterlimit="10" cx="19.5765114" cy="36.576725" rx="11.1208229" ry="12.2567177"/>
<ellipse transform="matrix(0.9426566 0.333764 -0.333764 0.9426566 12.9440756 -4.6529217)" fill="#8C0484" cx="20.0130844" cy="35.3437042" rx="3.6088781" ry="5.0708885"/>
<ellipse transform="matrix(-0.9426566 0.333764 -0.333764 -0.9426566 94.459404 56.9245644)" fill="none" stroke="#8C0484" stroke-width="5" stroke-linecap="round" stroke-linejoin="round" stroke-miterlimit="10" cx="42.339653" cy="36.576725" rx="11.1208229" ry="12.2567177"/>
<ellipse transform="matrix(-0.9426566 0.333764 -0.333764 -0.9426566 93.1997528 54.6749382)" fill="#8C0484" cx="41.90308" cy="35.3437042" rx="3.6088781" ry="5.0708885"/>
<polygon fill="none" stroke="#8C0484" stroke-width="3" stroke-linejoin="round" stroke-miterlimit="10" points="
	29.0402565,44.7763329 31.1080036,49.4757614 33.5517082,44.588356 "/>
<polygon fill="none" stroke="#FFFFFF" stroke-width="3" stroke-linejoin="round" stroke-miterlimit="10" points="
	17.0097218,29.7381649 19.0774708,34.4375916 21.5211716,29.5501881 "/>
<polygon fill="none" stroke="#FFFFFF" stroke-width="3" stroke-linejoin="round" stroke-miterlimit="10" points="
	37.5307884,30.4436874 40.8086433,34.3953781 41.8175049,29.0250359 "/>
<path fill="none" stroke="#FFFFFF" stroke-width="11" stroke-linecap="round" stroke-linejoin="round" stroke-miterlimit="10" d="
	M3.0081315,64.5352402c0,0,11.2153072-7.8441467,27.2905827-0.2064285l1.8692169,0.2064285
	c0,0,11.2153091-7.8441467,27.2905846-0.2064285"/>
<path fill="none" stroke="#8C0484" stroke-width="5" stroke-linecap="round" stroke-linejoin="round" stroke-miterlimit="10" d="
	M3.0081315,64.5352402c0,0,11.2153072-7.8441467,27.2905827-0.2064285l1.8692169,0.2064285
	c0,0,11.2153091-7.8441467,27.2905846-0.2064285"/>
<path fill="none" d="M55.7964249,16.6707115c-5.0703735,8.2456055-14.1732788,13.7458496-24.5631123,13.7458496
	S11.7405758,24.916317,6.6702027,16.6707115C1.5279297,22.46661-1.6,30.0901451-1.6,38.4478111
	c0,18.1333008,14.6999512,32.8332558,32.833313,32.8332558s32.833313-14.699955,32.833313-32.8332558
	C64.0666275,30.0901451,60.9386978,22.46661,55.7964249,16.6707115z"/>
<path fill="none" stroke="#8C0484" stroke-width="5" stroke-linecap="round" stroke-linejoin="round" stroke-miterlimit="10" d="
	M6.6702027,16.6707115c5.0703731,8.2456055,14.1732788,13.7458496,24.5631104,13.7458496
	s19.4927387-5.5002441,24.5631123-13.7458496"/>
<path fill="none" stroke="#8C0484" stroke-width="5" stroke-linecap="round" stroke-linejoin="round" stroke-miterlimit="10" d="
	M51.5633316,12.6758394c-3.927002,7.1921377-11.5582886,12.0716543-20.330019,12.0716543
	s-16.4030151-4.8795166-20.3300171-12.0716543"/>
<path fill="none" stroke="#FFFFFF" stroke-width="6.5999999" stroke-linecap="round" stroke-linejoin="round" stroke-miterlimit="10" d="
	M10.9032955,12.6758394c3.927002,7.1921377,11.5582886,12.0716543,20.3300171,12.0716543s16.403017-4.8795166,20.330019-12.0716543"
	/>
</svg>
