<?xml version="1.0" encoding="utf-8"?>
<!-- Generator: Adobe Illustrator 18.1.1, SVG Export Plug-In . SVG Version: 6.00 Build 0)  -->
<svg version="1.1" id="Layer_1" xmlns="http://www.w3.org/2000/svg" xmlns:xlink="http://www.w3.org/1999/xlink" x="0px" y="0px"
	 width="86px" height="86px" viewBox="0 0 86 86" enable-background="new 0 0 86 86" xml:space="preserve">
<path fill="none" stroke="#F1552A" stroke-width="5" stroke-linecap="round" stroke-linejoin="round" stroke-miterlimit="10" d="
	M52.7682495,41.2478142c5.727932,20.1401558-20.8792419,29.0092125-37.3239555,16.2599411
	C2.6701052,47.6041718,1.9559358,26.8355961,15.2595234,13.9015532
	C27.6667843,1.8389391,51.0398674,1.8974253,61.6373062,14.0863256
	C74.7561188,31.4548969,49.8118973,33.6721611,52.7682495,41.2478142z"/>
<g>
	
		<rect x="32.0157356" y="31.239666" fill="#FFFFFF" stroke="#FFFFFF" stroke-width="11" stroke-linecap="round" stroke-linejoin="round" stroke-miterlimit="10" width="11.8254108" height="36.1668396"/>
	
		<path fill="#FFFFFF" stroke="#FFFFFF" stroke-width="11" stroke-linecap="round" stroke-linejoin="round" stroke-miterlimit="10" d="
		M32.0157318,31.2396679"/>
	
		<path fill="#FFFFFF" stroke="#FFFFFF" stroke-width="11" stroke-linecap="round" stroke-linejoin="round" stroke-miterlimit="10" d="
		M43.8411446,31.2396679"/>
	
		<line fill="#FFFFFF" stroke="#FFFFFF" stroke-width="11" stroke-linecap="round" stroke-linejoin="round" stroke-miterlimit="10" x1="32.0157318" y1="38.1441116" x2="43.8411446" y2="38.1441116"/>
</g>
<path fill="#FFFFFF" stroke="#FFFFFF" stroke-width="11" stroke-linecap="round" stroke-linejoin="round" stroke-miterlimit="10" d="
	M32.0157318,31.2396679c0,0-4.2532997-5.9438381-2.6519432-12.3492699
	C30.965147,12.4849672,41.9282875,7.188169,44.3919144,5.5868111s-2.5868073,4.311348-2.8331718,6.4054308
	c-0.2463608,2.0940838,5.5431633,5.050437,5.9127083,8.7458773c0.3695412,3.6954403-0.3624573,8.1922359-3.6303062,10.5015488"/>
<g>
	<g>
		
			<rect x="32.0157356" y="31.239666" fill="none" stroke="#F1552A" stroke-width="5" stroke-linecap="round" stroke-linejoin="round" stroke-miterlimit="10" width="11.8254108" height="33.1668396"/>
		<path fill="none" stroke="#F1552A" stroke-width="5" stroke-linecap="round" stroke-linejoin="round" stroke-miterlimit="10" d="
			M32.0157318,31.2396679"/>
		<path fill="none" stroke="#F1552A" stroke-width="5" stroke-linecap="round" stroke-linejoin="round" stroke-miterlimit="10" d="
			M43.8411446,31.2396679"/>
		
			<line fill="none" stroke="#F1552A" stroke-width="5" stroke-linecap="round" stroke-linejoin="round" stroke-miterlimit="10" x1="32.0157318" y1="37.5713959" x2="43.8411446" y2="37.5713959"/>
	</g>
	<path fill="none" stroke="#F1552A" stroke-width="5" stroke-linecap="round" stroke-linejoin="round" stroke-miterlimit="10" d="
		M32.0157318,31.2396679c0,0-4.2532997-5.9438381-2.6519432-12.3492699
		C30.965147,12.4849672,41.9282875,7.188169,44.3919144,5.5868111s-2.5868073,4.311348-2.8331718,6.4054308
		c-0.2463608,2.0940838,5.5431633,5.050437,5.9127083,8.7458773c0.3695412,3.6954403-0.3624573,8.1922359-3.6303062,10.5015488"/>
</g>
<rect y="77" fill="#F1552A" width="86" height="8"/>
<rect y="69.4809418" fill="#FFFFFF" width="86" height="8"/>
</svg>
