<?xml version="1.0" encoding="utf-8"?>
<!-- Generator: Adobe Illustrator 16.2.0, SVG Export Plug-In . SVG Version: 6.00 Build 0)  -->
<!DOCTYPE svg PUBLIC "-//W3C//DTD SVG 1.1//EN" "http://www.w3.org/Graphics/SVG/1.1/DTD/svg11.dtd">
<svg version="1.1" id="_x3F_" xmlns="http://www.w3.org/2000/svg" xmlns:xlink="http://www.w3.org/1999/xlink" x="0px" y="0px"
	 width="140px" height="132.378px" viewBox="0 0 140 132.378" enable-background="new 0 0 140 132.378" xml:space="preserve">
<rect y="124.378" fill="#2EA377" width="115.5" height="8"/>
<g>
	<path fill="#2EA377" d="M94.41,106.507h-8.107c-0.131,0-0.387-0.029-0.479,0.063s-0.272,0.14-0.272,0.271v8.521
		c0,0.132,0.182,0.082,0.272,0.177c0.094,0.092,0.35-0.031,0.479-0.031h8.107c0.131,0,0.08,0.123,0.174,0.031
		c0.094-0.095-0.034-0.045-0.034-0.177v-8.521c0-0.133,0.128-0.178,0.034-0.271S94.541,106.507,94.41,106.507z"/>
	<path fill="#2EA377" d="M103.902,58.37c-3.385-2.85-7.944-4.305-12.719-4.305c-4.66-0.001-8.216,1-10.908,2.585
		c-4.045,2.38-6.103,6.054-7.135,9.462c-1.035,3.411-1.068,6.585-1.068,8.058c0,0.131,0.053,0.18,0.146,0.271
		c0.095,0.094,0.222,0.064,0.354,0.064h7.361c0.133,0,0.262,0.029,0.354-0.064s0.146-0.182,0.146-0.313
		c-0.002-1.799,0.111-5.016,1.487-7.739c0.687-1.362,1.677-2.584,3.127-3.486c1.451-0.901,3.375-1.475,5.97-1.476
		c3.932,0.008,6.268,1.44,7.691,3.262c1.422,1.825,1.902,4.106,1.9,5.754c-0.004,2.787-0.875,4.79-2.215,6.597
		c-2.008,2.711-5.137,4.91-7.797,8.209c-2.662,3.299-4.803,7.73-4.797,14.807c0,0.134,0.055,0.236,0.146,0.328
		c0.094,0.095,0.223,0.121,0.354,0.121h7.529c0.131,0,0.26-0.026,0.354-0.121c0.092-0.092,0.146-0.383,0.146-0.516
		c-0.008-3.305,0.104-5.363,1.008-7.363h0.002c3.057-5,6.493-7.824,9.271-10.516c1.386-1.344,2.607-2.634,3.479-4.4
		c0.872-1.768,1.378-3.864,1.377-6.692C109.473,65.43,107.29,61.216,103.902,58.37z"/>
</g>
</svg>
