<?xml version="1.0" encoding="utf-8"?>
<!-- Generator: Adobe Illustrator 18.1.1, SVG Export Plug-In . SVG Version: 6.00 Build 0)  -->
<svg version="1.1" id="Layer_1" xmlns="http://www.w3.org/2000/svg" xmlns:xlink="http://www.w3.org/1999/xlink" x="0px" y="0px"
	 width="70px" height="77.5px" viewBox="0 0 70 77.5" enable-background="new 0 0 70 77.5" xml:space="preserve">
<g>
	
		<path fill="#3DB64F" stroke="#3DB64F" stroke-width="2" stroke-linecap="round" stroke-linejoin="round" stroke-miterlimit="10" d="
		M49.1437111,38h-15.810379v37h15.597477c11.7562523,0,15.9448853-9.6769409,15.9448853-19.0327606
		C64.8756943,44.8581963,58.7004471,38,49.1437111,38z M48.8243561,72h-11.491024V41h11.118187
		c7.6695824,0,12.068615,5.6538963,12.068615,15.2875938C60.520134,66.0452347,56.1480865,72,48.8243561,72z"/>
	
		<path fill="#3DB64F" stroke="#3DB64F" stroke-width="2" stroke-linecap="round" stroke-linejoin="round" stroke-miterlimit="10" d="
		M21.7355576,55.5215759c-0.0449467-0.008213-0.0896587-0.0199013-0.1337948-0.0384369
		c-0.0656891-0.0275917-0.1306782-0.0530701-0.195364-0.0774956c-0.068367-0.0230293-0.1358986-0.0465851-0.2055397-0.0687828
		l-0.0831223-0.0315132c-0.7080479-0.2235947-1.392807-0.2821083-2.2680607-0.3404617
		c0.7326984-0.0893517,2.05513-0.5860672,2.05513-0.5860672l0.3009739-0.103363
		c2.038168-0.6272011,4.3630314-2.8908272,4.3630314-7.2241554c0-5.6537132-4.3116703-8.7928391-10.9849586-8.7928391
		C4.9448838,38.258461,3.1981637,45,3.080992,50h3.5830472c0.4425874-6,2.8920064-8.5523453,7.6339526-8.5523453
		c5.444478,0,7.0178442,3.1616325,7.0178442,6.1046715c0,6.3330994-4.982502,6.329258-9.9825029,6.3391075v2.8750992
		c6.000001,0.0383987,11.2945166,0.6581764,11.2945166,7.2108459c0,4.5597916-3.2581005,8.0574265-8.3426962,8.0574265
		C7.3435597,72.0348053,6.2175074,68,5.9752932,64H2.1899006c0.2043176,7,4.733098,11.2230225,11.9218273,11.2230225
		c9.4917803,0,12.9009542-6.0459442,12.9009542-11.6100426C27.012682,59.5623856,25.2999496,56.8328552,21.7355576,55.5215759z"/>
</g>
</svg>
