<?xml version="1.0" encoding="utf-8"?>
<!-- Generator: Adobe Illustrator 18.1.1, SVG Export Plug-In . SVG Version: 6.00 Build 0)  -->
<svg version="1.1" id="Layer_1" xmlns="http://www.w3.org/2000/svg" xmlns:xlink="http://www.w3.org/1999/xlink" x="0px" y="0px"
	 width="70px" height="77.5px" viewBox="0 0 70 77.5" enable-background="new 0 0 70 77.5" xml:space="preserve">
<circle fill="none" stroke="#8C0484" stroke-width="5" stroke-linecap="round" stroke-linejoin="round" stroke-miterlimit="10" cx="31.8736858" cy="44.8333359" r="24.7503185"/>
<ellipse transform="matrix(0.9426566 0.3337641 -0.3337641 0.9426566 15.4985733 -4.2840648)" fill="none" stroke="#8C0484" stroke-width="5" stroke-linecap="round" stroke-linejoin="round" stroke-miterlimit="10" cx="20.2168751" cy="42.9622879" rx="11.1208229" ry="12.2567177"/>
<ellipse transform="matrix(0.9426566 0.333764 -0.333764 0.9426566 15.1120663 -4.5004826)" fill="#8C0484" cx="20.6534481" cy="41.7292633" rx="3.6088781" ry="5.0708885"/>
<ellipse transform="matrix(-0.9426566 0.333764 -0.333764 -0.9426566 97.8346786 69.1157837)" fill="none" stroke="#8C0484" stroke-width="5" stroke-linecap="round" stroke-linejoin="round" stroke-miterlimit="10" cx="42.9800148" cy="42.9622879" rx="11.1208229" ry="12.2567177"/>
<ellipse transform="matrix(-0.9426566 0.333764 -0.333764 -0.9426566 96.5750351 66.8661575)" fill="#8C0484" cx="42.5434456" cy="41.7292633" rx="3.6088781" ry="5.0708885"/>
<polygon fill="none" stroke="#8C0484" stroke-width="3" stroke-linejoin="round" stroke-miterlimit="10" points="
	29.6806202,51.1618958 31.7483692,55.8613243 34.19207,50.9739189 "/>
<polygon fill="none" stroke="#FFFFFF" stroke-width="3" stroke-linejoin="round" stroke-miterlimit="10" points="
	17.6500874,36.1237259 19.7178345,40.8231544 22.1615372,35.9357491 "/>
<polygon fill="none" stroke="#FFFFFF" stroke-width="3" stroke-linejoin="round" stroke-miterlimit="10" points="
	38.171154,36.8292503 41.4490089,40.780941 42.4578705,35.4105988 "/>
<path fill="none" d="M56.4367867,23.0562744C51.3664131,31.3018799,42.2635078,36.802124,31.8736782,36.802124
	S12.3809404,31.3018799,7.3105674,23.0562744C2.1682942,28.8521729-0.9596354,36.475708-0.9596354,44.833374
	c0,18.1333008,14.6999512,32.833252,32.833313,32.833252s32.833313-14.6999512,32.833313-32.833252
	C64.7069931,36.475708,61.5790596,28.8521729,56.4367867,23.0562744z"/>
<path fill="none" stroke="#8C0484" stroke-width="5" stroke-linecap="round" stroke-linejoin="round" stroke-miterlimit="10" d="
	M7.3105674,23.0562744c5.0703731,8.2456055,14.1732788,13.7458496,24.5631104,13.7458496
	s19.4927349-5.5002441,24.5631084-13.7458496"/>
<path fill="none" stroke="#8C0484" stroke-width="5" stroke-linecap="round" stroke-linejoin="round" stroke-miterlimit="10" d="
	M52.2036934,19.0614014c-3.927002,7.1921387-11.5582886,12.0716553-20.3300152,12.0716553
	S15.4706621,26.25354,11.5436602,19.0614014"/>
<path fill="none" stroke="#FFFFFF" stroke-width="6" stroke-linecap="round" stroke-linejoin="round" stroke-miterlimit="10" d="
	M11.5436602,19.0614014c3.927002,7.1921387,11.5582895,12.0716553,20.3300171,12.0716553S48.2766914,26.25354,52.2036934,19.0614014
	"/>
<path fill="#FFFFFF" d="M46.0943794,61.8724976c-4.9033203,0.0002441-8.9004517,1.0592651-11.7058716,2.144043
	c-0.9815674,0.3799438-1.8106689,0.7606201-2.4984112,1.1064453c-5.4558105-2.3644409-10.5639648-3.2557373-14.9555054-3.2504883
	c-3.9870615,0.0001831-7.3616343,0.7030029-9.9968872,1.5479736c3.0935664,3.9829712,6.9569697,7.2385254,11.3453369,9.494812
	c2.9430542,0.1698608,6.3702393,0.9071045,10.2957153,2.7668457c0.5514526,0.2620239,1.1497803,0.4320068,1.7565918,0.4990234
	l1.8692608,0.002594C32.5273018,76.2193909,32.8493843,76,33.1681099,76c0.0066528,0,0.0133057,0,0.0199585,0
	c0.9683838,0,1.9034424-0.1886597,2.7174683-0.7442017l0.0028687,0.1061096
	c0.0054932-0.0048218,1.0189819-0.6204376,2.7901611-1.265274c1.7747803-0.6470337,4.2923584-1.2496414,7.395813-1.2495804
	c0.3336182,0.0006104,0.6785278,0.0255356,1.026001,0.0409164c4.1862183-2.1577759,7.8909302-5.2217865,10.9070435-8.9626923
	C53.7079659,62.4384613,49.6656075,61.8682251,46.0943794,61.8724976z"/>
<path fill="none" stroke="#8C0484" stroke-width="5" stroke-linecap="round" stroke-linejoin="round" stroke-miterlimit="10" d="
	M3.6484962,70.9207993c0,0,11.2153072-7.8441467,27.2905807-0.2064209l1.8692188,0.2064209
	c0,0,11.2153091-7.8441467,27.2905807-0.2064209"/>
</svg>
