<?xml version="1.0" encoding="utf-8"?>
<!-- Generator: Adobe Illustrator 18.1.1, SVG Export Plug-In . SVG Version: 6.00 Build 0)  -->
<svg version="1.1" id="Layer_1" xmlns="http://www.w3.org/2000/svg" xmlns:xlink="http://www.w3.org/1999/xlink" x="0px" y="0px"
	 width="64px" height="64px" viewBox="0 0 64 64" enable-background="new 0 0 64 64" xml:space="preserve">
<path fill="#DF5E45" d="M55.0293846,12.1420488c4.7324371,5.3917341,7.6015625,12.4594088,7.6015625,20.1972046
	c0,16.9170036-13.7139435,30.6309471-30.6309471,30.6309471S1.3690523,49.2562561,1.3690523,32.3392525
	S15.0829954,1.7083049,32,1.7083049c7.0233498,0,13.4946136,2.3637638,18.6616478,6.3391461"/>
<path fill="#FFFFFF" d="M50.6733551,8.0658216C34.2251129,21.5252953,27.0990734,36.3650169,27.0990734,36.3650169
	c-5.9511719-15.3154297-15.2279663-4.9009399-15.2279663-4.9009399
	c6.1261597,6.0386963,11.7272339,23.8046265,11.7272339,23.8046265l6.5637817-7.7014771
	c4.7406635-12.7320557,18.77141-28.7980175,24.8690662-35.4229546C53.7206421,10.653121,52.3245392,9.2567396,50.6733551,8.0658216z
	"/>
</svg>
