<?xml version="1.0" encoding="utf-8"?>
<!-- Generator: Adobe Illustrator 18.1.1, SVG Export Plug-In . SVG Version: 6.00 Build 0)  -->
<svg version="1.1" id="Layer_1" xmlns="http://www.w3.org/2000/svg" xmlns:xlink="http://www.w3.org/1999/xlink" x="0px" y="0px"
	 width="64px" height="64px" viewBox="0 0 64 64" enable-background="new 0 0 64 64" xml:space="preserve">
<circle fill="#309A42" cx="32.5722809" cy="32.6249237" r="30.6309471"/>
<ellipse fill="#FFFFFF" cx="32.5722809" cy="49.4281845" rx="7.6139789" ry="6.3887401"/>
<path fill="#FFFFFF" d="M44.8052063,12.855793c2.2009888,1.666687,4.1325073,5.7104492,4.1785889,9.4421387v0.7001343
	c0,6.2136841-4.4633789,11.3771973-10.3269653,12.5148926v3.6757202H26.316925v-3.6757202v-4.9009399v-2.8880615
	c0,0,5.6885986-0.0875244,5.9511108-0.0875244c2.0129395,0,3.5881958-1.6627808,3.5881958-3.7631836
	c0-2.1004639-1.5752563-3.7632446-3.5881958-3.7632446c-1.925354,0-3.5006714,1.5753174-3.5881958,3.5006714h-2.2753906h-2.6255493
	h-7.6139526c0-0.2625732,0-0.437561,0-0.7001343v-0.7001343c0-3.710022,1.5913086-7.0264282,4.1031494-9.3546143
	c0,0,3.9880981-3.49998,11.8630981-3.49998S42.6042175,11.189106,44.8052063,12.855793z"/>
</svg>
