<?xml version="1.0" encoding="utf-8"?>
<!-- Generator: Adobe Illustrator 18.1.1, SVG Export Plug-In . SVG Version: 6.00 Build 0)  -->
<svg version="1.1" id="Layer_1" xmlns="http://www.w3.org/2000/svg" xmlns:xlink="http://www.w3.org/1999/xlink" x="0px" y="0px"
	 width="64px" height="64px" viewBox="0 0 64 64" enable-background="new 0 0 64 64" xml:space="preserve">
<g>
	<path fill="#CE383B" d="M32.32724,1.158875c17.076313,0,30.8759956,13.7366676,30.8759956,30.7499714
		S49.403553,62.9108658,32.32724,62.9108658S1.4512436,48.4180527,1.4512436,32.1608963
		C1.4512436,15.2106028,15.2509232,1.158875,32.32724,1.158875z"/>
	<path fill="#FFFFFF" d="M45.748848,18.1091652c-0.3780746-0.3780727-0.8821716-0.6301212-1.3862686-0.6301212
		c-0.2520485,0-0.5041008,0.0630112-0.8191605,0.1890354l-16.2571583,7.56147
		c-0.4410858,0.1890354-0.8191586,0.504097-0.9451847,0.9451828l-7.5614681,16.1941452
		c-0.3780727,0.8191605-0.1890354,1.6383171,0.3780746,2.2054291c0.3780727,0.3780708,0.8821697,0.6301231,1.3862686,0.6301231
		c0.2520485,0,0.5040989-0.0630112,0.8191605-0.1890411l16.3201656-7.5614662
		c0.4410896-0.1890373,0.8191605-0.504097,0.9451866-0.9451828L46.18993,20.3145924
		C46.5049934,19.4954357,46.3789673,18.6132641,45.748848,18.1091652z M20.6069622,43.1250229l7.498457-16.068121
		l8.7586975,8.5066509L20.6069622,43.1250229z"/>
	<g>
		<path fill="#FFFFFF" d="M28.7985554,15.903738V7.3970861h1.7013302l3.5286827,5.7341137V7.3970861h1.5753059v8.5066519h-1.7643394
			l-3.4656734-5.5450773v5.5450773H28.7985554z"/>
	</g>
	<g>
		<path fill="#FFFFFF" d="M28.6095161,53.3330078l1.7013302-0.1890373c0.0630112,0.504097,0.2520504,0.9451828,0.6301231,1.2602425
			c0.3780727,0.2520523,0.6931324,0.3780746,1.2602444,0.3780746c0.504097,0,0.9451828-0.0630112,1.2602463-0.3780746
			c0.2520485-0.2520485,0.4410858-0.5041008,0.4410858-0.8191605c0-0.1890373-0.0630112-0.3780708-0.1890373-0.5041008
			c-0.0630112-0.1890373-0.3780708-0.2520485-0.6301231-0.3780708c-0.1890373-0.0630112-0.6931343-0.1890373-1.3862686-0.3780746
			c-0.8821735-0.2520485-1.5753059-0.504097-1.9533787-0.8821716c-0.504097-0.441082-0.8191586-1.0712051-0.8191586-1.6383171
			c0-0.441082,0.0630112-0.8821716,0.3780727-1.2602425c0.2520504-0.3780746,0.6301212-0.6931343,1.071209-0.8821716
			c0.4410858-0.1890411,1.071207-0.2520523,1.7013302-0.2520523c1.071209,0,1.8273544,0.2520523,2.3944626,0.6931343
			c0.567112,0.441082,0.8191605,1.0712051,0.8821754,1.8273544l-1.7643433,0.0630112
			c-0.0630112-0.441082-0.2520485-0.8191605-0.4410858-0.9451828c-0.1890373-0.1890373-0.6301231-0.2520485-1.071209-0.2520485
			c-0.504097,0-0.8821716,0.0630112-1.1342201,0.3780708c-0.1890354,0.0630112-0.2520504,0.3780746-0.2520504,0.5041008
			c0,0.1890373,0.0630112,0.3780708,0.2520504,0.5041008c0.1890373,0.1890373,0.6931343,0.3780708,1.5753059,0.504097
			c0.8821716,0.1890411,1.5122948,0.4410858,1.8273544,0.6301231c0.3780746,0.1890411,0.6931343,0.5041008,0.9451866,0.8821716
			c0.2520485,0.3780746,0.3780708,0.8191643,0.3780708,1.3232574s-0.1890373,0.9451828-0.4410858,1.3862686
			c-0.2520485,0.441082-0.6301231,0.6931305-1.1342201,0.9451828c-0.504097,0.1890373-1.1342201,0.3780708-1.8273544,0.3780708
			c-1.071209,0-1.9533787-0.2520485-2.4574795-0.6931343C29.1766262,55.0343361,28.7985554,54.2781906,28.6095161,53.3330078z"/>
	</g>
	<g>
		<path fill="#FFFFFF" d="M47.9542732,27.9390755h8.569664v6.3012238h-1.3862648v-4.5368824h-1.8273582v4.2848301h-1.5122948
			v-4.2848301h-2.2684402v4.7259159h-1.3862648v-6.4902573H47.9542732z"/>
	</g>
	<g>
		<path fill="#FFFFFF" d="M16.7002048,34.6183701l-8.569664,2.0163918v-1.7643394l5.9231501-1.3232574L8.1305408,31.971859
			v-2.0163918l5.9861622-1.5122948l-5.9861622-1.2602444v-1.7643433l8.569664,2.2054291v1.8273563l-6.3642359,1.6383171
			l6.3642359,1.6383171V34.6183701z"/>
	</g>
</g>
</svg>
