<?xml version="1.0" encoding="utf-8"?>
<!-- Generator: Adobe Illustrator 18.1.1, SVG Export Plug-In . SVG Version: 6.00 Build 0)  -->
<svg version="1.1" id="Layer_1" xmlns="http://www.w3.org/2000/svg" xmlns:xlink="http://www.w3.org/1999/xlink" x="0px" y="0px"
	 width="64px" height="64px" viewBox="0 0 64 64" enable-background="new 0 0 64 64" xml:space="preserve">
<g>
	<circle fill="#358CB9" cx="32" cy="32" r="30.6309471"/>
	<g>
		<path fill="#FFFFFF" d="M45.7401695,18.6099014c-0.2625504-0.2625504-0.7001343-0.4375858-1.137722-0.4375858H19.4850712
			c-0.9626884,0-1.6628227,0.787653-1.6628227,1.6628227v18.99119c0,0.2625504,0.0875168,0.5251007,0.1750336,0.7876549
			L45.7401695,18.6099014z"/>
		<path fill="#FFFFFF" d="M51.0787048,15.8093567c-0.350071-0.787653-0.9626846-1.4877892-1.6628265-2.0128918
			c-0.7001343-0.5251017-1.6628227-0.787652-2.5379944-0.787652H17.2096291c-0.6126194,0-1.2252378,0.0875168-1.8378582,0.3500671
			c-0.787652,0.3500681-1.4877882,0.9626875-2.0128908,1.6628237c-0.5251017,0.7001352-0.787652,1.6628227-0.787652,2.5379925
			v22.6669006c0,0.6126213,0.0875168,1.2252426,0.3500671,1.8378563c0.3500681,0.7876549,0.9626875,1.4877892,1.6628237,2.0128899
			c0.7001352,0.5251007,1.6628218,0.7876549,2.5379915,0.7876549h8.6641827v2.0128899h-7.7014961
			c-1.1377201,0-2.1004076,0.9626884-2.1004076,2.1004105v1.4002686c0,1.137722,0.9626875,2.1004105,2.1004076,2.1004105h27.8304024
			c1.137722,0,2.1004105-0.9626846,2.1004105-2.1004105v-1.4002686c0-1.137722-0.9626846-2.1004105-2.1004105-2.1004105H38.213707
			v-2.0128899h8.6641808c0.6126213,0,1.2252388-0.087513,1.8378563-0.3500671
			c0.7876549-0.350071,1.4877892-0.9626884,2.0128899-1.6628265c0.5251007-0.7001343,0.7876549-1.6628227,0.7876549-2.5379944
			V17.647213C51.428772,17.0345936,51.3412552,16.4219761,51.0787048,15.8093567z M48.1906433,40.3141136
			c0,0.1750336,0,0.350071-0.0875168,0.5251007c-0.087513,0.2625504-0.2625504,0.4375839-0.5251007,0.6126213
			c-0.2625504,0.1750336-0.4375839,0.2625504-0.7876511,0.2625504H17.2096291c-0.1750355,0-0.350069,0-0.5251026-0.0875168
			c-0.2625504-0.0875168-0.4375858-0.2625504-0.6126194-0.5251007c-0.1750355-0.2625504-0.2625504-0.4375839-0.2625504-0.7876549
			V17.647213c0-0.1750336,0-0.3500671,0.0875168-0.5251026c0.0875177-0.2625504,0.2625504-0.4375839,0.5251026-0.6126194
			c0.2625504-0.1750336,0.4375839-0.2625504,0.787653-0.2625504h29.6682587c0.1750374,0,0.350071,0,0.5251007,0.0875187
			c0.2625504,0.0875168,0.4375877,0.2625504,0.6126213,0.5251007s0.2625504,0.4375858,0.2625504,0.787653v22.6669006H48.1906433z"/>
		<rect x="44.1648636" y="30.2496605" fill="#FFFFFF" width="1.9253745" height="9.4518347"/>
		<rect x="41.1892815" y="31.9999981" fill="#FFFFFF" width="1.9253745" height="7.7014947"/>
		<rect x="38.2137032" y="34.1004105" fill="#FFFFFF" width="1.9253745" height="5.601089"/>
		<rect x="35.2381287" y="34.9755783" fill="#FFFFFF" width="1.9253745" height="4.7259188"/>
		<rect x="32.2625504" y="36.3758507" fill="#FFFFFF" width="1.9253745" height="3.325645"/>
	</g>
</g>
</svg>
