<?xml version="1.0" encoding="utf-8"?>
<!-- Generator: Adobe Illustrator 18.1.1, SVG Export Plug-In . SVG Version: 6.00 Build 0)  -->
<svg version="1.1" id="Layer_1" xmlns="http://www.w3.org/2000/svg" xmlns:xlink="http://www.w3.org/1999/xlink" x="0px" y="0px"
	 width="64px" height="64px" viewBox="0 0 64 64" enable-background="new 0 0 64 64" xml:space="preserve">
<circle fill="#6F85B7" cx="32" cy="32" r="30.6309471"/>
<g>
	<path fill="#FFFFFF" d="M50.4665146,21.3988209l-7.5338745-5.5091553l-7.0474854-5.1534424
		c-0.6606445-0.4830933-1.590271-0.0112915-1.590271,0.8071899v6.7875977H15.6537094c-0.5523071,0-1,0.4476929-1,1v5.75
		c0,0.5523071,0.4476929,1,1,1h18.6411743v6.7875996c0,0.8184814,0.9296265,1.2903442,1.590271,0.8071899l7.0474854-5.1534443
		l7.5338745-5.5091553C51.0127792,22.6137257,51.0127792,21.798296,50.4665146,21.3988209z"/>
	<path fill="#FFFFFF" d="M48.3462753,37.9189644H29.705101v-6.7875996c0-0.8184814-0.9295654-1.2903442-1.590271-0.8071899
		l-7.0474854,5.1534443l-7.5338135,5.5091553c-0.5463257,0.3994751-0.5463257,1.2149048,0,1.6143799l7.5338135,5.5091553
		L28.11483,53.263752c0.6607056,0.4831543,1.590271,0.0112915,1.590271-0.8071899v-6.7875977h18.6411743
		c0.5523071,0,1-0.4476929,1-1v-5.75C49.3462753,38.3666573,48.8985825,37.9189644,48.3462753,37.9189644z"/>
</g>
</svg>
