<?xml version="1.0" encoding="utf-8"?>
<!-- Generator: Adobe Illustrator 18.1.1, SVG Export Plug-In . SVG Version: 6.00 Build 0)  -->
<svg version="1.1" id="Layer_1" xmlns="http://www.w3.org/2000/svg" xmlns:xlink="http://www.w3.org/1999/xlink" x="0px" y="0px"
	 width="64px" height="64px" viewBox="0 0 64 64" enable-background="new 0 0 64 64" xml:space="preserve">
<g>
	<circle fill="#F15A22" cx="32" cy="32" r="30.6309471"/>
	<g>
		<g>
			<path fill="#FCFAFA" d="M17.647213,18.8724518l-6.7388077-1.2252388c0.787652-2.713027,2.1004086-4.7259169,3.9382658-6.0386715
				s4.6384001-1.925374,8.2265959-1.925374c3.3256454,0,5.776123,0.3500681,7.4389477,1.1377211
				c1.6628227,0.787653,2.8005447,1.7503395,3.4131622,2.9755774c0.7001381,1.2252378,0.9626884,3.4131632,0.9626884,6.6512918
				l-0.0875168,8.6641827c0,2.4504738-0.0875168,4.288332,0.1750336,5.5135708
				c0.2625504,1.1377182,0.8751717,2.362957,1.4877892,3.7632294h-7.351429
				c-0.1750336-0.5251007-0.4375839-1.2252388-0.7001343-2.1879272c-0.0875168-0.4375839-0.1750355-0.7001343-0.2625504-0.8751678
				c-1.2252369,1.2252388-2.6255093,2.1879234-4.0257816,2.8005447c-1.4877892,0.6126175-2.9755783,0.9626846-4.6384029,0.9626846
				c-2.8880596,0-5.1635017-0.7876549-6.8263245-2.3629608c-1.6628227-1.5753021-2.5379934-3.588192-2.5379934-5.9511528
				c0-1.5753059,0.3500671-2.9755783,1.1377211-4.2008152c0.787652-1.2252388,1.8378563-2.1879253,3.1506109-2.8880596
				c1.4002724-0.7001362,3.3256445-1.2252388,5.863637-1.7503414c3.5006809-0.6126194,5.8636398-1.2252369,7.1763954-1.8378563
				v-0.7001362c0-1.4002724-0.350069-2.4504738-1.0502052-3.0630932c-0.7001343-0.6126204-2.0128899-0.8751707-4.0257816-0.8751707
				c-1.3127556,0-2.3629589,0.2625504-3.0630951,0.787652C18.6974163,16.5970097,18.0847988,17.5596962,17.647213,18.8724518z
				 M27.5366325,24.9111233c-0.9626865,0.3500671-2.4504738,0.7001343-4.5508823,1.1377201
				s-3.4131622,0.8751698-4.0257816,1.3127556c-0.9626884,0.7001343-1.4877892,1.5753059-1.4877892,2.6255074
				c0,1.0502052,0.3500671,1.925375,1.1377201,2.7130241c0.787653,0.7876549,1.7503395,1.137722,2.9755764,1.137722
				c1.3127556,0,2.6255112-0.4375839,3.8507481-1.3127556c0.8751698-0.7001343,1.4877892-1.4877892,1.7503395-2.4504757
				c0.1750355-0.6126194,0.2625504-1.8378563,0.2625504-3.5881958v-1.5753021H27.5366325z"/>
		</g>
		<g>
			<path fill="#FCFAFA" d="M52.0413933,25.6112595V52.566494h-7.0888748V41.3643188h-0.7001343
				c-1.5753059,0-2.6255112,0.1750336-3.413166,0.6126213c-0.7001343,0.4375839-1.4877892,1.2252388-2.3629608,2.5379944
				l-0.3500671,0.4375801l-4.7259178,7.5264626h-8.3141155l5.075985-7.7890129
				c1.4877892-2.1879234,2.8005428-3.500679,3.9382648-3.85075c-2.0128899-0.0875168-3.5881958-0.8751678-4.8134346-2.2754402
				c-1.2252388-1.4002686-1.8378582-3.1506119-1.8378582-5.3385353c0-1.7503395,0.4375858-3.2381287,1.2252369-4.4633656
				c0.7876549-1.2252369,1.925375-2.1004066,3.2381306-2.5379925c1.4002705-0.4375839,3.4131641-0.7001343,6.0386753-0.7001343
				h14.0902367V25.6112595z M45.0400314,30.1621437h-5.1635017c-1.8378563,0-3.1506119,0.2625504-3.9382668,0.7876549
				c-0.7876511,0.5251007-1.1377182,1.4002724-1.1377182,2.6255112s0.4375839,2.1004066,1.3127556,2.6255074
				c0.8751678,0.5251007,2.2754402,0.7876549,4.2008133,0.7876549h4.638401v-6.8263283H45.0400314z"/>
		</g>
	</g>
</g>
</svg>
