<?xml version="1.0" encoding="utf-8"?>
<!-- Generator: Adobe Illustrator 18.1.1, SVG Export Plug-In . SVG Version: 6.00 Build 0)  -->
<svg version="1.1" id="Layer_1" xmlns="http://www.w3.org/2000/svg" xmlns:xlink="http://www.w3.org/1999/xlink" x="0px" y="0px"
	 width="102px" height="102px" viewBox="0 0 102 102" enable-background="new 0 0 102 102" xml:space="preserve">
<g id="Layer_2_2_">
	<path fill="#F09B36" d="M16.9999695,1h85v100h-85c-8.2842703,0-14.999999-6.7157288-14.999999-15V16
		C1.9999703,7.7157288,8.7156992,1,16.9999695,1z"/>
</g>
<g>
	<g>
		<path fill="#FFFFFF" d="M31.6594238,52.3493385c1.0591049-0.1149101,1.9607277-0.1753349,2.8597679-0.1753349
			c0.8991814,0,1.8008728,0.0603561,2.8601227,0.1753349c-1.1009674-3.1263542-1.8127747-5.1013451-2.8660736-7.9603958
			C33.4644547,47.2482071,32.755806,49.2233429,31.6594238,52.3493385z"/>
		<path fill="#FFFFFF" d="M49.0431824,28.9228535c-8.4524536-2.9193726-19.6314087-2.9194336-28.0838623,0
			c-0.7918701,0.2734985-1.3069458,1.0400391-1.3069458,1.8778076c0.0002441,14.1581402,0.0002441,28.3162212,0.000061,42.4743652
			c-0.000061,1.3537598,1.3077393,2.2930908,2.6039429,1.9025269c7.8356323-2.3609619,17.6541138-2.3609009,25.4897461,0
			c1.2962036,0.390564,2.6040039-0.5487671,2.6039429-1.9025269c-0.0001831-14.1581421-0.0001831-28.3162231,0.000061-42.4743652
			C50.3501282,29.9628925,49.8350525,29.196352,49.0431824,28.9228535z M44.4664764,62.7816238
			c-0.1579895,0.1571999-0.3905983,0.211319-0.6017761,0.1400681c-1.1339417-0.3819237-1.6707687-0.532959-2.8290138-0.7982559
			c-0.1989899-0.045517-0.3607063-0.1918221-0.4257202-0.3852196c-0.7814102-2.3232231-1.197094-3.5376663-1.9488983-5.6986008
			c-1.6276207-0.2434349-2.8963242-0.3675156-4.143528-0.367588c-1.2502098,0.0000725-2.5209942,0.1245842-4.1519814,0.3693085
			c-0.7407665,2.1582832-1.1507893,3.3717918-1.9211597,5.6913605c-0.0649433,0.1954765-0.2259426,0.3416367-0.4267235,0.3874435
			c-1.1641216,0.2660141-1.7037468,0.4177628-2.8433514,0.8016243c-0.2112484,0.0711784-0.4436417,0.0171318-0.6017017-0.1399956
			s-0.213541-0.3892365-0.1435089-0.6008415c3.2223358-9.7437782,4.9141827-14.3959618,8.2676258-23.1939659
			c0.0832214-0.2185593,0.2898827-0.3675156,0.5235672-0.3775482c0.5124588-0.0219345,0.9034119-0.0331917,1.2967339-0.0331192
			c0.3896637-0.0000725,0.778183,0.0109673,1.2863388,0.0324745c0.2336121,0.0098915,0.4402733,0.1587753,0.5237122,0.3771896
			c3.3593178,8.7965698,5.0543213,13.4487534,8.2827492,23.1946831
			C44.6798744,62.3921738,44.6245346,62.6244965,44.4664764,62.7816238z"/>
	</g>
	<g>
		<path fill="#FFFFFF" d="M71.4825974,52.5099068c-0.3058701-0.3524628-0.7044907-0.6543159-1.2104263-0.888073
			c-0.490593-0.2264442-1.0992508-0.3658676-1.8348541-0.3769798c-0.2362671-0.003582-0.4586258-0.0055161-0.6698685-0.0055161
			c-1.5146484,0.001503-2.4623642,0.0956955-4.0020256,0.3931046c0,2.6869392-0.0000725,4.3050957-0.0000725,6.9303894
			c1.4667664-0.2748299,2.5112457-0.3722458,4.0023804-0.3708839c0.218132,0,0.4461517,0.0019341,0.687149,0.0055923
			l0.1773453,0.0013618c0.6895828,0.0004311,1.26548-0.0652313,1.7199402-0.2002792
			c0.5151825-0.1518974,0.8988953-0.3564072,1.1801071-0.6109505c0.2956161-0.2689514,0.5005569-0.5720978,0.639267-0.9530182
			c0.1440048-0.3992691,0.2185593-0.8340225,0.2187729-1.3180199c-0.000145-0.4839287-0.0748367-0.9504356-0.2240829-1.4044724
			C72.0210037,53.2724609,71.7958527,52.8725471,71.4825974,52.5099068z"/>
		<path fill="#FFFFFF" d="M82.9077454,30.8006611c0-0.8377686-0.5150757-1.6043091-1.3069458-1.8778076
			c-8.4524536-2.9193726-19.6314087-2.9193726-28.0838623,0c-0.7918701,0.2734985-1.3069458,1.0400391-1.3069458,1.8778076
			v42.4743652c0,1.3537598,1.3078003,2.2930908,2.6040039,1.9025269c7.8356323-2.3609009,17.6541138-2.3609009,25.4897461,0
			c1.2962036,0.390564,2.6040039-0.5487671,2.6040649-1.9025269C82.9079285,59.1168823,82.9079285,44.9588013,82.9077454,30.8006611
			z M75.8742905,58.6102142c-0.3565521,0.7879333-0.9034119,1.4269104-1.607048,1.8976479
			c-0.7073593,0.4750366-1.550705,0.7741661-2.517128,0.9662781c-0.864418,0.1719627-1.8209457,0.2336121-2.8768997,0.2338982
			c-0.1436462,0-0.2888794-0.0012207-0.4358978-0.0033684c-0.2516785-0.0037994-0.493248-0.005806-0.7260666-0.005806
			c-2.776329,0.0043716-4.2949219,0.2694511-7.1824989,1.2249794c-0.1788483,0.0594215-0.3759766,0.0292435-0.528801-0.0810013
			c-0.1528282-0.1102486-0.2437935-0.2878075-0.243721-0.4762573c0.000145-4.326458,0.0002136-7.5712318,0.0002861-10.8160057
			c-0.0000725-3.2448425-0.0002136-6.4896126-0.0002861-10.8160019c0-0.2536125,0.1612854-0.4771881,0.4019928-0.5571861
			c2.9362526-0.9768867,5.1955376-1.4604568,7.5672874-1.4598122c1.8572922,0,3.7647552,0.2943306,6.1117096,0.8475723
			c0.2657242,0.0625801,0.4524612,0.2984161,0.4525299,0.5714531c0,0.9391098,0,1.408699,0,2.3478088
			c0,0.1803551-0.0812912,0.3484497-0.2227173,0.4604187c-0.1413574,0.1118965-0.3237152,0.1524658-0.4991989,0.1111069
			c-2.1628647-0.5095901-3.75457-0.7513046-5.3696442-0.7515907c-1.3316498,0.0000725-2.7110291,0.1733284-4.4328384,0.5074387
			c0,2.0322685,0,3.3011894,0.0000725,5.2773247c1.4667625-0.2748299,2.5111732-0.3721733,4.0022392-0.370739
			c0.2182007-0.0000725,0.4463654,0.0018616,0.6873627,0.0055923c1.2845459,0.0189209,2.4374161,0.2912445,3.4387436,0.7671432
			c0.9953766,0.4713097,1.8293304,1.1168098,2.4957657,1.882019c0.6642075,0.7631302,1.1636887,1.6329956,1.5028915,2.5731812
			c0.3384094,0.940258,0.5070801,1.9322662,0.5068665,2.9573975C76.3994293,56.9184418,76.2310486,57.8228569,75.8742905,58.6102142
			z"/>
	</g>
</g>
</svg>
