<?xml version="1.0" encoding="utf-8"?>
<!-- Generator: Adobe Illustrator 18.1.1, SVG Export Plug-In . SVG Version: 6.00 Build 0)  -->
<svg version="1.1" id="Layer_1" xmlns="http://www.w3.org/2000/svg" xmlns:xlink="http://www.w3.org/1999/xlink" x="0px" y="0px"
	 width="64px" height="64px" viewBox="0 0 64 64" enable-background="new 0 0 64 64" xml:space="preserve">
<circle fill="#F09B36" cx="32" cy="32" r="30.6310005"/>
<g>
	<g>
		<path fill="#FFFFFF" d="M19.9799614,32.8266258c0.6488304-0.0703964,1.2011814-0.1074142,1.7519512-0.1074142
			c0.5508575,0,1.1032505,0.0369759,1.7521687,0.1074142c-0.6744747-1.915266-1.1105423-3.1251869-1.7558136-4.8766975
			C21.0857601,29.7015705,20.6516266,30.9115791,19.9799614,32.8266258z"/>
		<path fill="#FFFFFF" d="M30.6295986,18.4750919c-5.1781406-1.7884655-12.0265923-1.7885017-17.2047348,0
			c-0.485116,0.167551-0.8006611,0.6371498-0.8006611,1.150383c0.0001497,8.6735611,0.0001497,17.347086,0.0000372,26.020647
			c-0.0000372,0.8293381,0.8011475,1.4047928,1.5952272,1.1655235c4.8002644-1.446373,10.8152637-1.4463348,15.6155281,0
			c0.7940807,0.2392693,1.5952644-0.3361855,1.5952282-1.1655235c-0.0001125-8.6735611-0.0001125-17.347086,0.0000362-26.020647
			C31.4302597,19.1122417,31.1147156,18.642643,30.6295986,18.4750919z M27.8258171,39.2176514
			c-0.0967865,0.0963058-0.2392864,0.1294594-0.3686581,0.0858116c-0.6946754-0.2339745-1.0235481-0.3265038-1.7331104-0.4890289
			c-0.1219063-0.0278854-0.2209759-0.1175117-0.2608051-0.2359924c-0.4787083-1.4232559-0.7333641-2.1672478-1.1939354-3.4910774
			c-0.9971123-0.1491318-1.7743454-0.2251472-2.5384064-0.225193c-0.7659035,0.0000458-1.5444126,0.0763245-2.5435886,0.2262459
			c-0.4538078,1.3222084-0.7049961,2.0656281-1.176939,3.4866409c-0.0397873,0.1197548-0.1384182,0.2092972-0.2614212,0.2373581
			c-0.7131634,0.1629639-1.0437489,0.255928-1.7418938,0.4910889c-0.1294136,0.0436058-0.2717829,0.0104942-0.3686132-0.0857658
			c-0.0968313-0.0962563-0.1308203-0.2384529-0.0879164-0.368084c1.9740677-5.9692345,3.0105267-8.8192558,5.0649128-14.2090874
			c0.0509834-0.133894,0.1775875-0.2251472,0.3207474-0.2312946c0.313942-0.0134392,0.5534477-0.0203323,0.794405-0.0202885
			c0.2387161-0.0000439,0.4767303,0.0067177,0.7880363,0.0198917c0.143116,0.0060616,0.2697201,0.097271,0.320837,0.2310772
			c2.0579872,5.3889523,3.0963783,8.2389717,5.0741768,14.2095261
			C27.9565487,38.9790688,27.9226475,39.1213951,27.8258171,39.2176514z"/>
	</g>
	<g>
		<path fill="#FFFFFF" d="M44.3764343,32.9249916c-0.1873817-0.2159233-0.4315872-0.4008446-0.7415314-0.5440483
			c-0.3005486-0.1387253-0.6734238-0.2241402-1.1240692-0.2309456c-0.1447411-0.0021973-0.2809601-0.0033798-0.4103737-0.0033798
			c-0.927906,0.0009193-1.5084915,0.0586243-2.4517212,0.2408218c0,1.6460762-0.0000458,2.6373901-0.0000458,4.245697
			c0.898571-0.1683655,1.5384407-0.2280464,2.4519424-0.227211c0.1336288,0,0.2733192,0.0011864,0.4209595,0.0034256
			l0.1086426,0.0008354c0.422451,0.0002632,0.7752571-0.0399628,1.0536728-0.1226959
			c0.315609-0.0930557,0.5506821-0.2183418,0.7229576-0.374279c0.1810989-0.1647682,0.3066521-0.3504791,0.3916245-0.5838394
			c0.0882225-0.2445984,0.1338921-0.5109406,0.1340256-0.8074455c-0.0000877-0.296463-0.045845-0.5822563-0.1372757-0.8604088
			C44.7062721,33.3921509,44.5683403,33.1471519,44.3764343,32.9249916z"/>
		<path fill="#FFFFFF" d="M51.3757095,19.6254749c0-0.5132332-0.3155479-0.982832-0.800663-1.150383
			c-5.1781425-1.7884655-12.0265923-1.7884655-17.2047348,0c-0.4851151,0.167551-0.800663,0.6371498-0.800663,1.150383v26.020647
			c0,0.8293381,0.8011856,1.4047928,1.5952644,1.1655235c4.8002663-1.4463348,10.8152657-1.4463348,15.6155281,0
			c0.7940826,0.2392693,1.5952682-0.3361855,1.5953026-1.1655235C51.3758202,36.9725609,51.3758202,28.299036,51.3757095,19.6254749
			z M47.0668716,36.6621628c-0.2184296,0.4827042-0.5534477,0.8741531-0.9845085,1.1625366
			c-0.4333458,0.2910194-0.9499931,0.4742737-1.5420418,0.5919609c-0.5295601,0.1053505-1.1155472,0.143116-1.7624435,0.1432915
			c-0.0880051,0-0.1769753-0.0007439-0.2670441-0.0020638c-0.1541824-0.002327-0.3021698-0.0035553-0.4448051-0.0035553
			c-1.7008324,0.0026779-2.6311531,0.1650734-4.4001389,0.7504463c-0.1095657,0.0364037-0.2303314,0.0179176-0.3239555-0.0496216
			c-0.0936241-0.067543-0.149353-0.1763153-0.1493073-0.2917671c0.0000877-2.6504745,0.0001297-4.6382866,0.0001755-6.6260986
			c-0.0000458-1.9878559-0.0001335-3.9756699-0.0001755-6.6261005c0-0.1553669,0.0988045-0.2923355,0.2462692-0.3413429
			c1.7988052-0.5984612,3.182888-0.8947048,4.6358719-0.89431c1.1378136,0,2.306366,0.1803112,3.7441559,0.5192394
			c0.1627884,0.0383377,0.2771835,0.1828136,0.2772293,0.3500824c0,0.5753174,0,0.862999,0,1.4383163
			c0,0.1104889-0.0498009,0.2134666-0.1364441,0.2820606c-0.0865974,0.0685501-0.1983147,0.0934048-0.3058167,0.0680656
			c-1.325016-0.3121834-2.3001289-0.4602623-3.2895546-0.4604378c-0.8157921,0.0000439-1.6608276,0.106184-2.7156448,0.3108673
			c0,1.2450066,0,2.0223732,0.0000458,3.2329941c0.8985672-0.1683655,1.5383949-0.2280006,2.4518509-0.2271233
			c0.1336746-0.0000439,0.2734528,0.0011425,0.421093,0.0034256c0.7869377,0.0115929,1.493206,0.1784229,2.1066437,0.4699688
			c0.6097908,0.2887344,1.1206856,0.6841793,1.5289536,1.1529617c0.4069061,0.4675102,0.7129021,1.0004044,0.9207001,1.5763817
			c0.2073212,0.5760193,0.3106499,1.1837463,0.3105164,1.8117599
			C47.3885841,35.6257477,47.2854309,36.1798134,47.0668716,36.6621628z"/>
	</g>
</g>
</svg>
