<?xml version="1.0" encoding="utf-8"?>
<!-- Generator: Adobe Illustrator 18.1.1, SVG Export Plug-In . SVG Version: 6.00 Build 0)  -->
<svg version="1.1" id="Layer_1" xmlns="http://www.w3.org/2000/svg" xmlns:xlink="http://www.w3.org/1999/xlink" x="0px" y="0px"
	 width="64px" height="64px" viewBox="0 0 64 64" enable-background="new 0 0 64 64" xml:space="preserve">
<g>
	<circle fill="#11897D" cx="32" cy="32" r="30.6310005"/>
	<path fill="#FFFFFF" d="M32.8926964,7.2768908c0,0-0.0001411,0.02069-0.0021477,0.0564651
		C32.8971786,7.2979078,32.8926964,7.2768908,32.8926964,7.2768908z"/>
	<path fill="#FFFFFF" d="M23.008955,26.7255974c0.2550964,1.5303917,0.382597,2.4868851,2.6143856,5.6114388
		C27.8552227,35.4615936,32,35.9079399,32,35.9079399c2.805687-0.5101204,2.8694839-0.4463463,5.8027611-2.8694801
		c2.9331894-2.423111,3.124485-4.9737701,3.3795815-6.3128624c1.9767876,0.1912994,2.6143875-1.6579151,2.9969864-4.3360996
		c0.3825951-2.6781826-1.9129906-2.1680603-1.9129906-2.1680603s0.3825989-1.4666176,0.3825989-3.6346779
		c0-2.1680374-1.2752953-3.6984282-2.1042862-4.5911722c-0.8288994-0.8927202-3.5070839-2.8057079-5.9302635-3.1245317
		c-1.5041924-0.1979303-2.4910889,0.1689749-2.8106842,0.3234472C31.8534431,9.1633511,31.9149055,9.1231165,32,9.0623541
		c0.7755623-0.5539999,0.8771896-1.4921165,0.8905487-1.7289982c-0.0280228,0.1507597-0.258831,0.5660033-1.910841,0.7725048
		c-2.0404892,0.2550488-2.0404892,1.9129877-2.0404892,1.9129877s-3.8259754-0.3188467-6.18536,2.2955866
		c-2.3592892,2.6144094-1.2155132,7.9707766-1.2155132,7.9707766s-1.8944931-0.0637741-1.8452682,1.5303898
		C20.075676,27.1719685,22.3712616,26.7255974,23.008955,26.7255974z"/>
	<path fill="#FFFFFF" d="M52.0225868,47.1615982v-2.2626266c0,0,0.5102043-3.0607834-4.017292-4.3360901
		c-4.5273819-1.2753067-7.8432465-2.4231071-8.2895508-2.8694878c-1.1478043,3.5494881-5.0375519,13.9169884-5.0375519,13.9169884
		l-1.4665985-8.8156853c0,0,1.1587944-1.2194061,1.912941-3.2520752C35.9981079,37.1879768,32.3110962,37.7007599,32,37.6933937
		c-0.3110962,0.0073662-3.9981079-0.5054169-3.1245346,1.8492279c0.7541466,2.0326691,1.9129429,3.2520752,1.9129429,3.2520752
		l-1.4666023,8.8156853c0,0-3.8897476-10.3675003-5.03755-13.9169884c-0.4463024,0.4463806-3.7621689,1.5941811-8.2895517,2.8694878
		c-4.5274954,1.2753067-4.0172901,4.3360901-4.0172901,4.3360901v2.2626266
		C16.5639877,53.2092018,23.8244915,57.1174202,32,57.1174202S47.4360123,53.2092018,52.0225868,47.1615982z"/>
</g>
</svg>
