<?xml version="1.0" encoding="utf-8"?>
<!-- Generator: Adobe Illustrator 18.1.1, SVG Export Plug-In . SVG Version: 6.00 Build 0)  -->
<svg version="1.1" id="Layer_1" xmlns="http://www.w3.org/2000/svg" xmlns:xlink="http://www.w3.org/1999/xlink" x="0px" y="0px"
	 width="102px" height="102px" viewBox="0 0 102 102" enable-background="new 0 0 102 102" xml:space="preserve">
<g id="Layer_2_3_">
	<path fill="#11897D" d="M17,1h85v100H17c-8.2842712,0-15-6.7157288-15-15V16C2,7.7157288,8.7157288,1,17,1z"/>
</g>
<path fill="#FFFFFF" d="M53.4571724,10.6436462c0,0-0.0002289,0.0337725-0.0035095,0.0921688
	C53.464489,10.6779518,53.4571724,10.6436462,53.4571724,10.6436462z"/>
<path fill="#FFFFFF" d="M37.3236122,42.3904152c0.4164009,2.4981079,0.624527,4.0594254,4.2675476,9.1597404
	c3.643177,5.1003151,10.4088326,5.828907,10.4088326,5.828907c4.5798149-0.8326912,5.4166756-0.9623947,9.4720421-4.6839523
	c4.5756874-4.1990471,5.1002007-8.1188507,5.5166054-10.3046951c3.2267685,0.3122635,4.2675476-2.7062683,4.8920746-7.0779572
	s-3.1226349-3.5389977-3.1226349-3.5389977s0.624527-2.3940086,0.624527-5.9330063
	c0-3.5389595-2.0817032-6.0370674-3.4348984-7.4943218c-1.3530426-1.4572182-5.7247276-4.5798521-9.6801643-5.1002779
	c-2.4553413-0.3230896-4.066288,0.2758217-4.5879707,0.5279732c0.081192-0.050849,0.1815186-0.1165266,0.3204193-0.2157097
	c1.2659798-0.904314,1.4318695-2.4356327,1.4536705-2.8223028c-0.045742,0.2460909-0.4225006,0.9239073-3.1191254,1.2609854
	c-3.330761,0.4163256-3.330761,3.1226339-3.330761,3.1226339s-6.2452698-0.5204639-10.0965691,3.7471619
	c-3.8511467,4.2675877-1.9841232,13.0109634-1.9841232,13.0109634s-3.0924435-0.1040993-3.0120907,2.4981079
	C32.5355186,43.1190453,36.2826805,42.3904152,37.3236122,42.3904152z"/>
<path fill="#FFFFFF" d="M84.6835251,82.1489029v-10.093483c0,0,0.8328247-4.9962158-6.5575562-7.0779419
	c-7.3901978-2.0817261-12.8027954-3.9553223-13.531311-4.68396c-1.8735962,5.7939453-8.2229614,22.7171631-8.2229614,22.7171631
	l-2.3939819-14.3901367c0,0,1.8915405-1.9904785,3.1225586-5.3084717c1.4259644-3.8435669-4.5924683-3.0065308-5.1002808-3.0185547
	c-0.5078125,0.0120239-6.5262451-0.8250122-5.1002808,3.0185547c1.2310181,3.3179932,3.1225586,5.3084717,3.1225586,5.3084717
	l-2.3939819,14.3901367c0,0-6.3493652-16.9232178-8.2229614-22.7171631c-0.7285156,0.7286377-6.1411133,2.6022339-13.531311,4.68396
	c-7.3903809,2.0817261-6.5575562,7.0779419-6.5575562,7.0779419v10.093483C26.4776306,90.3989029,38.6548386,92,51.9999924,92
	S77.9776306,90.7739029,84.6835251,82.1489029z"/>
</svg>
