<?xml version="1.0" encoding="utf-8"?>
<!-- Generator: Adobe Illustrator 18.1.1, SVG Export Plug-In . SVG Version: 6.00 Build 0)  -->
<svg version="1.1" id="Layer_1" xmlns="http://www.w3.org/2000/svg" xmlns:xlink="http://www.w3.org/1999/xlink" x="0px" y="0px"
	 width="64px" height="64px" viewBox="0 0 64 64" enable-background="new 0 0 64 64" xml:space="preserve">
<circle fill="#386589" cx="32" cy="32" r="30.6310005"/>
<g>
	<path fill-rule="evenodd" clip-rule="evenodd" fill="#FFFFFF" d="M19.1672115,21.9260578
		c-0.8453445-0.0001125-1.6397972,0.0561237-2.3220406,0.1525936c-0.6811581,0.0953484-1.2538071,0.2349682-1.6296654,0.3787746
		c-0.1534538,0.0565357-0.2671986,0.1154652-0.3416071,0.1598854V49.754612h0.2169819
		c0.5592995-0.5067253,2.1717272-0.8732758,4.0763311-0.8732758c1.9045658,0,3.5170307,0.3665504,4.0763302,0.8732758h0.207037
		V22.6115532c-0.1472855-0.087944-0.4429016-0.2108498-0.8349876-0.3126278
		C21.7818775,22.0770073,20.5382404,21.9247856,19.1672115,21.9260578z"/>
	<path fill-rule="evenodd" clip-rule="evenodd" fill="#FFFFFF" d="M19.1672115,14.0655718
		c-2.3684063,0-4.2883406,0.9359436-4.2883406,2.090476h-0.0049725v4.4864025
		c0.1247749-0.0399342,0.2405014-0.08428,0.3751097-0.1203632c1.0515575-0.2765083,2.4123783-0.4326172,3.9182034-0.4338894
		c0.9872074,0.0001488,1.9147358,0.0689507,2.7308769,0.1929016c0.5786324,0.0889912,1.0952301,0.2036705,1.5524902,0.3496094
		v-4.426651c0.0007477-0.0161152,0.0049725-0.0317822,0.0049725-0.0480099
		C23.4555511,15.0015154,21.5355797,14.0655718,19.1672115,14.0655718z"/>
</g>
<g>
	<path fill-rule="evenodd" clip-rule="evenodd" fill="#FFFFFF" d="M29.3966026,21.9260578
		c-0.8453445-0.0001125-1.6397991,0.0561237-2.3220406,0.1525936c-0.6811581,0.0953484-1.2538071,0.2349682-1.6296654,0.3787746
		c-0.1534538,0.0565357-0.2671986,0.1154652-0.341608,0.1598854V49.754612h0.2169819
		c0.5593014-0.5067253,2.1717281-0.8732758,4.0763321-0.8732758c1.9045658,0,3.5170288,0.3665504,4.0763321,0.8732758h0.2070351
		V22.6115532c-0.1472855-0.087944-0.4429016-0.2108498-0.8349876-0.3126278
		C32.0112686,22.0770073,30.7676315,21.9247856,29.3966026,21.9260578z"/>
	<path fill-rule="evenodd" clip-rule="evenodd" fill="#FFFFFF" d="M29.3966026,14.0655718
		c-2.3684063,0-4.2883396,0.9359436-4.2883396,2.090476h-0.0049744v4.4864025
		c0.1247749-0.0399342,0.2405014-0.08428,0.3751106-0.1203632c1.0515575-0.2765083,2.4123783-0.4326172,3.9182034-0.4338894
		c0.9872055,0.0001488,1.9147358,0.0689507,2.7308769,0.1929016c0.5786324,0.0889912,1.0952301,0.2036705,1.5524902,0.3496094
		v-4.426651c0.0007477-0.0161152,0.0049706-0.0317822,0.0049706-0.0480099
		C33.6849403,15.0015154,31.7649708,14.0655718,29.3966026,14.0655718z"/>
</g>
<g>
	<path fill-rule="evenodd" clip-rule="evenodd" fill="#FFFFFF" d="M40.9201546,22.3476124
		c-0.8096199,0.2431412-1.5542908,0.5256042-2.1799202,0.8143101c-0.6249123,0.2873192-1.1331673,0.5858116-1.4517479,0.8316898
		c-0.1306953,0.0983028-0.2226715,0.1874676-0.2811508,0.251421l7.808773,25.9895401l0.2078056-0.0624352
		c0.3898315-0.6462364,1.8285904-1.4612579,3.6526375-2.0093079c1.8240128-0.5480385,3.4737549-0.660984,4.1552086-0.336628
		l0.1982803-0.0595741L45.2196121,21.771574c-0.1663628-0.0418434-0.4848404-0.0744858-0.8896294-0.0591373
		C43.4676704,21.7398071,42.23283,21.9518814,40.9201546,22.3476124z"/>
	<path fill-rule="evenodd" clip-rule="evenodd" fill="#FFFFFF" d="M38.6582947,14.8195829
		c-2.2682343,0.6815109-3.8376465,2.1303301-3.5054283,3.2360334l-0.0047646,0.0014305l1.290966,4.2966518
		c0.1080055-0.0741501,0.2060776-0.1499214,0.3246117-0.2232113c0.9275169-0.5674,2.1858597-1.1084843,3.6276321-1.5430031
		c0.9454956-0.283926,1.8535919-0.4849319,2.6708832-0.6010685c0.5797653-0.081274,1.1075134-0.1200962,1.587429-0.1119061
		l-1.2737732-4.2394276c-0.0039215-0.0156488-0.0043831-0.0318699-0.0090523-0.047411
		C43.0345802,14.4819689,40.9264946,14.1380844,38.6582947,14.8195829z"/>
</g>
</svg>
