<?xml version="1.0" encoding="utf-8"?>
<!-- Generator: Adobe Illustrator 18.1.1, SVG Export Plug-In . SVG Version: 6.00 Build 0)  -->
<svg version="1.1" id="Layer_1" xmlns="http://www.w3.org/2000/svg" xmlns:xlink="http://www.w3.org/1999/xlink" x="0px" y="0px"
	 width="102px" height="102px" viewBox="0 0 102 102" enable-background="new 0 0 102 102" xml:space="preserve">
<g id="Layer_2_4_">
	<path fill="#386589" d="M16.9999695,1h85v100h-85c-8.2842703,0-14.999999-6.7157288-14.999999-15V16
		C1.9999703,7.7157288,8.7156992,1,16.9999695,1z"/>
</g>
<g>
	<g>
		<path fill-rule="evenodd" clip-rule="evenodd" fill="#FFFFFF" d="M27.866312,34.3110008
			c-1.3798828-0.0001831-2.6766968,0.0916138-3.7903442,0.2490845c-1.1118774,0.1556396-2.0466309,0.3835449-2.6601562,0.6182861
			c-0.2504883,0.0922852-0.4361572,0.1884766-0.5576172,0.2609863v44.2971153h0.354187
			c0.9129639-0.8271484,3.5449829-1.4254761,6.6539307-1.4254761c3.1088867,0,5.7409687,0.5983276,6.6539326,1.4254761h0.3379517
			V35.4299583c-0.2404175-0.1435547-0.7229614-0.3441772-1.3629761-0.5103149
			C32.1343193,34.5573997,30.1042881,34.3089256,27.866312,34.3110008z"/>
		<path fill-rule="evenodd" clip-rule="evenodd" fill="#FFFFFF" d="M27.866312,21.4800682c-3.8660278,0-7,1.527771-7,3.4123535
			h-0.0081177v7.3233032c0.2036743-0.0651855,0.3925781-0.1375732,0.6123047-0.1964722
			c1.7164917-0.451355,3.9378052-0.7061768,6.395813-0.708252c1.6114502,0.0002441,3.1254883,0.1125488,4.4577045,0.3148804
			c0.944519,0.1452637,1.7877808,0.3324585,2.5341797,0.5706787v-7.225769
			c0.0012207-0.0263062,0.0081177-0.0518799,0.0081177-0.0783691C34.8663139,23.0078392,31.7322788,21.4800682,27.866312,21.4800682
			z"/>
	</g>
	<g>
		<path fill-rule="evenodd" clip-rule="evenodd" fill="#FFFFFF" d="M44.5640869,34.3110008
			c-1.3798828-0.0001831-2.6766968,0.0916138-3.7903442,0.2490845c-1.1118774,0.1556396-2.0466309,0.3835449-2.6601562,0.6182861
			c-0.2504883,0.0922852-0.4361572,0.1884766-0.5576172,0.2609863v44.2971153h0.354187
			c0.9129639-0.8271484,3.5449829-1.4254761,6.6539307-1.4254761c3.1088867,0,5.7409668,0.5983276,6.6539307,1.4254761h0.3379517
			V35.4299583c-0.2404175-0.1435547-0.7229614-0.3441772-1.3629761-0.5103149
			C48.8320923,34.5573997,46.802063,34.3089256,44.5640869,34.3110008z"/>
		<path fill-rule="evenodd" clip-rule="evenodd" fill="#FFFFFF" d="M44.5640869,21.4800682c-3.8660278,0-7,1.527771-7,3.4123535
			h-0.0081177v7.3233032c0.2036743-0.0651855,0.3925781-0.1375732,0.6123047-0.1964722
			c1.7164917-0.451355,3.9378052-0.7061768,6.395813-0.708252c1.6114502,0.0002441,3.1254883,0.1125488,4.4577026,0.3148804
			c0.944519,0.1452637,1.7877808,0.3324585,2.5341797,0.5706787v-7.225769
			c0.0012207-0.0263062,0.0081177-0.0518799,0.0081177-0.0783691
			C51.5640869,23.0078392,48.4300537,21.4800682,44.5640869,21.4800682z"/>
	</g>
	<g>
		<path fill-rule="evenodd" clip-rule="evenodd" fill="#FFFFFF" d="M63.3743668,34.9991188
			c-1.3215752,0.3968887-2.5371246,0.8579597-3.5583572,1.3292236c-1.0200653,0.4690018-1.8497047,0.9562416-2.3697357,1.3575974
			c-0.2133369,0.1604614-0.3634758,0.3060112-0.4589348,0.4104042l12.7465248,42.4235916l0.3392029-0.1019211
			c0.6363373-1.0548706,2.9848709-2.3852539,5.962326-3.2798615c2.9773941-0.894577,5.6703186-1.0789413,6.7826843-0.5494843
			l0.3236618-0.0972443L70.3925095,34.0588341c-0.271553-0.068306-0.79142-0.1215897-1.4521713-0.0965347
			C67.5327606,34.0069771,65.5170898,34.3531532,63.3743668,34.9991188z"/>
		<path fill-rule="evenodd" clip-rule="evenodd" fill="#FFFFFF" d="M59.6822586,22.710865
			c-3.7025146,1.1124516-6.2643204,3.4774094-5.7220306,5.2822838l-0.0077744,0.0023365l2.1072845,7.013567
			c0.1763039-0.1210365,0.3363876-0.2447205,0.5298729-0.3643532c1.5140152-0.9261856,3.5680542-1.8094139,5.921505-2.5186958
			c1.5433655-0.4634628,3.0256805-0.7915726,4.3597717-0.981144c0.946373-0.1326656,1.8078308-0.1960373,2.5912094-0.1826706
			l-2.079216-6.9201565c-0.0064011-0.0255451-0.0071564-0.0520229-0.0147781-0.0773907
			C66.8258133,22.1597672,63.384716,21.5984325,59.6822586,22.710865z"/>
	</g>
</g>
</svg>
