<?xml version="1.0" encoding="utf-8"?>
<!-- Generator: Adobe Illustrator 18.1.1, SVG Export Plug-In . SVG Version: 6.00 Build 0)  -->
<svg version="1.1" id="Layer_1" xmlns="http://www.w3.org/2000/svg" xmlns:xlink="http://www.w3.org/1999/xlink" x="0px" y="0px"
	 width="64px" height="64px" viewBox="0 0 64 64" enable-background="new 0 0 64 64" xml:space="preserve">
<g>
	<circle fill="#ED7C31" cx="32" cy="32" r="30.6310005"/>
	<g>
		<g>
			<path fill-rule="evenodd" clip-rule="evenodd" fill="#FFFFFF" d="M23.8114471,50.8186607l3.3815479-2.3677788
				c-0.8491554-0.5954933-1.7688522-1.132576-2.7569332-1.5930367c-0.9878597-0.4609337-1.9904442-0.8202629-2.9924431-1.0879784
				l0.3597679,4.1124115C21.8892059,50.8632698,23.004797,51.3834801,23.8114471,50.8186607z"/>
			<path fill-rule="evenodd" clip-rule="evenodd" fill="#FFFFFF" d="M20.6303883,37.4075356
				c0.0279465,0.2131195,0.0718403,0.4235229,0.1336937,0.6284676c0.0027084,0.008976,0.0045071,0.0181732,0.0053234,0.0275116
				l0.5164013,5.9027481c0.0061836,0.0706902,0.0560474,0.1286583,0.1250172,0.1453476
				c1.2407742,0.3002434,2.4817944,0.7312355,3.700098,1.2989922c1.2180386,0.5683289,2.345911,1.2419701,3.3734646,1.9994659
				c0.0571175,0.0421066,0.1335773,0.0430412,0.1917038,0.0023384l4.8538361-3.3986778
				c0.007679-0.0053749,0.015873-0.0099068,0.0244904-0.0135994c0.1967087-0.0843391,0.3860054-0.1859703,0.567215-0.3015251
				c-1.5397453-1.8549767-3.5906239-3.4721146-6.057291-4.621624
				C25.5982208,37.9262924,23.0411129,37.3946915,20.6303883,37.4075356z"/>
		</g>
		<path fill-rule="evenodd" clip-rule="evenodd" fill="#FFFFFF" d="M41.7212524,20.5725861
			c-1.6160355,3.4655952-7.4660454,16.0109863-8.7328072,18.727562c-0.1985931,0.4258881-0.0987854,0.9364204,0.257225,1.2431335
			c0.7370644,0.6350136,1.4129753,1.3143845,2.0179062,2.0321007c0.1061783-0.1599045,0.2049294-0.3268585,0.2885857-0.5062599
			l9.10289-19.5211658c0.1722412-0.3693676,0.1257362-0.8103008-0.137146-1.1217327
			c-0.3447647-0.4084282-0.7134857-0.8032589-1.1049919-1.182518
			C42.8934631,19.7404976,42.0269012,19.9171257,41.7212524,20.5725861z"/>
		<path fill-rule="evenodd" clip-rule="evenodd" fill="#FFFFFF" d="M40.6145782,19.1673717
			c0.231739-0.4969597,0.0500984-1.09062-0.4221382-1.3693008c-0.4734993-0.2794228-0.9653969-0.5399303-1.4763222-0.7781792
			c-0.7540588-0.3516235-1.5184479-0.6417599-2.2865601-0.8753414c-0.508667-0.154685-1.0540237,0.0886955-1.278717,0.570549
			l-8.747303,18.7586555c-0.26581,0.5700302,0.0187225,1.2399292,0.6114311,1.4503708
			c0.5781384,0.2052689,1.1536884,0.4397163,1.7242317,0.7056122c0.5499458,0.2565956,1.0801239,0.5358734,1.5911655,0.834446
			c0.5424747,0.3169365,1.2372513,0.1044655,1.5027695-0.4649429L40.6145782,19.1673717z"/>
		<path fill-rule="evenodd" clip-rule="evenodd" fill="#FFFFFF" d="M30.8201923,15.4245558
			c-0.3887558,0.0182476-0.7317295,0.2618484-0.8962059,0.6145678L20.9591465,35.264286
			c-0.083643,0.1793747-0.1480751,0.3623657-0.2023163,0.5464897c0.916708,0.0020065,1.8489056,0.0797958,2.7864342,0.2292023
			c0.4631176,0.0738068,0.9173012-0.1779823,1.1154919-0.6030083l8.624157-18.4945602
			c0.3232498-0.6932125-0.1690331-1.4774446-0.932972-1.515296C31.8357468,15.4016361,31.3251591,15.4008532,30.8201923,15.4245558z
			"/>
		<path fill-rule="evenodd" clip-rule="evenodd" fill="#FFFFFF" d="M39.2053299,15.4860821
			c2.5204239,1.175293,4.6369476,2.8510704,6.2830391,4.8369045c0.1373024-2.5622063-1.9326744-5.4533119-5.2699394-7.0095043
			c-3.3372612-1.5561914-6.882534-1.2835178-8.7570419,0.4686155
			C34.0407143,13.7666092,36.6849098,14.3107891,39.2053299,15.4860821z"/>
	</g>
</g>
</svg>
