<?xml version="1.0" encoding="utf-8"?>
<!-- Generator: Adobe Illustrator 18.1.1, SVG Export Plug-In . SVG Version: 6.00 Build 0)  -->
<svg version="1.1" id="Layer_1" xmlns="http://www.w3.org/2000/svg" xmlns:xlink="http://www.w3.org/1999/xlink" x="0px" y="0px"
	 width="64px" height="64px" viewBox="0 0 64 64" enable-background="new 0 0 64 64" xml:space="preserve">
<g>
	<circle fill="#6BA426" cx="32" cy="32" r="30.6310005"/>
</g>
<g id="_x36__6_">
	<g>
		<path fill="#FFFFFF" d="M27.0366249,25.1930676c0.9397583,0,1.7017212-0.7619019,1.7017212-1.7017212
			c0-0.9397583-0.7619629-1.7017212-1.7017212-1.7017212s-1.7017212,0.7619629-1.7017212,1.7017212
			C25.3349037,24.4311657,26.0968666,25.1930676,27.0366249,25.1930676z M44.0538368,16.6844616H23.6331825
			c-1.8795166,0-3.4034424,1.5239258-3.4034424,3.4034424v20.4207134c0,1.8795166,1.5239258,3.4034424,3.4034424,3.4034424
			h20.4206543c1.8795776,0,3.4034424-1.5239258,3.4034424-3.4034424V20.087904
			C47.4572792,18.2083874,45.9334145,16.6844616,44.0538368,16.6844616z M27.0366249,20.087904
			c1.8795776,0,3.4034424,1.5239258,3.4034424,3.4034424c0,1.8795776-1.5238647,3.4034424-3.4034424,3.4034424
			c-1.8795166,0-3.4034424-1.5238647-3.4034424-3.4034424C23.6331825,21.6118298,25.1571083,20.087904,27.0366249,20.087904z
			 M23.6331825,42.2103386c-0.9397583,0-1.7017212-0.7619629-1.7017212-1.7017212V39.70924l6.760376-6.0540771l8.5559692,8.5551758
			H23.6331825z M45.755558,40.5086174c0,0.9397583-0.7619019,1.7017212-1.7017212,1.7017212H39.65662l-6.2692261-6.3515015
			l7.2630005-7.2631207l5.1051636,5.1051617V40.5086174z"/>
	</g>
</g>
<path fill="#FFFFFF" d="M44.0538712,45.4435921H23.6331806c-2.7211552,0-4.9349861-2.213829-4.9349861-4.9349861V20.0879536
	c0-0.2084198,0.0172386-0.4125023,0.0424404-0.6141911c-1.7681637,0.5962811-3.046237,2.2653561-3.0488167,4.2319908v19.99189
	c0.003253,2.4634514,2.0052242,4.4654617,4.4687157,4.4687157H40.15242c1.8483315-0.00243,3.4367905-1.1301193,4.1162682-2.7336464
	C44.1969337,45.4358177,44.1263733,45.4435921,44.0538712,45.4435921z"/>
</svg>
