<?xml version="1.0" encoding="utf-8"?>
<!-- Generator: Adobe Illustrator 18.1.1, SVG Export Plug-In . SVG Version: 6.00 Build 0)  -->
<svg version="1.1" id="Layer_1" xmlns="http://www.w3.org/2000/svg" xmlns:xlink="http://www.w3.org/1999/xlink" x="0px" y="0px"
	 width="64px" height="64px" viewBox="0 0 64 64" enable-background="new 0 0 64 64" xml:space="preserve">
<g>
	<circle fill="#CC3366" cx="32" cy="32" r="30.6310005"/>
</g>
<g>
	<path fill-rule="evenodd" clip-rule="evenodd" fill="#FFFFFF" d="M22.027153,26.719408h-3.0685711
		c-0.6161728,0-1.1158428-0.4990044-1.1158428-1.114727s0.49967-1.1147289,1.1158428-1.1147289h3.0685711
		c0.6161633,0,1.1158428,0.4990063,1.1158428,1.1147289S22.6433163,26.719408,22.027153,26.719408z"/>
	<path fill-rule="evenodd" clip-rule="evenodd" fill="#FFFFFF" d="M22.027153,33.6236916h-3.0685711
		c-0.6161728,0-1.1158428-0.4990082-1.1158428-1.114727c0-0.6157246,0.49967-1.1147289,1.1158428-1.1147289h3.0685711
		c0.6161633,0,1.1158428,0.4990044,1.1158428,1.1147289C23.1429958,33.1246834,22.6433163,33.6236916,22.027153,33.6236916z"/>
	<path fill-rule="evenodd" clip-rule="evenodd" fill="#FFFFFF" d="M22.027153,40.3851433h-3.0685711
		c-0.6161728,0-1.1158428-0.4990044-1.1158428-1.114727s0.49967-1.114727,1.1158428-1.114727h3.0685711
		c0.6161633,0,1.1158428,0.4990044,1.1158428,1.114727S22.6433163,40.3851433,22.027153,40.3851433z"/>
	<path fill="#FFFFFF" d="M38.3463631,16.4130592c-0.1383209,0-13.3901215-0.0348701-13.3901215-0.0348701
		c-2.3607483,0-4.4633751,2.1663074-4.4633751,4.4633751v2.5325775h1.8132458c1.2305336,0,2.2316875,1.0006104,2.2316875,2.2305298
		c0,1.2299213-1.0011539,2.2305984-2.2316875,2.2305984h-1.8132458v2.3717117h1.8132458
		c1.2305336,0,2.2316875,1.0006771,2.2316875,2.2305984c0,1.2299194-1.0011539,2.2305298-2.2316875,2.2305298h-1.8132458v2.3717804
		h1.8132458c1.2305336,0,2.2316875,1.0006065,2.2316875,2.2305298c0,1.2299194-1.0011539,2.2305946-2.2316875,2.2305946h-1.8132458
		v1.6574211c0,2.2970695,2.1026268,4.4633751,4.4633751,4.4633751c0,0,12.0982933-0.0119209,13.399929-0.0119209
		l2.2218819,0.0119209h1.1158409c2.360817,0,4.4633751-2.1663055,4.4633751-4.4633751V25.3310909L38.3463631,16.4130592z
		 M28.303772,26.7194252h5.5792198c0.6161499,0,1.1158409,0.4990101,1.1158409,1.114687
		c0,0.6157436-0.499691,1.1147537-1.1158409,1.1147537H28.303772c-0.6161518,0-1.1158428-0.4990101-1.1158428-1.1147537
		C27.1879292,27.2184353,27.6876202,26.7194252,28.303772,26.7194252z M38.3463631,39.2704201H28.303772
		c-0.6161518,0-1.1158428-0.499012-1.1158428-1.1147575c0-0.6156731,0.499691-1.1146851,1.1158428-1.1146851h10.0425911
		c0.6161537,0,1.1158447,0.499012,1.1158447,1.1146851C39.4622078,38.7714081,38.9625168,39.2704201,38.3463631,39.2704201z
		 M38.3463631,34.109642H28.303772c-0.6161518,0-1.1158428-0.499012-1.1158428-1.1147537
		c0-0.6156769,0.499691-1.114687,1.1158428-1.114687h10.0425911c0.6161537,0,1.1158447,0.4990101,1.1158447,1.114687
		C39.4622078,33.61063,38.9625168,34.109642,38.3463631,34.109642z M40.5780525,25.3049393
		c-1.1887856,0-2.2316895-1.0721893-2.2316895-2.2316875c0,0,0-2.2600193,0-4.4285049v-0.0021782l5.5792198,6.6623707H40.5780525z"
		/>
</g>
</svg>
