<?xml version="1.0" encoding="utf-8"?>
<!-- Generator: Adobe Illustrator 18.1.1, SVG Export Plug-In . SVG Version: 6.00 Build 0)  -->
<svg version="1.1" id="Layer_1" xmlns="http://www.w3.org/2000/svg" xmlns:xlink="http://www.w3.org/1999/xlink" x="0px" y="0px"
	 width="64px" height="64px" viewBox="-265 388.8900146 64 64" enable-background="new -265 388.8900146 64 64"
	 xml:space="preserve">
<circle fill="#835E9B" cx="-232.8673401" cy="420.6984558" r="30.6310005"/>
<path fill="#FFFFFF" d="M-232.8670044,420.6702271c0,0-0.0001373,0.0206909-0.0021515,0.0564575
	C-232.8625183,420.6912231-232.8670044,420.6702271-232.8670044,420.6702271z"/>
<g>
	<path fill="#FFFFFF" d="M-251.3930969,415.7551575v6.1443481c0.7959442,0.4323425,1.3413239,1.2640991,1.3413239,2.2305298
		c0,1.4044495-1.1435242,2.4134521-2.5470276,2.4134521c-1.4053802,0-2.5498505-1.0090027-2.5498505-2.4134521
		c0-0.9664307,0.5472717-1.7991333,1.3432159-2.2305298v-6.8969421L-251.3930969,415.7551575z"/>
	<path fill="#FFFFFF" d="M-232.8687592,424.48172c-0.2335815,0-0.4681244-0.033905-0.6932373-0.1016846l-14.9346466-4.973114
		v9.9121094c0,1.0653381,0.6989746,2.0054016,1.720047,2.3115234l13.2145996,3.9674988
		c0.2251129,0.0678406,0.4596558,0.1017456,0.6932373,0.1017456c0.2335968,0,0.4672546-0.033905,0.6933136-0.1017456
		l13.2164764-3.9684143c1.0210724-0.3060913,1.7199554-1.2452698,1.7199554-2.3124695v-9.8840637l-14.9364319,4.9469299
		C-232.4015045,424.4478149-232.6351624,424.48172-232.8687592,424.48172z"/>
	<path fill="#FFFFFF" d="M-212.3248138,411.536438l-19.8704071-5.7440186c-0.4380188-0.1271057-0.9005737-0.1271057-1.3414001,0
		l-19.8675842,5.7440186c-1.0332794,0.2976379-1.7444458,1.2433472-1.7444458,2.3181458
		c0,0.9137268,0.5161896,1.7275391,1.3027191,2.1382446l5.3492889,1.7812805l14.9346466,4.973114
		c0.2251129,0.067749,0.4596558,0.1016846,0.6932373,0.1016846c0.2335968,0,0.4672546-0.0339355,0.6933136-0.1016846
		l14.9364319-4.9469299l4.9085388-1.6257324c1.0332794-0.298584,1.7444458-1.2442932,1.7444458-2.3199768
		C-210.5860291,412.7807617-211.2971954,411.8350525-212.3248138,411.536438z"/>
</g>
</svg>
