<?xml version="1.0" encoding="UTF-8"?>
<!DOCTYPE svg PUBLIC "-//W3C//DTD SVG 1.1//EN" "http://www.w3.org/Graphics/SVG/1.1/DTD/svg11.dtd">
<svg version="1.1" xmlns="http://www.w3.org/2000/svg" xmlns:xlink="http://www.w3.org/1999/xlink" x="0" y="0" width="64" height="64" viewBox="0, 0, 64, 64">
  <g id="Layer_2_Copy">
    <path d="M63.896,32 C63.896,49.673 49.569,64 31.896,64 C14.223,64 -0.104,49.673 -0.104,32 C-0.104,14.327 14.223,0 31.896,0 C49.569,0 63.896,14.327 63.896,32 z" fill="#4993E4"/>
  </g>
  <g id="Layer_3">
    <g>
      <path d="M23.658,23.285 L24.188,23.375 L35.237,29.475 L35.466,29.512 C36.061,29.845 35.871,29.654 36.132,29.97 L36.188,30 L36.16,30.003 L36.415,30.311 Q36.768,30.91 36.771,32.002 Q36.775,33.265 36.22,34.471 Q35.666,35.676 34.605,36.516 L34.606,36.58 Q35.181,36.35 35.623,36.429 Q36.064,36.508 36.372,36.811 Q36.679,37.115 36.842,37.625 Q37.006,38.136 37.008,38.8 Q37.011,39.934 36.645,40.993 Q36.279,42.052 35.661,42.96 Q35.042,43.868 34.207,44.606 Q33.372,45.344 32.436,45.857 Q30.728,46.795 29.494,46.53 Q28.259,46.264 27.857,44.447 L30.696,42.095 Q30.842,42.829 31.284,43.058 Q31.726,43.287 32.589,42.813 Q33.47,42.33 33.891,41.551 Q34.312,40.773 34.31,39.917 Q34.308,39.275 34.082,39.045 Q33.856,38.815 33.496,38.841 Q33.136,38.867 32.686,39.082 Q32.236,39.297 31.787,39.544 L31.157,39.889 L31.149,37.106 L32.03,36.622 Q32.408,36.415 32.767,36.153 Q33.127,35.891 33.423,35.546 Q33.719,35.201 33.898,34.771 Q34.076,34.34 34.075,33.805 Q34.073,33.12 33.613,32.922 Q33.153,32.724 32.488,33.089 Q31.858,33.435 31.446,34.069 Q31.033,34.703 30.909,35.372 L27.94,36.273 Q28.153,35.17 28.582,34.237 Q29.012,33.304 29.604,32.55 Q30.196,31.796 30.924,31.192 C31.871,30.478 31.406,30.792 32.31,30.236 L23.188,25.375 C23.188,25.375 22,25.438 20.562,26.375 C19.125,27.312 18,28.688 17.188,31 C16.807,32.082 16.199,29.869 17.188,27.938 C17.812,26.716 17.688,27.125 19.062,25.5 C20.307,24.218 21.962,23.647 23.658,23.285 z" fill="#FFFFFF"/>
      <path d="M37.008,16.188 L49.74,22.975 C50.419,23.575 50.144,23.244 50.589,23.947 Q51.171,25.052 51.139,27.135 Q51.11,28.982 50.5,30.732 Q49.891,32.482 48.882,34.02 Q47.872,35.557 46.563,36.813 Q45.254,38.068 43.826,38.904 L39.216,41.603 L39.455,26.401 L43.684,23.925 C45.283,23.097 44.654,23.346 45.503,23.03 L36.188,18.25 L27.562,22.75 L27.437,20.5 L30.875,18.75 L35.5,16.312 L37.008,16.188 z M46.322,26.043 L45.575,26.148 Q44.775,26.35 43.889,26.869 L42.226,27.842 L42.085,36.86 L43.549,36.003 Q44.525,35.432 45.369,34.703 Q46.214,33.975 46.837,33.068 Q47.46,32.161 47.826,31.063 Q48.193,29.966 48.213,28.678 Q48.231,27.561 47.891,26.941 Q47.552,26.32 46.963,26.133 L46.322,26.043 z" fill="#FFFFFF"/>
    </g>
  </g>
</svg>
