<?xml version="1.0" encoding="UTF-8"?>
<!DOCTYPE svg PUBLIC "-//W3C//DTD SVG 1.1//EN" "http://www.w3.org/Graphics/SVG/1.1/DTD/svg11.dtd">
<svg version="1.1" xmlns="http://www.w3.org/2000/svg" xmlns:xlink="http://www.w3.org/1999/xlink" x="0" y="0" width="64" height="64" viewBox="0, 0, 64, 64">
  <g id="Layer_2">
    <path d="M64,32 C64,49.673 49.673,64 32,64 C14.327,64 0,49.673 0,32 C0,14.327 14.327,0 32,0 C49.673,0 64,14.327 64,32 z" fill="#4993E4"/>
  </g>
  <g id="Layer_2">
    <path d="M43.5,23.5 L43.5,40.5 L20.5,40.5 L20.5,23.5 L43.5,23.5 z M27.985,25.605 L27.985,38.558 L39.202,32.082 L27.985,25.605 z" fill="#FFFFFF"/>
    <path d="M49.5,17.5 L49.5,46.5 L14.5,46.5 L14.5,17.5 L49.5,17.5 z M46.5,20.5 L17.5,20.5 L17.5,43.5 L46.5,43.5 L46.5,20.5 z" fill="#FFFFFF"/>
  </g>
</svg>
