<?xml version="1.0" encoding="utf-8"?>
<!-- Generator: Adobe Illustrator 18.0.0, SVG Export Plug-In . SVG Version: 6.00 Build 0)  -->
<!DOCTYPE svg PUBLIC "-//W3C//DTD SVG 1.1//EN" "http://www.w3.org/Graphics/SVG/1.1/DTD/svg11.dtd">
<svg version="1.1" id="Layer_1" xmlns="http://www.w3.org/2000/svg" xmlns:xlink="http://www.w3.org/1999/xlink" x="0px" y="0px"
	 width="64px" height="64px" viewBox="0 -47.5 110 110" enable-background="new 0 -47.5 110 110" xml:space="preserve">
<g id="Layer_1_1_">
	<path fill="#5490CC" d="M54.7480125,62.3293533C24.5125103,62.3293533,0,37.8168449,0,7.5813441
		s24.5125103-54.7480125,54.7480125-54.7480125s54.7480125,24.5125103,54.7480125,54.7480125
		S84.9835129,62.3293533,54.7480125,62.3293533z"/>
</g>
<path fill="#FFFFFF" d="M57.3321915,42.8328972c-0.7685852,0-1.5371704-0.2267342-2.1981506-0.6725121L30.5739021,20.3287239
	H19.2910728c-2.1750965,0-3.9351559-1.7600594-3.9351559-3.9351559V-1.2300889c0-2.1750958,1.7600594-3.9351556,3.9351559-3.9351556
	h11.2828293l24.5601387-21.8355026c0.6609802-0.4457798,1.4295654-0.6705914,2.1981506-0.6705914
	c0.6340828,0,1.2681656,0.1517963,1.8484497,0.4611511c1.283535,0.684042,2.0867081,2.0194588,2.0867081,3.4740047v62.6339226
	c0,1.4526253-0.8031731,2.7899628-2.0867081,3.4740067C58.6003571,42.6791801,57.9662743,42.8328972,57.3321915,42.8328972z"/>
<path display="none" fill="none" stroke="#FFFFFF" stroke-linecap="round" stroke-linejoin="round" stroke-miterlimit="10" d="
	M10.4203739,11.6528063c1.0766878-1.0560522,1.7462931-2.5255785,1.7462931-4.1528835s-0.6696053-3.0968323-1.7462931-4.1528835"/>
<path display="none" fill="none" stroke="#FFFFFF" stroke-linecap="round" stroke-linejoin="round" stroke-miterlimit="10" d="
	M9.3047342,10.2224741c0.660326-0.7168655,1.0669231-1.6710863,1.0669231-2.7225513S9.9650602,5.4942369,9.3047342,4.7773714"/>
<g>
	<defs>
		<polygon id="SVGID_1_" points="114.6666641,64.4584427 75.4305954,65.0667572 64.4809875,9.0998821 75.4305954,-36.8253746 
			114.6666641,-37.4336853 		"/>
	</defs>
	<clipPath id="SVGID_2_">
		<use xlink:href="#SVGID_1_"  overflow="visible"/>
	</clipPath>
	
		<circle clip-path="url(#SVGID_2_)" fill="none" stroke="#FFFFFF" stroke-width="7.2997346" stroke-linecap="round" stroke-linejoin="round" stroke-miterlimit="10" cx="52.3147583" cy="7.5813293" r="35.8903618"/>
	
		<circle clip-path="url(#SVGID_2_)" fill="none" stroke="#FFFFFF" stroke-width="7.2997346" stroke-linecap="round" stroke-linejoin="round" stroke-miterlimit="10" cx="52.3147583" cy="7.5813293" r="23.7241383"/>
</g>
<path fill="none" stroke="#FFFFFF" stroke-width="7.2997346" stroke-linecap="round" stroke-linejoin="round" stroke-miterlimit="10" d="
	M64.4809875,7.5807786"/>
</svg>
