<?xml version="1.0" encoding="utf-8"?>
<!-- Generator: Adobe Illustrator 18.1.1, SVG Export Plug-In . SVG Version: 6.00 Build 0)  -->
<svg version="1.1" id="Layer_1" xmlns="http://www.w3.org/2000/svg" xmlns:xlink="http://www.w3.org/1999/xlink" x="0px" y="0px"
	 width="70px" height="77.5px" viewBox="0 0 70 77.5" enable-background="new 0 0 70 77.5" xml:space="preserve">
<g>
	<defs>
		<rect id="SVGID_1_" x="4.0589271" y="14.569622" width="50.698616" height="59.2880516"/>
	</defs>
	<clipPath id="SVGID_2_">
		<use xlink:href="#SVGID_1_"  overflow="visible"/>
	</clipPath>
	
		<path clip-path="url(#SVGID_2_)" fill="none" stroke="#F1552A" stroke-width="8" stroke-linecap="round" stroke-linejoin="round" stroke-miterlimit="10" d="
		M38.9416962,60.7569771c-2.0332718-1.9137421-3.6098518-3.5997505-2.0848961-8.5208054
		c0.3387947-1.0022583,1.3293686-3.3944397,1.3293686-3.3944397s1.3427734,0.3529549,1.681572-1.2873955
		c0.3387947-1.6403542,1.6880226-6.2025833-0.6842957-5.2910957c0.3390465-2.7339211,2.3688431-7.1111298-2.8836136-10.7562656
		c-2.2040329-1.5298214-4.2323418-2.1588364-6.0476933-2.2517471c-0.1903706-0.0176201-0.390173-0.0122814-0.5872459-0.0154858
		c-0.2119637,0.0032043-0.4259148-0.0010662-0.6311779,0.017355c-1.7093678,0.1078625-3.6371536,0.7419491-5.8096676,2.2498779
		c-5.2527027,3.6451359-3.2261314,8.0223446-2.8870869,10.7562656c-2.3723164-0.9114876-1.0300388,3.6507416-0.6909962,5.2910957
		c0.3387966,1.6403503,1.6679192,1.2873955,1.6679192,1.2873955s0.9635201,2.3921814,1.3025646,3.3944397
		c1.5249538,4.9210548-0.1059818,6.6070633-2.1392536,8.5208054c-2.0332718,1.9137459-14.444622,5.2854881-14.444622,5.2854881
		l-1.6596956,7.2905426l20.9604568-0.0910416v-0.0875702l3.5234451,0.0875702l23.629076,0.0910416l0.4197044-7.2905426
		C52.9055595,66.0424652,40.974968,62.670723,38.9416962,60.7569771z"/>
	<path clip-path="url(#SVGID_2_)" fill="#FFFFFF" d="M29.0814438,72.7952347l-3.7481098-0.1003265v0.102066L5.1217937,72.8833466
		l1.1765704-6.4854355c1.9009643-0.5251923,12.4782524-3.4878654,14.4202194-5.3155479
		c1.9192848-1.8067474,3.9355488-3.673687,2.2919426-8.9787636c-0.3428535-1.0137329-1.2592392-3.3308296-1.2984982-3.4285393
		l-0.1393299-0.3664093l-0.3771877,0.1011963c-0.0008717,0-0.0738716,0.0174484-0.1820507,0.0174484
		c-0.4859276,0-0.7989788-0.3245316-0.9315834-0.9640045c-0.0401306-0.1971626-0.095459-0.4370728-0.1565266-0.7048988
		c-0.2617207-1.1358681-0.8058472-3.498333-0.3408566-4.0828438c0.0401306-0.0514717,0.0936489-0.0862961,0.1956539-0.1317291
		c0.1475449-0.0657234,0.3553677-0.0398407,0.5071659,0.0186081l0.558342,0.1488914l-0.065733-0.503376
		c-0.0549622-0.4466705-0.1544075-0.9360886-0.2599678-1.4586563c-0.5408897-2.6643143-1.2135067-5.9794426,2.9591923-8.8749466
		c1.9114323-1.327795,3.7897167-1.9020462,5.5825024-2.0154591C29.2134476,29.8457947,29.3591404,30,29.5039597,30h0.3227882
		c0.1299877,0,0.2599754-0.155077,0.3847294-0.1437359c1.9410954,0.099453,3.8978939,0.752552,5.8337536,2.0960503
		c4.1718254,2.8946323,3.4974594,6.1707706,2.9556961,8.8342152c-0.1064301,0.5234413-0.2050133,0.994236-0.2608452,1.4409065
		l-0.0462379,0.4780731l0.4466705-0.1552925c0.152668-0.0584488,0.3187141-0.0867691,0.5397224-0.0218086
		c0.1180191,0.034687,0.2218819,0.1064835,0.2541618,0.1474876c0.4632454,0.5818939-0.0820045,2.940258-0.3437271,4.0743828
		c-0.0628128,0.2713165-0.1186447,0.5135384-0.1596489,0.7141914c-0.1326065,0.6385994-0.450161,0.9629784-0.9439392,0.9629784
		c-0.1134109,0-0.1910553-0.0183945-0.1919289-0.019268l-0.3707695-0.08815l-0.1509247,0.3506851
		c-0.0410042,0.0985832-0.9997749,2.4174194-1.3400116,3.4224243c-1.5406609,4.9709473-0.0593224,6.8605652,2.2019424,8.9892273
		c1.9166679,1.8041267,11.9091606,4.7179489,13.9305153,5.2946091l-0.3966408,6.5072403L29.0814438,72.7952347z"/>
	
		<use xlink:href="#SVGID_1_"  overflow="visible" fill="none" stroke="#F1552A" stroke-width="5" stroke-linecap="round" stroke-linejoin="round" stroke-miterlimit="10"/>
</g>
</svg>
