<?xml version="1.0" encoding="UTF-8"?>
<!DOCTYPE svg PUBLIC "-//W3C//DTD SVG 1.1//EN" "http://www.w3.org/Graphics/SVG/1.1/DTD/svg11.dtd">
<svg version="1.1" xmlns="http://www.w3.org/2000/svg" xmlns:xlink="http://www.w3.org/1999/xlink" x="0" y="0" width="64" height="64" viewBox="0, 0, 64, 64">
  <g id="Layer_2">
    <path d="M64,32 C64,49.673 49.673,64 32,64 C14.327,64 0,49.673 0,32 C0,14.327 14.327,0 32,0 C49.673,0 64,14.327 64,32 z" fill="#4993E4"/>
  </g>
  <g id="Layer_3">
    <g>
      <path d="M42.253,15.462 C43.91,15.462 45.253,16.805 45.253,18.462 L45.253,45.72 C45.253,47.377 43.91,48.72 42.253,48.72 L23.747,48.72 C22.09,48.72 20.747,47.377 20.747,45.72 L20.747,45.211 L24.403,45.211 C26.946,45.211 29.007,43.15 29.007,40.607 C29.007,38.064 26.946,36.002 24.403,36.002 L20.747,36.002 L20.747,28.002 L24.403,28.002 C26.946,28.002 29.007,25.941 29.007,23.398 C29.007,20.855 26.946,18.793 24.403,18.793 L20.747,18.793 L20.747,18.462 C20.747,16.805 22.09,15.462 23.747,15.462 L42.253,15.462 z" fill="#FFFFFF"/>
      <path d="M24.238,38.698 C25.194,38.698 25.969,39.507 25.969,40.505 C25.969,41.503 25.194,42.312 24.238,42.312 L17.875,42.312 C16.92,42.312 16.145,41.503 16.145,40.505 C16.145,39.507 16.92,38.698 17.876,38.698 L24.238,38.698 z" fill="#FFFFFF"/>
      <path d="M24.238,21.625 C25.194,21.625 25.969,22.434 25.969,23.432 C25.969,24.431 25.194,25.24 24.238,25.24 L17.875,25.24 C16.92,25.24 16.145,24.431 16.145,23.432 C16.145,22.434 16.92,21.625 17.876,21.625 L24.238,21.625 z" fill="#FFFFFF"/>
    </g>
  </g>
</svg>
