<?xml version="1.0" encoding="utf-8"?>
<!-- Generator: Adobe Illustrator 17.0.0, SVG Export Plug-In . SVG Version: 6.00 Build 0)  -->
<!DOCTYPE svg PUBLIC "-//W3C//DTD SVG 1.1//EN" "http://www.w3.org/Graphics/SVG/1.1/DTD/svg11.dtd">
<svg version="1.1" xmlns="http://www.w3.org/2000/svg" xmlns:xlink="http://www.w3.org/1999/xlink" x="0px" y="0px" width="64px"
	 height="64px" viewBox="0 0 64 64" enable-background="new 0 0 64 64" xml:space="preserve">
<g id="Layer_2">
	<circle fill="#4993E4" cx="32" cy="32" r="32"/>
</g>
<g id="Layer_3">
	<rect x="14.25" y="17.75" fill="#FFFFFF" width="34.5" height="7"/>
	<rect x="14.25" y="28.25" fill="#FFFFFF" width="34.5" height="18"/>
	<g>
		<path fill="#FFFFFF" d="M41.416,51.513c-1.1,0.001-1.999-0.645-2.468-1.769l-0.203-0.494c-0.271-0.659-0.74-1.806-1.097-2.274
			c-0.225,0.199-0.443,0.53-0.672,0.878c-0.563,0.854-1.415,2.147-3.174,2.308c-0.131,0.012-0.261,0.018-0.391,0.018
			c-1.395,0-2.769-0.661-3.676-1.768c-0.774-0.943-1.092-2.112-0.874-3.205c0.323-1.619,1.567-2.322,2.391-2.787
			c0.217-0.122,0.419-0.236,0.588-0.352c-0.501-0.384-1.372-0.862-1.804-1.1c-0.556-0.305-0.995-0.546-1.308-0.797
			c-1.293-1.035-1.946-3.052,0.099-5.607l0.302-0.381c1.183-1.493,2.301-2.904,3.893-2.904c0.532,0,1.056,0.173,1.515,0.501
			c0.523,0.373,0.947,0.921,1.396,1.5c0.289,0.373,0.803,1.037,1.106,1.234c0.003-0.003,0.006-0.005,0.009-0.008
			c0.274-0.224,0.596-0.565,0.573-0.921c-0.019-0.283-0.248-0.603-0.585-0.813c-0.771-0.483-1.938-1.212-2.142-2.547
			c-0.189-1.241,0.555-2.279,1.132-2.952c0.454-0.531,2.829-3.177,4.924-3.177c0.696,0,1.307,0.284,1.719,0.8
			c0.262,0.326,0.514,0.799,0.936,1.606c0.263,0.501,0.771,1.473,1.199,2.117c0.044-0.063,0.087-0.124,0.127-0.181
			c0.845-1.202,2.122-3.02,4.175-3.02c0.91,0,1.813,0.369,2.686,1.096c1.63,1.358,1.816,2.762,1.686,3.701
			c-0.236,1.697-1.643,2.946-2.646,3.589c0.17,0.427,0.543,0.975,0.933,1.092c0.873,0.262,2.691,0.808,3.169,2.339
			c0.285,0.914,0.029,1.879-0.762,2.868c-1.764,2.204-3.647,4.243-5.477,4.243c-0.557,0-1.913-0.203-2.468-2.091
			c-0.05-0.169-0.316-1.017-0.656-1.017c-0.207,0-0.614,0.146-1.083,0.557c-0.07,0.062-0.086,0.08-0.063,0.19
			c0.064,0.319,0.442,0.777,0.883,0.924c1.313,0.438,2.246,1.468,2.435,2.688c0.196,1.267-0.421,2.523-1.693,3.448
			c-0.216,0.157-0.437,0.324-0.66,0.493C44.104,50.509,42.774,51.513,41.416,51.513z"/>
		<path fill="#4993E4" d="M40.953,25.597c0.229,0,0.417,0.074,0.547,0.237c0.612,0.765,2.209,4.766,3.37,4.766
			c0.103,0,0.202-0.031,0.297-0.099c0.918-0.656,2.042-3.581,3.941-3.581c0.515,0,1.086,0.215,1.726,0.748
			c3,2.5-0.583,4.833-1.333,5.167c-0.75,0.333,0.167,3,1.833,3.5c1.667,0.5,3,1.167,1.667,2.833c-0.992,1.24-2.999,3.68-4.305,3.68
			c-0.449,0-0.815-0.288-1.028-1.013c-0.452-1.538-1.249-2.094-2.095-2.094c-0.713,0-1.462,0.394-2.071,0.927
			c-1.333,1.167-0.167,3.167,1.333,3.667s2.167,2.167,0.333,3.5c-1.276,0.928-2.714,2.179-3.751,2.179
			c-0.453,0-0.829-0.238-1.082-0.846c-0.727-1.745-1.454-3.806-2.624-3.807c-0.171,0-0.352,0.044-0.543,0.14
			c-1.5,0.75-1.667,3-3.5,3.167c-0.085,0.008-0.171,0.012-0.256,0.012c-1.744,0-3.395-1.589-3.078-3.178
			c0.333-1.667,2.333-1.667,3.167-3c0.838-1.341-3-2.833-3.833-3.5c-0.833-0.667-1-1.833,0.333-3.5
			c1.089-1.361,2.066-2.722,3.023-2.722c0.215,0,0.429,0.069,0.643,0.222c0.957,0.684,2.026,3.05,3.392,3.05
			c0.299,0,0.612-0.113,0.942-0.383c1.833-1.5,1.167-3.333-0.167-4.167c-1.333-0.833-2.167-1.5-0.667-3.25
			C38.373,26.842,40.011,25.597,40.953,25.597 M40.953,22.597c-2.61,0-5.11,2.588-6.064,3.701c-0.395,0.46-1.507,1.758-1.523,3.496
			c-0.114-0.01-0.228-0.015-0.343-0.015c-2.317,0-3.778,1.845-5.068,3.472l-0.299,0.376c-1.039,1.299-1.589,2.608-1.635,3.892
			c-0.053,1.488,0.592,2.882,1.77,3.825c0.347,0.278,0.746,0.511,1.23,0.779c-0.701,0.612-1.371,1.49-1.631,2.79
			c-0.307,1.535,0.125,3.158,1.185,4.451c1.189,1.45,2.996,2.315,4.834,2.315c0.175,0,0.352-0.008,0.527-0.024
			c1.639-0.149,2.71-0.982,3.43-1.808l0.195,0.474c0.702,1.686,2.142,2.692,3.851,2.692c1.861,0,3.463-1.21,4.877-2.277
			c0.216-0.163,0.429-0.324,0.639-0.476c1.603-1.166,2.439-2.769,2.34-4.452c2.088-0.288,3.956-2.123,6.071-4.766
			c1.397-1.746,1.328-3.276,1.023-4.252c-0.533-1.709-2.015-2.548-3.163-2.993c0.844-0.87,1.571-2.007,1.762-3.375
			c0.15-1.077,0.062-3.166-2.21-5.059c-1.149-0.958-2.376-1.443-3.646-1.443c-1.83,0-3.149,0.956-4.113,2.001
			c-0.021-0.04-0.041-0.078-0.06-0.114c-0.423-0.808-0.728-1.391-1.092-1.847C43.15,23.093,42.096,22.597,40.953,22.597
			L40.953,22.597z"/>
	</g>
</g>
</svg>
