<?xml version="1.0" encoding="utf-8"?>
<!-- Generator: Adobe Illustrator 17.0.0, SVG Export Plug-In . SVG Version: 6.00 Build 0)  -->
<!DOCTYPE svg PUBLIC "-//W3C//DTD SVG 1.1//EN" "http://www.w3.org/Graphics/SVG/1.1/DTD/svg11.dtd">
<svg version="1.1" xmlns="http://www.w3.org/2000/svg" xmlns:xlink="http://www.w3.org/1999/xlink" x="0px" y="0px" width="64px"
	 height="64px" viewBox="0 0 64 64" enable-background="new 0 0 64 64" xml:space="preserve">
<g id="Layer_2">
	<circle fill="#4993E4" cx="32" cy="32" r="32"/>
</g>
<g id="Layer_3">
	<g>
		<path fill="#FFFFFF" d="M24.601,28.86l-1.444,4.753h-3.161l5.376-16.773h3.907l5.451,16.773h-3.286l-1.518-4.753H24.601z
			 M29.404,26.546l-1.319-4.131c-0.323-1.021-0.597-2.165-0.846-3.136h-0.05c-0.249,0.971-0.498,2.14-0.796,3.136l-1.294,4.131
			H29.404z"/>
	</g>
	<rect x="20.333" y="43.917" fill="#FFFFFF" width="24.333" height="3.167"/>
	<rect x="20.333" y="37.167" fill="#FFFFFF" width="24.333" height="3.167"/>
	<rect x="36.667" y="30" fill="#FFFFFF" width="8" height="3.167"/>
	<rect x="34.25" y="23" fill="#FFFFFF" width="10.417" height="3.167"/>
	<rect x="32.583" y="16" fill="#FFFFFF" width="12.083" height="3.167"/>
</g>
</svg>
