<?xml version="1.0" encoding="UTF-8"?>
<!DOCTYPE svg PUBLIC "-//W3C//DTD SVG 1.1//EN" "http://www.w3.org/Graphics/SVG/1.1/DTD/svg11.dtd">
<svg version="1.1" xmlns="http://www.w3.org/2000/svg" xmlns:xlink="http://www.w3.org/1999/xlink" x="0" y="0" width="64" height="64" viewBox="0, 0, 64, 64">
  <g id="Layer_2">
    <path d="M64,32 C64,49.673 49.673,64 32,64 C14.327,64 0,49.673 0,32 C0,14.327 14.327,0 32,0 C49.673,0 64,14.327 64,32 z" fill="#4993E4"/>
  </g>
  <g id="Layer_3">
    <path d="M32,16.7 C40.45,16.7 47.3,23.55 47.3,32 C47.3,40.45 40.45,47.3 32,47.3 C23.55,47.3 16.7,40.45 16.7,32 C16.7,23.55 23.55,16.7 32,16.7 z M34.562,28.881 C33.675,29.172 34.016,28.964 33.479,29.39 L29.152,33.766 C28.336,34.592 28.546,35.972 29.572,36.516 L39.022,41.533 C40.541,42.339 42.18,40.681 41.357,39.172 L36.233,29.779 C35.81,29.184 35.325,28.868 34.562,28.881 z" fill="#FFFFFF"/>
  </g>
</svg>
