<?xml version="1.0" encoding="UTF-8"?>
<!DOCTYPE svg PUBLIC "-//W3C//DTD SVG 1.1//EN" "http://www.w3.org/Graphics/SVG/1.1/DTD/svg11.dtd">
<svg version="1.1" xmlns="http://www.w3.org/2000/svg" xmlns:xlink="http://www.w3.org/1999/xlink" x="0px" y="0px" width="64" height="80" viewBox="0, 0, 64, 80">
  <g id="Layer 2">
    <path d="M-0.14,15.76 L64.14,15.76 L64.14,80 L-0.14,80 z" fill="#E5D9C0"/>
  </g>
  <g id="Layer 4">
    <path d="M29.39,2.692 C32.718,2.821 36.136,3.562 38.852,5.615 C41.25,7.429 41.654,8.075 43.312,10.059 C45.322,12.741 45.803,16.081 46.244,19.309 L46.263,19.309 L46.263,19.482 L46.263,19.482 L46.263,19.482 L46.263,55.675 L46.263,55.677 C46.182,57.276 46.223,57.812 45.668,59.609 C44.661,62.872 42.344,65.678 39.344,67.302 C37.185,68.471 35.434,68.777 33.042,68.898 C31.443,68.817 30.907,68.858 29.11,68.304 C25.847,67.297 23.041,64.98 21.416,61.979 C20.248,59.821 19.941,58.069 19.821,55.677 L19.821,55.674 L19.821,26.883 L19.843,26.883 C19.887,26.011 19.851,26.452 19.953,25.561 C20.137,24.688 20.326,23.805 20.675,22.983 C21.626,20.745 23.413,18.826 25.632,17.818 C26.697,17.333 27.714,17.159 28.85,16.936 C32.402,16.714 35.096,17.895 37.564,20.456 C37.864,20.768 38.081,21.151 38.34,21.498 C39.454,23.215 39.822,24.945 39.911,26.919 L39.91,26.92 L39.91,55.72 L34.938,55.72 L34.938,26.934 C34.869,25.443 34.262,23.869 33.044,22.936 C32.755,22.714 31.265,22.032 30.897,21.957 C30.562,21.888 30.216,21.888 29.876,21.854 C26.914,21.996 24.999,23.935 24.811,26.919 L24.812,26.934 L24.793,26.934 L24.793,55.72 L24.792,55.72 C24.78,56.544 24.944,57.342 25.161,58.131 C25.951,60.692 28.027,62.768 30.588,63.558 C31.71,63.904 32.044,63.879 33.042,63.929 C37.803,63.75 41.053,60.45 41.292,55.72 L41.29,55.72 L41.29,19.309 L41.296,19.309 C41.169,15.074 39.266,12.351 36.191,9.737 C35.818,9.432 35.375,9.227 34.966,8.972 C33.254,8.054 31.288,7.828 29.39,7.661 C26.811,7.769 24.472,8.48 22.367,10.023 C20.453,11.505 18.909,13.452 18.301,15.835 L12.961,15.835 C13.652,12.162 16.027,9.299 18.571,6.717 C19.437,5.903 20.479,5.153 21.553,4.624 C23.489,3.669 25.563,3.201 27.667,2.779 z" fill="#404040"/>
  </g>
  <defs/>
</svg>
