<?xml version="1.0" encoding="utf-8"?>
<!-- Generator: Adobe Illustrator 18.0.0, SVG Export Plug-In . SVG Version: 6.00 Build 0)  -->
<!DOCTYPE svg PUBLIC "-//W3C//DTD SVG 1.1//EN" "http://www.w3.org/Graphics/SVG/1.1/DTD/svg11.dtd">
<svg version="1.1" id="Layer_1" xmlns="http://www.w3.org/2000/svg" xmlns:xlink="http://www.w3.org/1999/xlink" x="0px" y="0px"
	 width="64px" height="64px" viewBox="-19.5 -19.5 64 64" enable-background="new -19.5 -19.5 64 64" xml:space="preserve">
<rect x="-19.5" y="-19.5" fill="#6AA758" width="64" height="64"/>
<g>
	<path fill="#FFFFFF" d="M29.4375-5.0234375L17.7890625,22.890625c-0.6875,1.625-1.4570313,2.90625-2.3085938,3.84375
		s-1.7460938,1.6484375-2.6835938,2.1328125s-1.875,0.8085938-2.8125,0.9726563S8.0625,30.0859375,7.03125,30.0859375
		c-1.078125,0-2.3320313-0.0234375-3.7617188-0.0703125S0.8828125,29.921875,0.3984375,29.875v-7.40625H0.9375
		C1.078125,22.5,1.296875,22.5390625,1.59375,22.5859375s0.671875,0.09375,1.125,0.140625
		c0.375,0.03125,0.78125,0.0625,1.21875,0.09375s0.8359375,0.046875,1.1953125,0.046875
		c1.046875,0,2.0351563-0.1289063,2.9648438-0.3867188S9.6484375,21.78125,9.9609375,21.15625L-2.953125-5.0234375h9.46875
		l7.4765625,16.359375l6.328125-16.359375H29.4375z"/>
</g>
</svg>
