<?xml version="1.0" encoding="UTF-8"?>
<!DOCTYPE svg PUBLIC "-//W3C//DTD SVG 1.1//EN" "http://www.w3.org/Graphics/SVG/1.1/DTD/svg11.dtd">
<svg version="1.1" xmlns="http://www.w3.org/2000/svg" xmlns:xlink="http://www.w3.org/1999/xlink" x="0px" y="0px" width="64" height="116" viewBox="0, 0, 64, 116">
  <g id="Layer 2">
    <path d="M-0.14,-0 L64.14,-0 L64.14,18.103 L-0.14,18.103 z" fill="url(#Gradient_1)"/>
    <path d="M-0.28,116 L64,116 L64,65.294 L-0.28,65.294 z" fill="url(#Gradient_2)"/>
  </g>
  <g id="Layer 3">
    <path d="M-0.105,0 L64.105,0 L64.105,17.47 L-0.105,17.47 z" fill="url(#Gradient_3)"/>
    <path d="M-0.07,81.71 L64.07,81.71 L64.07,116 L-0.07,116 z" fill="url(#Gradient_4)"/>
  </g>
  <g id="Layer 2">
    <path d="M-0.14,17.47 L64.14,17.47 L64.14,81.71 L-0.14,81.71 z" fill="#5E4A7F"/>
  </g>
  <g id=" ">
    <path d="M9.135,34.976 L38.229,34.976 L38.229,64.204 L9.135,64.204 z" fill="#FFFFFF"/>
    <path d="M68.868,34.481 L69.75,34.481 L69.75,34.75 L68.868,34.75 z" fill="#FFFFFF"/>
    <path d="M42.401,38.341 L46.643,38.341 L46.643,60.684 L42.401,60.684 z" fill="#FFFFFF"/>
    <path d="M50.261,40.596 L53.888,40.596 L53.888,58.584 L50.261,58.584 z" fill="#FFFFFF"/>
  </g>
  <defs>
    <linearGradient id="Gradient_1" gradientUnits="userSpaceOnUse" x1="32.333" y1="20.252" x2="32.333" y2="2.415">
      <stop offset="0" stop-color="#000000" stop-opacity="0.3"/>
      <stop offset="0.109" stop-color="#000000" stop-opacity="0.2"/>
      <stop offset="0.498" stop-color="#000000" stop-opacity="0"/>
    </linearGradient>
    <linearGradient id="Gradient_2" gradientUnits="userSpaceOnUse" x1="32.193" y1="72.058" x2="32.193" y2="122.018">
      <stop offset="0" stop-color="#000000" stop-opacity="0.5"/>
      <stop offset="0.216" stop-color="#000000" stop-opacity="0.2"/>
      <stop offset="0.502" stop-color="#000000" stop-opacity="0"/>
    </linearGradient>
    <linearGradient id="Gradient_3" gradientUnits="userSpaceOnUse" x1="0.701" y1="10.937" x2="63.965" y2="10.937">
      <stop offset="0" stop-color="#FFFFFF"/>
      <stop offset="1" stop-color="#FFFFFF" stop-opacity="0"/>
    </linearGradient>
    <linearGradient id="Gradient_4" gradientUnits="userSpaceOnUse" x1="0.735" y1="103.177" x2="63.93" y2="103.177">
      <stop offset="0" stop-color="#FFFFFF"/>
      <stop offset="1" stop-color="#FFFFFF" stop-opacity="0"/>
    </linearGradient>
  </defs>
</svg>
