<?xml version="1.0" encoding="utf-8"?>
<!-- Generator: Adobe Illustrator 16.0.0, SVG Export Plug-In . SVG Version: 6.00 Build 0)  -->
<!DOCTYPE svg PUBLIC "-//W3C//DTD SVG 1.1//EN" "http://www.w3.org/Graphics/SVG/1.1/DTD/svg11.dtd">
<svg version="1.1" id="Layer_1" xmlns="http://www.w3.org/2000/svg" xmlns:xlink="http://www.w3.org/1999/xlink" x="0px" y="0px"
	 width="64px" height="64px" viewBox="0 0 64 64" enable-background="new 0 0 64 64" xml:space="preserve">
<g id="Layer_2">
	<g>
		
			<linearGradient id="SVGID_1_" gradientUnits="userSpaceOnUse" x1="-1627" y1="759.3799" x2="-1562.7197" y2="759.3799" gradientTransform="matrix(1 0 0 -1 1627 791.5)">
			<stop  offset="0" style="stop-color:#EB9C4E"/>
			<stop  offset="1" style="stop-color:#F18D37"/>
		</linearGradient>
		<path fill="url(#SVGID_1_)" d="M0,0h64.28v64.24H0V0z"/>
		<path fill="#FFFFFF" d="M21.659,13.744h12.153c1.736,0,3.413,0.17,5.029,0.51c1.617,0.341,3.039,0.911,4.264,1.711
			c1.226,0.8,2.205,1.873,2.937,3.217c0.731,1.344,1.099,3.021,1.099,5.03c0,2.281-0.393,4.119-1.175,5.515
			c-0.783,1.395-1.839,2.476-3.166,3.242s-2.868,1.285-4.622,1.559c-1.752,0.271-3.582,0.408-5.488,0.408h-4.597v14.961h-6.434
			V13.744z M31.974,29.42c0.919,0,1.873-0.034,2.86-0.102c0.986-0.068,1.897-0.272,2.732-0.612c0.834-0.341,1.514-0.852,2.041-1.532
			c0.528-0.681,0.793-1.635,0.793-2.86c0-1.124-0.238-2.017-0.715-2.681s-1.09-1.174-1.84-1.532
			c-0.748-0.357-1.582-0.587-2.502-0.689c-0.918-0.102-1.804-0.153-2.654-0.153h-4.597V29.42H31.974z"/>
	</g>
</g>
</svg>
