<?xml version="1.0" encoding="utf-8"?>
<!-- Generator: Adobe Illustrator 18.1.1, SVG Export Plug-In . SVG Version: 6.00 Build 0)  -->
<svg version="1.1" id="Layer_1" xmlns="http://www.w3.org/2000/svg" xmlns:xlink="http://www.w3.org/1999/xlink" x="0px" y="0px"
	 width="102px" height="102px" viewBox="0 0 102 102" enable-background="new 0 0 102 102" xml:space="preserve">
<g id="Layer_2_1_">
	<path fill="#CF2027" d="M17,1h85v100H17c-8.2842712,0-15-6.7157288-15-15V16C2,7.7157288,8.7157288,1,17,1z"/>
</g>
<g>
	<path fill="none" stroke="#FFFFFF" stroke-width="7" stroke-linecap="round" stroke-miterlimit="10" d="M55.4982681,61.4839172
		c-0.0177116,1.6975288-0.5221291,3.4058685-1.5544167,4.8996658l-8.6764793,12.5555573
		c-2.7571297,3.9897842-8.2773361,4.9983215-12.2671204,2.2411957l-2.2165508-1.5317383
		c-3.9897861-2.7571335-4.9983234-8.2773361-2.2411938-12.267128l8.6764793-12.5555534
		c0.9924469-1.4361534,2.3429031-2.4860268,3.8511238-3.1130371"/>
	<path fill="none" stroke="#FFFFFF" stroke-width="7" stroke-linecap="round" stroke-miterlimit="10" d="M48.2396774,40.8750916
		c-0.2856789-2.0533218,0.1308479-4.1427689,1.3389511-5.8909912l8.6764793-12.5555553
		c2.7571297-3.9897861,8.6345253-4.7514896,13.0608788-1.6926727l2.4590836,1.6993427
		c4.4263458,3.0588169,5.7920761,8.8258553,3.0349426,12.8156433l-8.6764755,12.5555534
		c-1.1711349,1.6947289-2.9052505,2.8070221-4.852005,3.2914848"/>
	
		<line fill="none" stroke="#FFFFFF" stroke-width="7" stroke-linecap="round" stroke-miterlimit="10" x1="45.30896" y1="60.9990196" x2="58.8606567" y2="41.3886375"/>
</g>
</svg>
