<?xml version="1.0" encoding="UTF-8"?>
<!DOCTYPE svg PUBLIC "-//W3C//DTD SVG 1.1//EN" "http://www.w3.org/Graphics/SVG/1.1/DTD/svg11.dtd">
<svg version="1.1" xmlns="http://www.w3.org/2000/svg" xmlns:xlink="http://www.w3.org/1999/xlink" x="0" y="0" width="64" height="64" viewBox="0, 0, 64, 64">
  <g id="Layer_2">
    <path d="M-0.14,0 L64.14,0 L64.14,64.24 L-0.14,64.24 z" fill="#E2EFF1"/>
  </g>
  <g id="Layer_3">
    <path d="M32,15.033 C41.37,15.033 48.967,22.63 48.967,32 C48.967,41.37 41.37,48.967 32,48.967 C22.63,48.967 15.033,41.37 15.033,32 C15.033,22.63 22.63,15.033 32,15.033 z M34.841,28.541 C33.857,28.864 34.236,28.633 33.64,29.106 L28.842,33.958 C27.937,34.874 28.17,36.405 29.308,37.008 L39.787,42.571 C41.471,43.465 43.289,41.627 42.376,39.953 L36.694,29.537 C36.225,28.877 35.687,28.527 34.841,28.541 z" fill="#5C5070"/>
  </g>
</svg>
