<?xml version="1.0" encoding="UTF-8"?>
<!DOCTYPE svg PUBLIC "-//W3C//DTD SVG 1.1//EN" "http://www.w3.org/Graphics/SVG/1.1/DTD/svg11.dtd">
<svg version="1.1" xmlns="http://www.w3.org/2000/svg" xmlns:xlink="http://www.w3.org/1999/xlink" x="0px" y="0px" width="64" height="64" viewBox="0, 0, 64, 64">
  <g id="Layer 2">
    <path d="M-0.14,0 L64.14,0 L64.14,64.24 L-0.14,64.24 z" fill="#E2EFF1"/>
  </g>
  <g id="Layer 4">
    <path d="M18.506,12.062 C18.7,11.903 18.867,11.704 19.088,11.586 C20.632,10.765 21.631,10.765 23.175,11.586 C23.397,11.704 23.576,11.889 23.758,12.062 C24.285,12.563 24.787,13.091 25.302,13.606 L12.577,26.331 L11.033,24.787 C10.874,24.593 10.675,24.426 10.557,24.204 C9.736,22.66 9.736,21.661 10.557,20.117 C10.675,19.896 10.874,19.729 11.033,19.535 z" fill="#CC3366"/>
    <path d="M28.15,16.627 L47.922,36.399 L43.808,36.572 L43.417,40.485 L38.233,39.8 L39.113,45.962 L35.005,45.571 L35.251,49.177 L15.425,29.352 z" fill="#CC3366"/>
    <path d="M41.492,50.221 L49.198,42.516 L51.048,50.723 C51.264,51.684 50.661,52.287 49.7,52.071 z z" fill="#CC3366"/>
  </g>
  <defs/>
</svg>
