<?xml version="1.0" encoding="utf-8"?>
<!-- Generator: Adobe Illustrator 17.0.0, SVG Export Plug-In . SVG Version: 6.00 Build 0)  -->
<!DOCTYPE svg PUBLIC "-//W3C//DTD SVG 1.1//EN" "http://www.w3.org/Graphics/SVG/1.1/DTD/svg11.dtd">
<svg version="1.1" xmlns="http://www.w3.org/2000/svg" xmlns:xlink="http://www.w3.org/1999/xlink" x="0px" y="0px" width="64px"
	 height="64px" viewBox="0 0 64 64" enable-background="new 0 0 64 64" xml:space="preserve">
<g id="Layer_2">
	<circle fill="#4993E4" cx="32" cy="32" r="32"/>
</g>
<g id="Layer_3">
	<rect x="19.667" y="15.667" fill="#FFFFFF" width="2.917" height="32.5"/>
	<g>
		<path fill="#FFFFFF" d="M35.373,27.487h-2.794v4.176h2.794c0.512,0,0.926-0.09,1.242-0.269c0.317-0.179,0.546-0.432,0.687-0.758
			s0.212-0.694,0.212-1.104c0-0.633-0.185-1.133-0.553-1.498S36.063,27.487,35.373,27.487z"/>
		<path fill="#FFFFFF" d="M25.5,15.75v32.417h19.667V15.75H25.5z M40.101,31.696c-0.24,0.605-0.578,1.081-1.013,1.425
			c-0.436,0.346-0.979,0.608-1.632,0.787c-0.461,0.129-1.085,0.192-1.872,0.192h-3.005v5.068h-2.947V25.058h6.258
			c0.826,0,1.463,0.066,1.91,0.197c0.448,0.131,0.822,0.309,1.123,0.533c0.301,0.224,0.554,0.479,0.759,0.763
			s0.361,0.59,0.471,0.917c0.204,0.614,0.307,1.283,0.307,2.006C40.46,30.351,40.34,31.091,40.101,31.696z"/>
	</g>
</g>
</svg>
