<?xml version="1.0" encoding="utf-8"?>
<!-- Generator: Adobe Illustrator 17.0.0, SVG Export Plug-In . SVG Version: 6.00 Build 0)  -->
<!DOCTYPE svg PUBLIC "-//W3C//DTD SVG 1.1//EN" "http://www.w3.org/Graphics/SVG/1.1/DTD/svg11.dtd">
<svg version="1.1" xmlns="http://www.w3.org/2000/svg" xmlns:xlink="http://www.w3.org/1999/xlink" x="0px" y="0px" width="64px"
	 height="64px" viewBox="0 0 64 64" enable-background="new 0 0 64 64" xml:space="preserve">
<g id="Layer_2">
	<circle fill="#4993E4" cx="32" cy="32" r="32"/>
</g>
<g id="Layer_3">
	<path fill="#FFFFFF" d="M44.5,26.125c4.125-1.5,12.75-3.5,9.375-8c-2.528-3.371-8.001-1.972-13.373,1.306
		c-1.114-2.529-2.384-3.587-2.471-3.657c-0.255-0.204-0.582-0.302-0.905-0.268l-21.25,2.125c-0.196,0.02-0.369,0.096-0.527,0.195
		c-0.757,0.065-1.731,0.504-2.223,2.172c-0.875,2.962,1,4.655,3.125,4.373c0.989-0.131,1.801-0.168,2.396-0.172
		c0.859,3.34,0.705,8.068,0.568,12.182c-0.037,1.113-0.073,2.197-0.09,3.223c-0.068,4.244,1.771,7.019,3.326,8.599
		c2.081,2.114,4.562,3.078,5.986,3.078c0.213,0,0.413-0.021,0.595-0.063c1.962-0.452,12.796-5.797,12.902-5.85
		c0.184-0.092,0.413-0.191,0.663-0.301c1.14-0.497,2.5-1.102,3.07-2.129c2.481-1.601,1.743-3.154,1.208-3.688
		c-0.505-0.505-1.107-0.753-2.568-0.344c-0.846-1.978-1.696-5.89-2.132-11.666C42.907,26.818,43.67,26.427,44.5,26.125z
		 M28.437,48.781c-0.598,0-2.487-0.587-4.204-2.332c-1.22-1.239-2.662-3.426-2.607-6.804c0.016-1.012,0.052-2.082,0.088-3.181
		c0.207-6.218,0.436-13.089-2.345-16.67l17.415-1.742c0.373,0.431,1.016,1.314,1.603,2.777c-1.074,0.756-2.129,1.565-3.136,2.42
		c-6.625,5.625-7.375,10.5-7.375,10.5l-2,3.5L26,39l3.5-3.875c0,0,2.125-1.125,5.125-2.625c1.703-0.851,3.333-2.304,5.171-3.678
		c0.324,3.557,0.955,8.045,2.167,10.933c-3.339,1.287-10.584,4.024-14.088,5.119c2.062,1.152,2.324,2.391,2.052,3.363
		c-0.683,0.288-1.195,0.484-1.443,0.542L28.437,48.781z"/>
</g>
</svg>
