<?xml version="1.0" encoding="utf-8"?>
<!-- Generator: Adobe Illustrator 17.0.0, SVG Export Plug-In . SVG Version: 6.00 Build 0)  -->
<!DOCTYPE svg PUBLIC "-//W3C//DTD SVG 1.1//EN" "http://www.w3.org/Graphics/SVG/1.1/DTD/svg11.dtd">
<svg version="1.1" xmlns="http://www.w3.org/2000/svg" xmlns:xlink="http://www.w3.org/1999/xlink" x="0px" y="0px" width="64px"
	 height="64px" viewBox="0 0 64 64" enable-background="new 0 0 64 64" xml:space="preserve">
<g id="Layer_2">
	<circle fill="#4993E4" cx="32" cy="32" r="32"/>
</g>
<g id="Layer_3">
	<g>
		<path fill="#FFFFFF" d="M49.632,15.066c-0.092-0.231-0.337-0.361-0.584-0.302c-0.054,0.013-3.645,0.877-8.755,1.478
			c-2.383-0.356-6.291-1.129-8.293-2.575c0,0-1.599,0.906-4,1.583c-1.489,0.42-3.449,0.798-4.723,1.024
			c-2.984-0.431-5.668-1.116-8.005-2.071c-0.225-0.091-0.486-0.008-0.615,0.201c-0.128,0.208-0.087,0.479,0.098,0.639
			c0.037,0.032,0.246,0.207,0.637,0.464l-0.105,6.193c-0.643,0.811-1.652,2.222-1.538,2.966c0.167,1.083,0.5,1.083,2.167,1.083
			c1.667,0,2.417,0.25,2.333-1c-0.059-0.889-1.264-2.352-1.961-3.132l0.094-5.527c1.515,0.81,4.17,1.885,8.22,2.501v5.491
			c0,0-0.917,0.417-1.833-0.083c-0.917-0.5-1.917-1.333-1.917-1.333s-0.5,2.083,0.667,3.417c-1.833,1.583-2.917,5-3.083,8.917
			c-0.167,3.917,0.167,6.167,3.333,6.333c3.167,0.167,4.917-0.417,7.083,0.583s3.167,1,3.167,1s-1.917-1.167-1.75-3
			c0.167-1.833,0.167-2.5,0.167-2.5s-1.083,0.833-3.167,0.917c-2.083,0.083-4.333-0.333-5.667-2.917
			c-1.333-2.583-0.833-6.833,1.25-7.917c3.667,2.167,8.583,2,8.583,2h1.397c0,0,4.917,0.167,8.583-2
			c2.083,1.083,2.583,5.333,1.25,7.917c-1.333,2.583-3.583,3-5.667,2.917c-2.083-0.083-3.167-0.917-3.167-0.917s0,0.667,0.167,2.5
			c0.167,1.833-1.75,3-1.75,3s1,0,3.167-1c2.167-1,3.917-0.417,7.083-0.583c3.167-0.167,3.5-2.417,3.333-6.333
			c-0.167-3.917-1.25-7.333-3.083-8.917c1.167-1.333,0.667-3.417,0.667-3.417S42.417,23.5,41.5,24s-1.833,0.083-1.833,0.083v-5.586
			c6.338-0.944,9.565-2.71,9.745-2.811C49.63,15.563,49.724,15.298,49.632,15.066z"/>
		<ellipse fill="#FFFFFF" cx="37.792" cy="35.125" rx="1.458" ry="2.542"/>
		<ellipse fill="#FFFFFF" cx="26.917" cy="35.125" rx="1.458" ry="2.542"/>
		<path fill="#FFFFFF" d="M32,46.993v0.083c0,0-3.25-2-8-2.083s-9.25,2-9.25,2v3.174c0,0,4.5-2.083,9.25-2
			c4.75,0.083,8,2.083,8,2.083v-0.083c0,0,4.5-2.083,9.25-2c4.75,0.083,8,2.083,8,2.083v-3.174c0,0-3.25-2-8-2.083
			S32,46.993,32,46.993z"/>
	</g>
</g>
</svg>
