<?xml version="1.0" encoding="utf-8"?>
<!-- Generator: Adobe Illustrator 17.0.0, SVG Export Plug-In . SVG Version: 6.00 Build 0)  -->
<!DOCTYPE svg PUBLIC "-//W3C//DTD SVG 1.1//EN" "http://www.w3.org/Graphics/SVG/1.1/DTD/svg11.dtd">
<svg version="1.1" xmlns="http://www.w3.org/2000/svg" xmlns:xlink="http://www.w3.org/1999/xlink" x="0px" y="0px" width="64px"
	 height="64px" viewBox="0 0 64 64" enable-background="new 0 0 64 64" xml:space="preserve">
<g id="Layer_2">
	<circle fill="#4993E4" cx="32" cy="32" r="32"/>
</g>
<g id="Layer_3">
	<path fill="#FFFFFF" d="M49.815,32.941l3.919-0.609l-3.863-0.588c-0.028-9.866-7.804-17.922-17.551-18.439L31.8,9.584l-0.459,3.672
		c-0.003,0-0.007,0-0.01,0c-10.095,0-18.317,8.114-18.522,18.161l-3.226,0.501l3.238,0.493c0.323,9.798,8.267,17.684,18.089,17.907
		l0.607,4.349l0.545-4.364C41.563,49.928,49.234,42.388,49.815,32.941z M47.855,31.437l-11.114-1.692l5.634-8.664l-8.172,5.708
		l-1.602-11.47C41.01,15.963,47.67,22.909,47.855,31.437z M28.875,32.219c0-1.605,1.301-2.906,2.906-2.906s2.906,1.301,2.906,2.906
		s-1.301,2.906-2.906,2.906S28.875,33.824,28.875,32.219z M31.09,15.267l-1.424,11.4l-8.75-5.5l5.833,8.083l-11.925,1.852
		C15.19,22.385,22.315,15.394,31.09,15.267z M14.837,32.716l11.74,1.787l-5.634,8.664l8.172-5.708l1.514,10.843
		C22.142,47.943,15.305,41.174,14.837,32.716z M32.313,48.288l1.337-10.706l8.75,5.5l-5.833-8.083l11.232-1.745
		C47.086,41.369,40.491,47.804,32.313,48.288z"/>
</g>
</svg>
