<?xml version="1.0" encoding="utf-8"?>
<!-- Generator: Adobe Illustrator 17.0.0, SVG Export Plug-In . SVG Version: 6.00 Build 0)  -->
<!DOCTYPE svg PUBLIC "-//W3C//DTD SVG 1.1//EN" "http://www.w3.org/Graphics/SVG/1.1/DTD/svg11.dtd">
<svg version="1.1" xmlns="http://www.w3.org/2000/svg" xmlns:xlink="http://www.w3.org/1999/xlink" x="0px" y="0px" width="64px"
	 height="64px" viewBox="0 0 64 64" enable-background="new 0 0 64 64" xml:space="preserve">
<g id="Layer_2">
	<circle fill="#4993E4" cx="32" cy="32" r="32"/>
</g>
<g id="Layer_3">
	<path fill="#FFFFFF" d="M33.583,49.683c-5.456,0-7.767-4.244-7.767-5.933l0.044-18.927c0.38-1.443,1.943-4.173,5.139-4.173
		c3.784,0,5.767,3.542,5.767,4.767v17h-2.699V25.545C33.906,25.117,32.92,23.35,31,23.35c-1.646,0-2.316,1.544-2.483,2.021V43.75
		c0.043,0.4,1.218,3.233,5.066,3.233c3.152,0,4.313-2.53,4.567-3.206V20.667c0-1.889-3.59-5.4-6.984-5.4c-3.489,0-6.9,3.092-6.9,5.4
		V42.5h-2.7V20.667c0-4.012,4.845-8.1,9.6-8.1c4.896,0,9.683,4.638,9.683,8.1V44.19l-0.053,0.184
		C40.268,46.21,38.078,49.683,33.583,49.683z"/>
</g>
</svg>
