<?xml version="1.0" encoding="utf-8"?>
<!-- Generator: Adobe Illustrator 18.1.1, SVG Export Plug-In . SVG Version: 6.00 Build 0)  -->
<svg version="1.1" id="Layer_1" xmlns="http://www.w3.org/2000/svg" xmlns:xlink="http://www.w3.org/1999/xlink" x="0px" y="0px"
	 width="70px" height="77.5px" viewBox="0 0 70 77.5" enable-background="new 0 0 70 77.5" xml:space="preserve">
<path fill="none" stroke="#F1552A" stroke-width="5" stroke-linecap="round" stroke-linejoin="round" stroke-miterlimit="10" d="
	M51.7682076,49.6333771c5.727932,20.140152-20.8792419,29.0092087-37.3239517,16.2599411
	C1.6700646,55.9897346,0.9558952,35.2211571,14.2594824,22.2871151
	c12.4072599-12.0626135,35.7803421-12.0041275,46.3777809,0.1847725
	C73.7560806,39.8404617,48.8118553,42.057724,51.7682076,49.6333771z"/>
<path fill="#FFFFFF" stroke="#FFFFFF" stroke-width="11" stroke-linecap="round" stroke-linejoin="round" stroke-miterlimit="10" d="
	M31.0156937,39.6252289c0,0-4.2533035-5.9438362-2.6519451-12.349268s12.5645008-11.7022295,15.0281277-13.303587
	s-2.5868111,4.311348-2.8331718,6.4054298c-0.2463646,2.0940838,5.5431595,5.050436,5.9127045,8.7458782
	s-0.3624535,8.1922359-3.6303062,10.5015469"/>
<path fill="#FFFFFF" d="M48.3333321,76V39.6252441c0-1.4483643-0.5828857-2.9276123-1.6069946-3.9517212
	C45.7022285,34.649353,44.2894478,34,42.8410835,34H31.015707c-1.4483643,0-2.9561768,0.649353-3.9802856,1.6735229
	c-1.0241089,1.0241089-1.7020874,2.5033569-1.7020874,3.9517212V76H48.3333321z"/>
<g>
	<g>
		
			<rect x="31.0156937" y="39.6252289" fill="none" stroke="#F1552A" stroke-width="5" stroke-linecap="round" stroke-linejoin="round" stroke-miterlimit="10" width="11.8254108" height="33.1668396"/>
		<path fill="none" stroke="#F1552A" stroke-width="5" stroke-linecap="round" stroke-linejoin="round" stroke-miterlimit="10" d="
			M31.0156937,39.6252289"/>
		<path fill="none" stroke="#F1552A" stroke-width="5" stroke-linecap="round" stroke-linejoin="round" stroke-miterlimit="10" d="
			M42.8411026,39.6252289"/>
		
			<line fill="none" stroke="#F1552A" stroke-width="5" stroke-linecap="round" stroke-linejoin="round" stroke-miterlimit="10" x1="31.0156937" y1="45.956955" x2="42.8411026" y2="45.956955"/>
	</g>
	<path fill="none" stroke="#F1552A" stroke-width="5" stroke-linecap="round" stroke-linejoin="round" stroke-miterlimit="10" d="
		M31.0156937,39.6252289c0,0-4.2533035-5.9438362-2.6519451-12.349268s12.5645008-11.7022295,15.0281277-13.303587
		s-2.5868111,4.311348-2.8331718,6.4054298c-0.2463646,2.0940838,5.5431595,5.050436,5.9127045,8.7458782
		s-0.3624535,8.1922359-3.6303062,10.5015469"/>
</g>
</svg>
