<?xml version="1.0" encoding="utf-8"?>
<!-- Generator: Adobe Illustrator 17.0.0, SVG Export Plug-In . SVG Version: 6.00 Build 0)  -->
<!DOCTYPE svg PUBLIC "-//W3C//DTD SVG 1.1//EN" "http://www.w3.org/Graphics/SVG/1.1/DTD/svg11.dtd">
<svg version="1.1" xmlns="http://www.w3.org/2000/svg" xmlns:xlink="http://www.w3.org/1999/xlink" x="0px" y="0px" width="64px"
	 height="64px" viewBox="0 0 64 64" enable-background="new 0 0 64 64" xml:space="preserve">
<g id="Layer_2">
	<circle fill="#4993E4" cx="32" cy="32" r="32"/>
</g>
<g id="Layer_3">
	<g>
		<path fill="#FFFFFF" d="M27.483,24.904c-1.106-0.985-1.896-1.905-2.367-2.762c-0.473-0.856-0.708-1.764-0.708-2.722
			c0-1.646,0.691-3.099,2.074-4.361c1.383-1.261,3.167-1.892,5.353-1.892c2.037,0,3.68,0.516,4.927,1.548
			c1.248,1.032,1.872,2.148,1.872,3.349c0,0.729-0.219,1.322-0.657,1.781c-0.438,0.459-0.995,0.688-1.67,0.688
			c-0.661,0-1.2-0.209-1.618-0.627c-0.419-0.418-0.628-0.917-0.628-1.497c0-0.256,0.041-0.583,0.122-0.981
			c0.08-0.398,0.121-0.725,0.121-0.981c0-0.54-0.213-0.995-0.638-1.366c-0.425-0.371-1.049-0.556-1.872-0.556
			c-1.012,0-1.862,0.317-2.55,0.951c-0.688,0.634-1.032,1.322-1.032,2.064c0,0.863,0.276,1.652,0.83,2.367
			c0.539,0.729,1.814,1.727,3.825,2.995c4.856,3.008,7.284,6.023,7.284,9.045c0,1.2-0.323,2.304-0.971,3.309
			s-1.774,2.061-3.38,3.167c1.188,1.146,1.993,2.135,2.418,2.964c0.426,0.83,0.638,1.737,0.638,2.722c0,1.12-0.29,2.142-0.87,3.066
			c-0.58,0.924-1.443,1.655-2.59,2.195c-1.147,0.539-2.469,0.81-3.966,0.81c-2.132,0-3.771-0.493-4.917-1.478
			s-1.72-2.118-1.72-3.399c0-0.688,0.229-1.271,0.688-1.75c0.458-0.479,1.025-0.719,1.7-0.719c0.647,0,1.19,0.216,1.629,0.647
			c0.438,0.432,0.658,0.911,0.658,1.437c0,0.311-0.084,0.705-0.253,1.184c-0.169,0.479-0.253,0.874-0.253,1.185
			c0,0.364,0.202,0.701,0.607,1.012c0.405,0.31,1.032,0.465,1.882,0.465c1.188,0,2.107-0.29,2.763-0.87
			c0.653-0.58,0.981-1.262,0.981-2.044c0-0.903-0.223-1.652-0.668-2.246c-0.607-0.796-1.889-1.787-3.845-2.975
			c-2.442-1.497-4.377-3.096-5.808-4.796c-1.146-1.376-1.72-2.704-1.72-3.986c0-1.174,0.324-2.304,0.971-3.39
			S25.891,26.186,27.483,24.904z M28.576,25.794c-1.282,1.106-1.922,2.273-1.922,3.501c0,0.661,0.195,1.333,0.587,2.013
			c0.391,0.682,1.052,1.4,1.983,2.155l5.544,4.128c0.715-0.661,1.222-1.271,1.519-1.831c0.296-0.56,0.444-1.123,0.444-1.689
			c0-0.635-0.155-1.228-0.465-1.781c-0.499-0.863-1.241-1.679-2.227-2.448C33.567,29.464,31.746,28.115,28.576,25.794z"/>
	</g>
</g>
</svg>
