<?xml version="1.0" encoding="UTF-8"?>
<!DOCTYPE svg PUBLIC "-//W3C//DTD SVG 1.1//EN" "http://www.w3.org/Graphics/SVG/1.1/DTD/svg11.dtd">
<svg version="1.1" xmlns="http://www.w3.org/2000/svg" xmlns:xlink="http://www.w3.org/1999/xlink" x="0px" y="0px" width="64" height="64" viewBox="0, 0, 64, 64">
  <g id="Layer 1">
    <path d="M39.995,10.992 C40.198,11.216 40.808,11.883 40.824,11.902 C41.121,12.228 41.329,12.463 41.526,12.697 C41.764,12.977 41.974,13.244 42.178,13.526 C42.638,14.162 43.081,14.895 43.624,15.923 C46.806,21.944 46.727,28.517 43.64,34.974 C43.49,35.298 43.286,35.593 43.079,35.882 L56.508,49.311 C58.497,51.3 58.497,54.525 56.508,56.514 C54.52,58.502 51.295,58.502 49.306,56.514 L35.847,43.054 C33.422,44.535 30.594,45.617 27.738,45.843 C26.397,45.949 25.048,45.878 23.703,45.896 C20.901,45.685 18.404,44.835 15.917,43.63 C14.889,43.086 14.157,42.643 13.521,42.183 C13.239,41.979 12.972,41.769 12.691,41.532 C12.457,41.334 12.222,41.126 11.896,40.83 C11.878,40.813 11.211,40.203 10.954,39.97 C2.943,31.959 2.943,18.97 10.954,10.959 C18.965,2.948 31.953,2.948 39.995,10.992 z M16.681,16.686 C11.833,21.534 11.833,29.395 16.681,34.243 C21.529,39.091 29.389,39.091 34.237,34.243 C39.085,29.395 39.085,21.534 34.237,16.686 C29.389,11.838 21.529,11.838 16.681,16.686 z" fill="#000000" fill-opacity="0.71"/>
  </g>
  <defs/>
</svg>
