<?xml version="1.0" encoding="UTF-8"?>
<!DOCTYPE svg PUBLIC "-//W3C//DTD SVG 1.1//EN" "http://www.w3.org/Graphics/SVG/1.1/DTD/svg11.dtd">
<svg version="1.1" xmlns="http://www.w3.org/2000/svg" xmlns:xlink="http://www.w3.org/1999/xlink" x="0" y="0" width="64" height="64" viewBox="0, 0, 64, 64">
  <g id="Layer_2">
    <path d="M64,32 C64,49.673 49.673,64 32,64 C14.327,64 0,49.673 0,32 C0,14.327 14.327,0 32,0 C49.673,0 64,14.327 64,32 z" fill="#4993E4"/>
  </g>
  <g id="Layer_3">
    <path d="M22.017,15.708 C22.168,15.584 22.299,15.429 22.472,15.336 C23.678,14.695 24.458,14.695 25.665,15.336 C25.838,15.429 25.978,15.573 26.12,15.708 C26.532,16.1 26.924,16.512 27.326,16.915 L17.385,26.856 L16.179,25.65 C16.054,25.498 15.899,25.368 15.807,25.194 C15.165,23.988 15.165,23.208 15.807,22.001 C15.899,21.829 16.054,21.698 16.179,21.547 z" fill="#FFFFFF"/>
    <path d="M29.551,19.275 L44.998,34.722 L41.784,34.857 L41.479,37.914 L37.429,37.379 L38.116,42.193 L34.907,41.888 L35.099,44.705 L19.61,29.216 z" fill="#FFFFFF"/>
    <path d="M39.975,45.52 L45.995,39.501 L47.441,45.913 C47.609,46.663 47.138,47.134 46.387,46.966 z z" fill="#FFFFFF"/>
  </g>
</svg>
