<?xml version="1.0" encoding="utf-8"?>
<!-- Generator: Adobe Illustrator 16.2.0, SVG Export Plug-In . SVG Version: 6.00 Build 0)  -->
<!DOCTYPE svg PUBLIC "-//W3C//DTD SVG 1.1//EN" "http://www.w3.org/Graphics/SVG/1.1/DTD/svg11.dtd">
<svg version="1.1" id="Layer_1" xmlns="http://www.w3.org/2000/svg" xmlns:xlink="http://www.w3.org/1999/xlink" x="0px" y="0px"
	 width="21.5px" height="22px" viewBox="0 0 21.5 22" enable-background="new 0 0 21.5 22" xml:space="preserve">
<g>
	<linearGradient id="SVGID_1_" gradientUnits="userSpaceOnUse" x1="15.376" y1="18.7617" x2="6.1245" y2="2.7377">
		<stop  offset="0" style="stop-color:#89AA3F"/>
		<stop  offset="0.2533" style="stop-color:#9DB851"/>
		<stop  offset="0.7532" style="stop-color:#DAE595"/>
		<stop  offset="1" style="stop-color:#EFF4D3"/>
	</linearGradient>
	<circle fill="url(#SVGID_1_)" cx="10.75" cy="10.75" r="9.25"/>
	<path fill="#D5E387" d="M10.75,18c-3.998,0-7.25-3.252-7.25-7.25S6.752,3.5,10.75,3.5S18,6.752,18,10.75S14.748,18,10.75,18z"/>
</g>
<g>
	<path fill="#6B7F9D" d="M11.844,6.496c0,0.576-0.467,1.043-1.043,1.043c-0.576,0-1.043-0.468-1.043-1.043
		c0-0.575,0.467-1.042,1.043-1.042C11.377,5.454,11.844,5.92,11.844,6.496L11.844,6.496z"/>
	<path fill="#BBC1CF" d="M8.588,6.979c0.408,0.408,0.408,1.068,0,1.475c-0.406,0.408-1.066,0.408-1.475,0
		c-0.406-0.407-0.406-1.067,0-1.475C7.521,6.573,8.182,6.573,8.588,6.979L8.588,6.979z"/>
	<path fill="#BBC1CF" d="M6.629,9.625c0.576,0,1.043,0.467,1.043,1.043S7.205,11.71,6.629,11.71c-0.576,0-1.043-0.467-1.043-1.042
		C5.586,10.091,6.053,9.625,6.629,9.625L6.629,9.625z"/>
	<path fill="#ACB4C6" d="M7.113,12.879c0.408-0.406,1.068-0.406,1.475,0c0.408,0.408,0.408,1.068,0,1.477
		c-0.406,0.406-1.066,0.405-1.475,0C6.705,13.948,6.707,13.287,7.113,12.879L7.113,12.879z"/>
	<path fill="#9EA8BD" d="M9.758,14.839c0-0.575,0.467-1.043,1.043-1.043c0.576,0,1.043,0.468,1.043,1.043
		c0,0.576-0.467,1.042-1.043,1.043C10.225,15.882,9.758,15.415,9.758,14.839L9.758,14.839z"/>
	<path fill="#919DB4" d="M13.012,14.354c-0.406-0.406-0.406-1.066,0-1.475c0.408-0.408,1.068-0.408,1.477,0
		c0.406,0.407,0.406,1.068,0,1.475C14.08,14.762,13.42,14.761,13.012,14.354L13.012,14.354z"/>
	<path fill="#8492AC" d="M14.973,11.711c-0.576-0.001-1.043-0.468-1.043-1.043c0-0.576,0.467-1.043,1.043-1.043
		s1.043,0.467,1.043,1.042C16.016,11.243,15.549,11.71,14.973,11.711L14.973,11.711z"/>
	<path fill="#7888A4" d="M14.488,8.455c-0.408,0.408-1.068,0.408-1.475,0c-0.408-0.407-0.408-1.067,0-1.475
		c0.405-0.407,1.065-0.407,1.475,0C14.895,7.387,14.895,8.047,14.488,8.455L14.488,8.455z"/>
</g>
</svg>
