<?xml version="1.0" encoding="utf-8"?>
<!-- Generator: Adobe Illustrator 17.0.0, SVG Export Plug-In . SVG Version: 6.00 Build 0)  -->
<!DOCTYPE svg PUBLIC "-//W3C//DTD SVG 1.1//EN" "http://www.w3.org/Graphics/SVG/1.1/DTD/svg11.dtd">
<svg version="1.1" xmlns="http://www.w3.org/2000/svg" xmlns:xlink="http://www.w3.org/1999/xlink" x="0px" y="0px" width="64px"
	 height="64px" viewBox="0 0 64 64" enable-background="new 0 0 64 64" xml:space="preserve">
<g id="Layer_2">
	<circle fill="#4993E4" cx="32" cy="32" r="32"/>
</g>
<g id="Layer_4">
</g>
<g id="Layer_3">
	<g>
		<path fill="#FFFFFF" d="M34.5,11.875c-4.074,0-7.522,2.671-8.694,6.356c-1.291-1.3-3.079-2.106-5.056-2.106
			c-3.935,0-7.125,3.19-7.125,7.125s3.19,7.125,7.125,7.125c2.81,0,5.233-1.631,6.393-3.993c1.66,2.266,4.333,3.743,7.357,3.743
			c5.04,0,9.125-4.085,9.125-9.125S39.54,11.875,34.5,11.875z"/>
		<path fill="#FFFFFF" d="M34.112,31.5H23.25c-4.142,0-7.5,3.358-7.5,7.5s3.358,7.5,7.5,7.5h10.862c4.142,0,7.5-3.358,7.5-7.5
			S38.254,31.5,34.112,31.5z"/>
		<path fill="#FFFFFF" d="M44,35.75c0,0,0.5,4.25,0,7.25l6.5,3V32.75L44,35.75z"/>
	</g>
</g>
</svg>
